<svg xmlns="http://www.w3.org/2000/svg" xmlns:xlink="http://www.w3.org/1999/xlink" width="745" zoomAndPan="magnify" viewBox="0 0 558.75 198.749996" height="265" preserveAspectRatio="xMidYMid meet" version="1.0"><defs><g/><clipPath id="03a32512f8"><path d="M 0.226562 0 L 558.273438 0 L 558.273438 198.5 L 0.226562 198.5 Z M 0.226562 0 " clip-rule="nonzero"/></clipPath></defs><g clip-path="url(#03a32512f8)"><path fill="#ffffff" d="M 0.226562 0 L 558.273438 0 L 558.273438 198.5 L 0.226562 198.5 Z M 0.226562 0 " fill-opacity="1" fill-rule="nonzero"/></g><path stroke-linecap="butt" transform="matrix(-0.0116893, -0.748967, 0.748967, -0.0116893, 218.800704, 163.900505)" fill="none" stroke-linejoin="miter" d="M 0.000159823 0.500796 L 110.28233 0.500874 " stroke="#191919" stroke-width="1" stroke-opacity="1" stroke-miterlimit="4"/><g fill="#ffffff" fill-opacity="1"><g transform="translate(42.581139, 142.822358)"><g><path d="M 28.765625 -30.703125 L 28.765625 -12.015625 C 28.765625 -9.160156 29.066406 -7.066406 29.671875 -5.734375 C 30.285156 -4.410156 31.359375 -3.535156 32.890625 -3.109375 C 34.429688 -2.679688 36.882812 -2.429688 40.25 -2.359375 L 40.25 0 C 31.445312 -0.21875 24.898438 -0.328125 20.609375 -0.328125 C 17.035156 -0.328125 12.523438 -0.253906 7.078125 -0.109375 L 3.65625 0 L 3.65625 -2.140625 C 6.007812 -2.285156 7.738281 -2.570312 8.84375 -3 C 9.957031 -3.4375 10.710938 -4.257812 11.109375 -5.46875 C 11.503906 -6.6875 11.703125 -8.65625 11.703125 -11.375 L 11.703125 -64.625 C 11.703125 -67.34375 11.503906 -69.304688 11.109375 -70.515625 C 10.710938 -71.734375 9.957031 -72.554688 8.84375 -72.984375 C 7.738281 -73.421875 6.007812 -73.710938 3.65625 -73.859375 L 3.65625 -76 C 7.300781 -75.78125 12.738281 -75.671875 19.96875 -75.671875 L 31.875 -75.78125 C 33.3125 -75.851562 34.957031 -75.890625 36.8125 -75.890625 C 46.476562 -75.890625 53.847656 -73.972656 58.921875 -70.140625 C 64.003906 -66.316406 66.546875 -61.1875 66.546875 -54.75 C 66.546875 -50.8125 65.546875 -47.035156 63.546875 -43.421875 C 61.546875 -39.804688 58.164062 -36.78125 53.40625 -34.34375 C 48.644531 -31.914062 42.328125 -30.703125 34.453125 -30.703125 Z M 35.421875 -73.859375 C 33.492188 -73.859375 32.082031 -73.601562 31.1875 -73.09375 C 30.289062 -72.59375 29.660156 -71.695312 29.296875 -70.40625 C 28.941406 -69.125 28.765625 -67.195312 28.765625 -64.625 L 28.765625 -32.84375 L 33.390625 -32.84375 C 39.179688 -32.84375 43.1875 -34.703125 45.40625 -38.421875 C 47.625 -42.148438 48.734375 -47.195312 48.734375 -53.5625 C 48.734375 -60.507812 47.710938 -65.628906 45.671875 -68.921875 C 43.628906 -72.210938 40.210938 -73.859375 35.421875 -73.859375 Z M 35.421875 -73.859375 "/></g></g></g><g fill="#ffffff" fill-opacity="1"><g transform="translate(108.166766, 142.822358)"><g/></g></g><g fill="#ffffff" fill-opacity="1"><g transform="translate(129.956808, 142.822358)"><g><path d="M 30.484375 -77.390625 C 34.203125 -77.390625 37.171875 -77.03125 39.390625 -76.3125 C 41.609375 -75.601562 43.863281 -74.566406 46.15625 -73.203125 C 46.945312 -72.773438 47.644531 -72.414062 48.25 -72.125 C 48.851562 -71.84375 49.375 -71.703125 49.8125 -71.703125 C 50.457031 -71.703125 50.957031 -72.078125 51.3125 -72.828125 C 51.664062 -73.578125 51.953125 -74.773438 52.171875 -76.421875 L 54.640625 -76.421875 C 54.273438 -71.628906 54.09375 -63.472656 54.09375 -51.953125 L 51.625 -51.953125 C 51.34375 -55.816406 50.46875 -59.5 49 -63 C 47.53125 -66.507812 45.453125 -69.351562 42.765625 -71.53125 C 40.085938 -73.71875 36.960938 -74.8125 33.390625 -74.8125 C 29.878906 -74.8125 27.03125 -73.828125 24.84375 -71.859375 C 22.664062 -69.898438 21.578125 -67.238281 21.578125 -63.875 C 21.578125 -61.363281 22.113281 -59.175781 23.1875 -57.3125 C 24.257812 -55.457031 25.757812 -53.757812 27.6875 -52.21875 C 29.625 -50.6875 32.597656 -48.59375 36.609375 -45.9375 L 40.046875 -43.578125 C 44.265625 -40.785156 47.585938 -38.351562 50.015625 -36.28125 C 52.453125 -34.207031 54.4375 -31.789062 55.96875 -29.03125 C 57.507812 -26.28125 58.28125 -23.078125 58.28125 -19.421875 C 58.28125 -14.847656 57.097656 -11.003906 54.734375 -7.890625 C 52.378906 -4.773438 49.179688 -2.429688 45.140625 -0.859375 C 41.097656 0.710938 36.609375 1.5 31.671875 1.5 C 27.660156 1.5 24.332031 1.140625 21.6875 0.421875 C 19.039062 -0.285156 16.609375 -1.25 14.390625 -2.46875 C 12.804688 -3.46875 11.585938 -3.96875 10.734375 -3.96875 C 10.085938 -3.96875 9.582031 -3.59375 9.21875 -2.84375 C 8.863281 -2.09375 8.582031 -0.894531 8.375 0.75 L 5.90625 0.75 C 6.1875 -3.757812 6.328125 -13.421875 6.328125 -28.234375 L 8.796875 -28.234375 C 9.296875 -20.210938 11.082031 -13.710938 14.15625 -8.734375 C 17.238281 -3.765625 21.96875 -1.28125 28.34375 -1.28125 C 32.207031 -1.28125 35.390625 -2.316406 37.890625 -4.390625 C 40.398438 -6.472656 41.65625 -9.445312 41.65625 -13.3125 C 41.65625 -17.320312 40.363281 -20.753906 37.78125 -23.609375 C 35.207031 -26.472656 31.128906 -29.695312 25.546875 -33.28125 C 21.253906 -36.070312 17.816406 -38.503906 15.234375 -40.578125 C 12.660156 -42.648438 10.550781 -45.097656 8.90625 -47.921875 C 7.257812 -50.753906 6.4375 -54.03125 6.4375 -57.75 C 6.4375 -62.039062 7.523438 -65.671875 9.703125 -68.640625 C 11.890625 -71.609375 14.804688 -73.804688 18.453125 -75.234375 C 22.109375 -76.671875 26.117188 -77.390625 30.484375 -77.390625 Z M 30.484375 -77.390625 "/></g></g></g><g fill="#ffffff" fill-opacity="1"><g transform="translate(242.022385, 92.650841)"><g><path d="M 6.578125 -8.703125 L 6.578125 -3.21875 C 6.578125 -2.445312 6.65625 -1.890625 6.8125 -1.546875 C 6.976562 -1.203125 7.265625 -0.96875 7.671875 -0.84375 C 8.078125 -0.726562 8.734375 -0.648438 9.640625 -0.609375 L 9.640625 0 C 8.585938 -0.0625 7.097656 -0.09375 5.171875 -0.09375 C 3.429688 -0.09375 2.132812 -0.0625 1.28125 0 L 1.28125 -0.609375 C 2.007812 -0.648438 2.539062 -0.726562 2.875 -0.84375 C 3.207031 -0.96875 3.429688 -1.203125 3.546875 -1.546875 C 3.671875 -1.890625 3.734375 -2.445312 3.734375 -3.21875 L 3.734375 -18.3125 C 3.734375 -19.082031 3.671875 -19.640625 3.546875 -19.984375 C 3.429688 -20.328125 3.207031 -20.5625 2.875 -20.6875 C 2.539062 -20.8125 2.007812 -20.894531 1.28125 -20.9375 L 1.28125 -21.53125 C 2.132812 -21.476562 3.367188 -21.453125 4.984375 -21.453125 L 8.28125 -21.484375 C 8.664062 -21.503906 9.097656 -21.515625 9.578125 -21.515625 C 11.953125 -21.515625 13.769531 -20.96875 15.03125 -19.875 C 16.289062 -18.789062 16.921875 -17.335938 16.921875 -15.515625 C 16.921875 -14.398438 16.671875 -13.328125 16.171875 -12.296875 C 15.671875 -11.273438 14.828125 -10.421875 13.640625 -9.734375 C 12.453125 -9.046875 10.875 -8.703125 8.90625 -8.703125 Z M 8.828125 -20.9375 C 8.191406 -20.9375 7.71875 -20.863281 7.40625 -20.71875 C 7.09375 -20.570312 6.875 -20.316406 6.75 -19.953125 C 6.632812 -19.585938 6.578125 -19.039062 6.578125 -18.3125 L 6.578125 -9.3125 L 8.609375 -9.3125 C 10.597656 -9.3125 11.972656 -9.84375 12.734375 -10.90625 C 13.492188 -11.96875 13.875 -13.394531 13.875 -15.1875 C 13.875 -17.144531 13.484375 -18.59375 12.703125 -19.53125 C 11.921875 -20.46875 10.628906 -20.9375 8.828125 -20.9375 Z M 8.828125 -20.9375 "/></g></g></g><g fill="#ffffff" fill-opacity="1"><g transform="translate(259.807077, 92.650841)"><g><path d="M 17.25 -2.5625 C 17.738281 -1.300781 18.4375 -0.648438 19.34375 -0.609375 L 19.34375 0 C 18.53125 -0.0625 17.445312 -0.09375 16.09375 -0.09375 C 14.351562 -0.09375 13.054688 -0.0625 12.203125 0 L 12.203125 -0.609375 C 12.972656 -0.648438 13.523438 -0.742188 13.859375 -0.890625 C 14.191406 -1.046875 14.359375 -1.328125 14.359375 -1.734375 C 14.359375 -2.078125 14.238281 -2.550781 14 -3.15625 L 12.140625 -8.15625 L 4.78125 -8.15625 L 3.53125 -4.921875 C 3.125 -3.828125 2.921875 -3 2.921875 -2.4375 C 2.921875 -1.800781 3.140625 -1.34375 3.578125 -1.0625 C 4.015625 -0.78125 4.675781 -0.628906 5.5625 -0.609375 L 5.5625 0 C 4.40625 -0.0625 3.238281 -0.09375 2.0625 -0.09375 C 1.15625 -0.09375 0.394531 -0.0625 -0.21875 0 L -0.21875 -0.609375 C 0.800781 -0.847656 1.601562 -1.726562 2.1875 -3.25 L 9.34375 -21.6875 L 9.828125 -21.6875 Z M 11.890625 -8.765625 L 8.484375 -17.859375 L 5.015625 -8.765625 Z M 11.890625 -8.765625 "/></g></g></g><g fill="#ffffff" fill-opacity="1"><g transform="translate(278.959818, 92.650841)"><g><path d="M 11.4375 -21.96875 C 12.632812 -21.96875 13.617188 -21.796875 14.390625 -21.453125 C 15.160156 -21.117188 16.003906 -20.628906 16.921875 -19.984375 C 17.179688 -19.785156 17.378906 -19.6875 17.515625 -19.6875 C 17.898438 -19.6875 18.15625 -20.300781 18.28125 -21.53125 L 18.984375 -21.53125 C 18.898438 -20.21875 18.859375 -17.890625 18.859375 -14.546875 L 18.15625 -14.546875 C 17.976562 -15.617188 17.785156 -16.503906 17.578125 -17.203125 C 17.378906 -17.898438 17.066406 -18.515625 16.640625 -19.046875 C 16.054688 -19.773438 15.289062 -20.351562 14.34375 -20.78125 C 13.394531 -21.207031 12.40625 -21.421875 11.375 -21.421875 C 10.039062 -21.421875 8.863281 -20.984375 7.84375 -20.109375 C 6.832031 -19.234375 6.050781 -17.988281 5.5 -16.375 C 4.957031 -14.769531 4.6875 -12.890625 4.6875 -10.734375 C 4.6875 -7.085938 5.269531 -4.414062 6.4375 -2.71875 C 7.601562 -1.03125 9.429688 -0.1875 11.921875 -0.1875 C 13.140625 -0.1875 14.195312 -0.5 15.09375 -1.125 C 15.457031 -1.363281 15.691406 -1.597656 15.796875 -1.828125 C 15.910156 -2.066406 15.96875 -2.390625 15.96875 -2.796875 L 15.96875 -5.71875 C 15.96875 -6.570312 15.882812 -7.191406 15.71875 -7.578125 C 15.5625 -7.960938 15.28125 -8.222656 14.875 -8.359375 C 14.46875 -8.503906 13.8125 -8.597656 12.90625 -8.640625 L 12.90625 -9.25 C 13.957031 -9.1875 15.382812 -9.15625 17.1875 -9.15625 C 18.5625 -9.15625 19.617188 -9.1875 20.359375 -9.25 L 20.359375 -8.640625 C 19.890625 -8.597656 19.546875 -8.515625 19.328125 -8.390625 C 19.117188 -8.273438 18.976562 -8.039062 18.90625 -7.6875 C 18.832031 -7.34375 18.796875 -6.789062 18.796875 -6.03125 L 18.796875 0 L 18.1875 0 C 18.164062 -0.40625 18.082031 -0.796875 17.9375 -1.171875 C 17.800781 -1.546875 17.613281 -1.734375 17.375 -1.734375 C 17.25 -1.734375 17.125 -1.703125 17 -1.640625 C 16.882812 -1.578125 16.671875 -1.4375 16.359375 -1.21875 C 15.648438 -0.664062 14.914062 -0.253906 14.15625 0.015625 C 13.394531 0.285156 12.550781 0.421875 11.625 0.421875 C 9.53125 0.421875 7.738281 -0.00390625 6.25 -0.859375 C 4.757812 -1.722656 3.617188 -2.96875 2.828125 -4.59375 C 2.035156 -6.21875 1.640625 -8.15625 1.640625 -10.40625 C 1.640625 -12.71875 2.0625 -14.75 2.90625 -16.5 C 3.75 -18.257812 4.910156 -19.609375 6.390625 -20.546875 C 7.867188 -21.492188 9.550781 -21.96875 11.4375 -21.96875 Z M 11.4375 -21.96875 "/></g></g></g><g fill="#ffffff" fill-opacity="1"><g transform="translate(300.331833, 92.650841)"><g><path d="M 16.859375 -3.890625 C 16.859375 -2.734375 16.925781 -1.4375 17.0625 0 C 15.6875 -0.0625 13.363281 -0.09375 10.09375 -0.09375 C 6.207031 -0.09375 3.269531 -0.0625 1.28125 0 L 1.28125 -0.609375 C 2.007812 -0.648438 2.539062 -0.726562 2.875 -0.84375 C 3.207031 -0.96875 3.429688 -1.203125 3.546875 -1.546875 C 3.671875 -1.890625 3.734375 -2.445312 3.734375 -3.21875 L 3.734375 -18.3125 C 3.734375 -19.082031 3.671875 -19.640625 3.546875 -19.984375 C 3.429688 -20.328125 3.207031 -20.5625 2.875 -20.6875 C 2.539062 -20.8125 2.007812 -20.894531 1.28125 -20.9375 L 1.28125 -21.53125 C 3.269531 -21.476562 6.207031 -21.453125 10.09375 -21.453125 C 13.082031 -21.453125 15.203125 -21.476562 16.453125 -21.53125 C 16.316406 -20.195312 16.25 -19.003906 16.25 -17.953125 C 16.25 -17.160156 16.28125 -16.53125 16.34375 -16.0625 L 15.640625 -16.0625 C 15.492188 -17.382812 15.304688 -18.363281 15.078125 -19 C 14.859375 -19.632812 14.484375 -20.097656 13.953125 -20.390625 C 13.429688 -20.691406 12.632812 -20.84375 11.5625 -20.84375 L 9.03125 -20.84375 C 8.300781 -20.84375 7.769531 -20.785156 7.4375 -20.671875 C 7.101562 -20.554688 6.875 -20.328125 6.75 -19.984375 C 6.632812 -19.640625 6.578125 -19.082031 6.578125 -18.3125 L 6.578125 -11.140625 L 8.578125 -11.140625 C 9.285156 -11.140625 9.832031 -11.304688 10.21875 -11.640625 C 10.601562 -11.972656 10.859375 -12.363281 10.984375 -12.8125 C 11.117188 -13.269531 11.226562 -13.847656 11.3125 -14.546875 L 11.40625 -15.15625 L 12.109375 -15.15625 C 12.046875 -14.300781 12.015625 -13.347656 12.015625 -12.296875 L 12.015625 -10.828125 C 12.015625 -9.796875 12.078125 -8.359375 12.203125 -6.515625 L 11.5 -6.515625 C 11.476562 -6.648438 11.414062 -7.140625 11.3125 -7.984375 C 11.21875 -8.828125 10.941406 -9.460938 10.484375 -9.890625 C 10.023438 -10.316406 9.390625 -10.53125 8.578125 -10.53125 L 6.578125 -10.53125 L 6.578125 -3.21875 C 6.578125 -2.445312 6.632812 -1.890625 6.75 -1.546875 C 6.875 -1.203125 7.101562 -0.972656 7.4375 -0.859375 C 7.769531 -0.753906 8.300781 -0.703125 9.03125 -0.703125 L 11.25 -0.703125 C 12.507812 -0.703125 13.46875 -0.867188 14.125 -1.203125 C 14.789062 -1.535156 15.273438 -2.070312 15.578125 -2.8125 C 15.878906 -3.550781 16.101562 -4.640625 16.25 -6.078125 L 16.9375 -6.078125 C 16.882812 -5.535156 16.859375 -4.804688 16.859375 -3.890625 Z M 16.859375 -3.890625 "/></g></g></g><g fill="#ffffff" fill-opacity="1"><g transform="translate(318.846146, 92.650841)"><g><path d="M 11.4375 -21.96875 C 12.632812 -21.96875 13.617188 -21.796875 14.390625 -21.453125 C 15.160156 -21.117188 16.003906 -20.628906 16.921875 -19.984375 C 17.179688 -19.785156 17.378906 -19.6875 17.515625 -19.6875 C 17.898438 -19.6875 18.15625 -20.300781 18.28125 -21.53125 L 18.984375 -21.53125 C 18.898438 -20.21875 18.859375 -17.890625 18.859375 -14.546875 L 18.15625 -14.546875 C 17.976562 -15.617188 17.785156 -16.503906 17.578125 -17.203125 C 17.378906 -17.898438 17.066406 -18.515625 16.640625 -19.046875 C 16.054688 -19.773438 15.289062 -20.351562 14.34375 -20.78125 C 13.394531 -21.207031 12.40625 -21.421875 11.375 -21.421875 C 10.039062 -21.421875 8.863281 -20.984375 7.84375 -20.109375 C 6.832031 -19.234375 6.050781 -17.988281 5.5 -16.375 C 4.957031 -14.769531 4.6875 -12.890625 4.6875 -10.734375 C 4.6875 -7.085938 5.269531 -4.414062 6.4375 -2.71875 C 7.601562 -1.03125 9.429688 -0.1875 11.921875 -0.1875 C 13.140625 -0.1875 14.195312 -0.5 15.09375 -1.125 C 15.457031 -1.363281 15.691406 -1.597656 15.796875 -1.828125 C 15.910156 -2.066406 15.96875 -2.390625 15.96875 -2.796875 L 15.96875 -5.71875 C 15.96875 -6.570312 15.882812 -7.191406 15.71875 -7.578125 C 15.5625 -7.960938 15.28125 -8.222656 14.875 -8.359375 C 14.46875 -8.503906 13.8125 -8.597656 12.90625 -8.640625 L 12.90625 -9.25 C 13.957031 -9.1875 15.382812 -9.15625 17.1875 -9.15625 C 18.5625 -9.15625 19.617188 -9.1875 20.359375 -9.25 L 20.359375 -8.640625 C 19.890625 -8.597656 19.546875 -8.515625 19.328125 -8.390625 C 19.117188 -8.273438 18.976562 -8.039062 18.90625 -7.6875 C 18.832031 -7.34375 18.796875 -6.789062 18.796875 -6.03125 L 18.796875 0 L 18.1875 0 C 18.164062 -0.40625 18.082031 -0.796875 17.9375 -1.171875 C 17.800781 -1.546875 17.613281 -1.734375 17.375 -1.734375 C 17.25 -1.734375 17.125 -1.703125 17 -1.640625 C 16.882812 -1.578125 16.671875 -1.4375 16.359375 -1.21875 C 15.648438 -0.664062 14.914062 -0.253906 14.15625 0.015625 C 13.394531 0.285156 12.550781 0.421875 11.625 0.421875 C 9.53125 0.421875 7.738281 -0.00390625 6.25 -0.859375 C 4.757812 -1.722656 3.617188 -2.96875 2.828125 -4.59375 C 2.035156 -6.21875 1.640625 -8.15625 1.640625 -10.40625 C 1.640625 -12.71875 2.0625 -14.75 2.90625 -16.5 C 3.75 -18.257812 4.910156 -19.609375 6.390625 -20.546875 C 7.867188 -21.492188 9.550781 -21.96875 11.4375 -21.96875 Z M 11.4375 -21.96875 "/></g></g></g><g fill="#ffffff" fill-opacity="1"><g transform="translate(340.218161, 92.650841)"><g><path d="M 16.859375 -3.890625 C 16.859375 -2.734375 16.925781 -1.4375 17.0625 0 C 15.6875 -0.0625 13.363281 -0.09375 10.09375 -0.09375 C 6.207031 -0.09375 3.269531 -0.0625 1.28125 0 L 1.28125 -0.609375 C 2.007812 -0.648438 2.539062 -0.726562 2.875 -0.84375 C 3.207031 -0.96875 3.429688 -1.203125 3.546875 -1.546875 C 3.671875 -1.890625 3.734375 -2.445312 3.734375 -3.21875 L 3.734375 -18.3125 C 3.734375 -19.082031 3.671875 -19.640625 3.546875 -19.984375 C 3.429688 -20.328125 3.207031 -20.5625 2.875 -20.6875 C 2.539062 -20.8125 2.007812 -20.894531 1.28125 -20.9375 L 1.28125 -21.53125 C 3.269531 -21.476562 6.207031 -21.453125 10.09375 -21.453125 C 13.082031 -21.453125 15.203125 -21.476562 16.453125 -21.53125 C 16.316406 -20.195312 16.25 -19.003906 16.25 -17.953125 C 16.25 -17.160156 16.28125 -16.53125 16.34375 -16.0625 L 15.640625 -16.0625 C 15.492188 -17.382812 15.304688 -18.363281 15.078125 -19 C 14.859375 -19.632812 14.484375 -20.097656 13.953125 -20.390625 C 13.429688 -20.691406 12.632812 -20.84375 11.5625 -20.84375 L 9.03125 -20.84375 C 8.300781 -20.84375 7.769531 -20.785156 7.4375 -20.671875 C 7.101562 -20.554688 6.875 -20.328125 6.75 -19.984375 C 6.632812 -19.640625 6.578125 -19.082031 6.578125 -18.3125 L 6.578125 -11.140625 L 8.578125 -11.140625 C 9.285156 -11.140625 9.832031 -11.304688 10.21875 -11.640625 C 10.601562 -11.972656 10.859375 -12.363281 10.984375 -12.8125 C 11.117188 -13.269531 11.226562 -13.847656 11.3125 -14.546875 L 11.40625 -15.15625 L 12.109375 -15.15625 C 12.046875 -14.300781 12.015625 -13.347656 12.015625 -12.296875 L 12.015625 -10.828125 C 12.015625 -9.796875 12.078125 -8.359375 12.203125 -6.515625 L 11.5 -6.515625 C 11.476562 -6.648438 11.414062 -7.140625 11.3125 -7.984375 C 11.21875 -8.828125 10.941406 -9.460938 10.484375 -9.890625 C 10.023438 -10.316406 9.390625 -10.53125 8.578125 -10.53125 L 6.578125 -10.53125 L 6.578125 -3.21875 C 6.578125 -2.445312 6.632812 -1.890625 6.75 -1.546875 C 6.875 -1.203125 7.101562 -0.972656 7.4375 -0.859375 C 7.769531 -0.753906 8.300781 -0.703125 9.03125 -0.703125 L 11.25 -0.703125 C 12.507812 -0.703125 13.46875 -0.867188 14.125 -1.203125 C 14.789062 -1.535156 15.273438 -2.070312 15.578125 -2.8125 C 15.878906 -3.550781 16.101562 -4.640625 16.25 -6.078125 L 16.9375 -6.078125 C 16.882812 -5.535156 16.859375 -4.804688 16.859375 -3.890625 Z M 16.859375 -3.890625 "/></g></g></g><g fill="#ffffff" fill-opacity="1"><g transform="translate(358.732474, 92.650841)"><g><path d="M 20.375 -20.9375 C 19.664062 -20.894531 19.140625 -20.785156 18.796875 -20.609375 C 18.453125 -20.441406 18.21875 -20.160156 18.09375 -19.765625 C 17.976562 -19.367188 17.921875 -18.785156 17.921875 -18.015625 L 17.921875 0.15625 L 17.21875 0.15625 L 4.4375 -19.59375 L 4.4375 -3.53125 C 4.4375 -2.738281 4.503906 -2.148438 4.640625 -1.765625 C 4.773438 -1.378906 5.035156 -1.097656 5.421875 -0.921875 C 5.804688 -0.753906 6.398438 -0.648438 7.203125 -0.609375 L 7.203125 0 C 6.472656 -0.0625 5.441406 -0.09375 4.109375 -0.09375 C 2.890625 -0.09375 1.945312 -0.0625 1.28125 0 L 1.28125 -0.609375 C 1.988281 -0.648438 2.515625 -0.753906 2.859375 -0.921875 C 3.203125 -1.097656 3.429688 -1.382812 3.546875 -1.78125 C 3.671875 -2.175781 3.734375 -2.757812 3.734375 -3.53125 L 3.734375 -18.3125 C 3.734375 -19.082031 3.671875 -19.640625 3.546875 -19.984375 C 3.429688 -20.328125 3.207031 -20.5625 2.875 -20.6875 C 2.539062 -20.8125 2.007812 -20.894531 1.28125 -20.9375 L 1.28125 -21.53125 C 1.945312 -21.476562 2.890625 -21.453125 4.109375 -21.453125 C 5.015625 -21.453125 5.804688 -21.476562 6.484375 -21.53125 L 17.21875 -4.984375 L 17.21875 -18.015625 C 17.21875 -18.804688 17.148438 -19.394531 17.015625 -19.78125 C 16.890625 -20.164062 16.632812 -20.441406 16.25 -20.609375 C 15.863281 -20.785156 15.265625 -20.894531 14.453125 -20.9375 L 14.453125 -21.53125 C 15.179688 -21.476562 16.210938 -21.453125 17.546875 -21.453125 C 18.765625 -21.453125 19.707031 -21.476562 20.375 -21.53125 Z M 20.375 -20.9375 "/></g></g></g><g fill="#ffffff" fill-opacity="1"><g transform="translate(380.195701, 92.650841)"><g><path d="M 9.03125 -20.9375 C 8.300781 -20.894531 7.769531 -20.8125 7.4375 -20.6875 C 7.101562 -20.5625 6.875 -20.328125 6.75 -19.984375 C 6.632812 -19.640625 6.578125 -19.082031 6.578125 -18.3125 L 6.578125 -3.21875 C 6.578125 -2.445312 6.632812 -1.890625 6.75 -1.546875 C 6.875 -1.203125 7.101562 -0.96875 7.4375 -0.84375 C 7.769531 -0.726562 8.300781 -0.648438 9.03125 -0.609375 L 9.03125 0 C 8.101562 -0.0625 6.816406 -0.09375 5.171875 -0.09375 C 3.429688 -0.09375 2.132812 -0.0625 1.28125 0 L 1.28125 -0.609375 C 2.007812 -0.648438 2.539062 -0.726562 2.875 -0.84375 C 3.207031 -0.96875 3.429688 -1.203125 3.546875 -1.546875 C 3.671875 -1.890625 3.734375 -2.445312 3.734375 -3.21875 L 3.734375 -18.3125 C 3.734375 -19.082031 3.671875 -19.640625 3.546875 -19.984375 C 3.429688 -20.328125 3.207031 -20.5625 2.875 -20.6875 C 2.539062 -20.8125 2.007812 -20.894531 1.28125 -20.9375 L 1.28125 -21.53125 C 2.132812 -21.476562 3.429688 -21.453125 5.171875 -21.453125 C 6.796875 -21.453125 8.082031 -21.476562 9.03125 -21.53125 Z M 9.03125 -20.9375 "/></g></g></g><g fill="#ffffff" fill-opacity="1"><g transform="translate(390.501702, 92.650841)"><g><path d="M 16.859375 -3.890625 C 16.859375 -2.734375 16.925781 -1.4375 17.0625 0 C 15.6875 -0.0625 13.363281 -0.09375 10.09375 -0.09375 C 6.207031 -0.09375 3.269531 -0.0625 1.28125 0 L 1.28125 -0.609375 C 2.007812 -0.648438 2.539062 -0.726562 2.875 -0.84375 C 3.207031 -0.96875 3.429688 -1.203125 3.546875 -1.546875 C 3.671875 -1.890625 3.734375 -2.445312 3.734375 -3.21875 L 3.734375 -18.3125 C 3.734375 -19.082031 3.671875 -19.640625 3.546875 -19.984375 C 3.429688 -20.328125 3.207031 -20.5625 2.875 -20.6875 C 2.539062 -20.8125 2.007812 -20.894531 1.28125 -20.9375 L 1.28125 -21.53125 C 3.269531 -21.476562 6.207031 -21.453125 10.09375 -21.453125 C 13.082031 -21.453125 15.203125 -21.476562 16.453125 -21.53125 C 16.316406 -20.195312 16.25 -19.003906 16.25 -17.953125 C 16.25 -17.160156 16.28125 -16.53125 16.34375 -16.0625 L 15.640625 -16.0625 C 15.492188 -17.382812 15.304688 -18.363281 15.078125 -19 C 14.859375 -19.632812 14.484375 -20.097656 13.953125 -20.390625 C 13.429688 -20.691406 12.632812 -20.84375 11.5625 -20.84375 L 9.03125 -20.84375 C 8.300781 -20.84375 7.769531 -20.785156 7.4375 -20.671875 C 7.101562 -20.554688 6.875 -20.328125 6.75 -19.984375 C 6.632812 -19.640625 6.578125 -19.082031 6.578125 -18.3125 L 6.578125 -11.140625 L 8.578125 -11.140625 C 9.285156 -11.140625 9.832031 -11.304688 10.21875 -11.640625 C 10.601562 -11.972656 10.859375 -12.363281 10.984375 -12.8125 C 11.117188 -13.269531 11.226562 -13.847656 11.3125 -14.546875 L 11.40625 -15.15625 L 12.109375 -15.15625 C 12.046875 -14.300781 12.015625 -13.347656 12.015625 -12.296875 L 12.015625 -10.828125 C 12.015625 -9.796875 12.078125 -8.359375 12.203125 -6.515625 L 11.5 -6.515625 C 11.476562 -6.648438 11.414062 -7.140625 11.3125 -7.984375 C 11.21875 -8.828125 10.941406 -9.460938 10.484375 -9.890625 C 10.023438 -10.316406 9.390625 -10.53125 8.578125 -10.53125 L 6.578125 -10.53125 L 6.578125 -3.21875 C 6.578125 -2.445312 6.632812 -1.890625 6.75 -1.546875 C 6.875 -1.203125 7.101562 -0.972656 7.4375 -0.859375 C 7.769531 -0.753906 8.300781 -0.703125 9.03125 -0.703125 L 11.25 -0.703125 C 12.507812 -0.703125 13.46875 -0.867188 14.125 -1.203125 C 14.789062 -1.535156 15.273438 -2.070312 15.578125 -2.8125 C 15.878906 -3.550781 16.101562 -4.640625 16.25 -6.078125 L 16.9375 -6.078125 C 16.882812 -5.535156 16.859375 -4.804688 16.859375 -3.890625 Z M 16.859375 -3.890625 "/></g></g></g><g fill="#ffffff" fill-opacity="1"><g transform="translate(409.016015, 92.650841)"><g/></g></g><g fill="#ffffff" fill-opacity="1"><g transform="translate(416.585899, 92.650841)"><g><path d="M 7.78125 -21.875 C 8.675781 -21.875 9.378906 -21.773438 9.890625 -21.578125 C 10.410156 -21.390625 10.945312 -21.113281 11.5 -20.75 C 11.945312 -20.46875 12.289062 -20.328125 12.53125 -20.328125 C 12.71875 -20.328125 12.859375 -20.429688 12.953125 -20.640625 C 13.054688 -20.847656 13.140625 -21.1875 13.203125 -21.65625 L 13.90625 -21.65625 C 13.800781 -20.476562 13.75 -18.410156 13.75 -15.453125 L 13.046875 -15.453125 C 12.929688 -17.097656 12.460938 -18.484375 11.640625 -19.609375 C 10.816406 -20.734375 9.625 -21.296875 8.0625 -21.296875 C 6.96875 -21.296875 6.070312 -20.960938 5.375 -20.296875 C 4.6875 -19.640625 4.34375 -18.796875 4.34375 -17.765625 C 4.34375 -16.992188 4.519531 -16.320312 4.875 -15.75 C 5.238281 -15.1875 5.691406 -14.703125 6.234375 -14.296875 C 6.785156 -13.890625 7.566406 -13.375 8.578125 -12.75 L 9.46875 -12.203125 C 10.738281 -11.410156 11.742188 -10.710938 12.484375 -10.109375 C 13.222656 -9.515625 13.816406 -8.832031 14.265625 -8.0625 C 14.710938 -7.289062 14.9375 -6.390625 14.9375 -5.359375 C 14.9375 -3.503906 14.328125 -2.078125 13.109375 -1.078125 C 11.890625 -0.078125 10.347656 0.421875 8.484375 0.421875 C 7.515625 0.421875 6.71875 0.316406 6.09375 0.109375 C 5.476562 -0.0859375 4.882812 -0.359375 4.3125 -0.703125 C 3.875 -0.984375 3.53125 -1.125 3.28125 -1.125 C 3.101562 -1.125 2.960938 -1.015625 2.859375 -0.796875 C 2.753906 -0.585938 2.671875 -0.25 2.609375 0.21875 L 1.921875 0.21875 C 1.992188 -0.894531 2.03125 -3.332031 2.03125 -7.09375 L 2.734375 -7.09375 C 2.878906 -5.039062 3.382812 -3.375 4.25 -2.09375 C 5.125 -0.820312 6.46875 -0.1875 8.28125 -0.1875 C 9.375 -0.1875 10.304688 -0.523438 11.078125 -1.203125 C 11.847656 -1.878906 12.234375 -2.890625 12.234375 -4.234375 C 12.234375 -5.367188 11.851562 -6.332031 11.09375 -7.125 C 10.332031 -7.914062 9.128906 -8.804688 7.484375 -9.796875 C 6.285156 -10.523438 5.316406 -11.171875 4.578125 -11.734375 C 3.835938 -12.304688 3.234375 -12.992188 2.765625 -13.796875 C 2.296875 -14.597656 2.0625 -15.535156 2.0625 -16.609375 C 2.0625 -18.316406 2.609375 -19.617188 3.703125 -20.515625 C 4.804688 -21.421875 6.164062 -21.875 7.78125 -21.875 Z M 7.78125 -21.875 "/></g></g></g><g fill="#ffffff" fill-opacity="1"><g transform="translate(433.002524, 92.650841)"><g><path d="M 18.015625 -21.53125 C 17.867188 -20.09375 17.796875 -18.796875 17.796875 -17.640625 C 17.796875 -16.628906 17.828125 -15.800781 17.890625 -15.15625 L 17.1875 -15.15625 C 17.019531 -16.71875 16.816406 -17.878906 16.578125 -18.640625 C 16.335938 -19.398438 15.910156 -19.957031 15.296875 -20.3125 C 14.691406 -20.664062 13.757812 -20.84375 12.5 -20.84375 L 10.859375 -20.84375 L 10.859375 -3.53125 C 10.859375 -2.675781 10.9375 -2.054688 11.09375 -1.671875 C 11.257812 -1.285156 11.546875 -1.019531 11.953125 -0.875 C 12.359375 -0.738281 13.019531 -0.648438 13.9375 -0.609375 L 13.9375 0 C 12.875 -0.0625 11.382812 -0.09375 9.46875 -0.09375 C 7.4375 -0.09375 5.929688 -0.0625 4.953125 0 L 4.953125 -0.609375 C 5.867188 -0.648438 6.53125 -0.738281 6.9375 -0.875 C 7.34375 -1.019531 7.625 -1.285156 7.78125 -1.671875 C 7.945312 -2.054688 8.03125 -2.675781 8.03125 -3.53125 L 8.03125 -20.84375 L 6.390625 -20.84375 C 5.128906 -20.84375 4.191406 -20.664062 3.578125 -20.3125 C 2.972656 -19.957031 2.550781 -19.398438 2.3125 -18.640625 C 2.070312 -17.878906 1.867188 -16.71875 1.703125 -15.15625 L 1 -15.15625 C 1.0625 -15.800781 1.09375 -16.628906 1.09375 -17.640625 C 1.09375 -18.796875 1.019531 -20.09375 0.875 -21.53125 C 2.5625 -21.476562 5.425781 -21.453125 9.46875 -21.453125 C 13.476562 -21.453125 16.328125 -21.476562 18.015625 -21.53125 Z M 18.015625 -21.53125 "/></g></g></g><g fill="#ffffff" fill-opacity="1"><g transform="translate(451.881647, 92.650841)"><g><path d="M 19.921875 -20.9375 C 19.210938 -20.894531 18.6875 -20.785156 18.34375 -20.609375 C 18 -20.441406 17.765625 -20.160156 17.640625 -19.765625 C 17.523438 -19.367188 17.46875 -18.785156 17.46875 -18.015625 L 17.46875 -8.859375 C 17.46875 -7.390625 17.367188 -6.132812 17.171875 -5.09375 C 16.984375 -4.050781 16.664062 -3.15625 16.21875 -2.40625 C 15.707031 -1.53125 14.957031 -0.835938 13.96875 -0.328125 C 12.988281 0.171875 11.878906 0.421875 10.640625 0.421875 C 8.410156 0.421875 6.707031 -0.125 5.53125 -1.21875 C 4.644531 -2.050781 4.046875 -2.992188 3.734375 -4.046875 C 3.429688 -5.097656 3.28125 -6.671875 3.28125 -8.765625 L 3.28125 -18.3125 C 3.28125 -19.082031 3.21875 -19.640625 3.09375 -19.984375 C 2.976562 -20.328125 2.753906 -20.5625 2.421875 -20.6875 C 2.085938 -20.8125 1.554688 -20.894531 0.828125 -20.9375 L 0.828125 -21.53125 C 1.671875 -21.476562 2.96875 -21.453125 4.71875 -21.453125 C 6.351562 -21.453125 7.640625 -21.476562 8.578125 -21.53125 L 8.578125 -20.9375 C 7.847656 -20.894531 7.316406 -20.8125 6.984375 -20.6875 C 6.648438 -20.5625 6.421875 -20.328125 6.296875 -19.984375 C 6.171875 -19.640625 6.109375 -19.082031 6.109375 -18.3125 L 6.109375 -8.25 C 6.109375 -6.625 6.21875 -5.269531 6.4375 -4.1875 C 6.664062 -3.113281 7.128906 -2.253906 7.828125 -1.609375 C 8.535156 -0.960938 9.566406 -0.640625 10.921875 -0.640625 C 13.066406 -0.640625 14.578125 -1.328125 15.453125 -2.703125 C 16.328125 -4.085938 16.765625 -6.023438 16.765625 -8.515625 L 16.765625 -18.015625 C 16.765625 -19.109375 16.566406 -19.859375 16.171875 -20.265625 C 15.773438 -20.671875 15.050781 -20.894531 14 -20.9375 L 14 -21.53125 C 14.726562 -21.476562 15.757812 -21.453125 17.09375 -21.453125 C 18.3125 -21.453125 19.253906 -21.476562 19.921875 -21.53125 Z M 19.921875 -20.9375 "/></g></g></g><g fill="#ffffff" fill-opacity="1"><g transform="translate(472.615253, 92.650841)"><g><path d="M 9.578125 -21.53125 C 13.171875 -21.53125 15.859375 -20.632812 17.640625 -18.84375 C 19.429688 -17.050781 20.328125 -14.441406 20.328125 -11.015625 C 20.328125 -8.804688 19.890625 -6.867188 19.015625 -5.203125 C 18.140625 -3.535156 16.875 -2.25 15.21875 -1.34375 C 13.570312 -0.445312 11.601562 0 9.3125 0 L 7.546875 -0.03125 C 6.410156 -0.0703125 5.578125 -0.09375 5.046875 -0.09375 C 3.390625 -0.09375 2.132812 -0.0625 1.28125 0 L 1.28125 -0.609375 C 2.007812 -0.648438 2.539062 -0.726562 2.875 -0.84375 C 3.207031 -0.96875 3.429688 -1.203125 3.546875 -1.546875 C 3.671875 -1.890625 3.734375 -2.445312 3.734375 -3.21875 L 3.734375 -18.3125 C 3.734375 -19.082031 3.671875 -19.640625 3.546875 -19.984375 C 3.429688 -20.328125 3.207031 -20.5625 2.875 -20.6875 C 2.539062 -20.8125 2.007812 -20.894531 1.28125 -20.9375 L 1.28125 -21.53125 C 1.988281 -21.476562 2.972656 -21.453125 4.234375 -21.453125 L 6.8125 -21.484375 C 8.195312 -21.515625 9.117188 -21.53125 9.578125 -21.53125 Z M 8.828125 -20.984375 C 8.191406 -20.984375 7.71875 -20.910156 7.40625 -20.765625 C 7.09375 -20.628906 6.875 -20.378906 6.75 -20.015625 C 6.632812 -19.648438 6.578125 -19.101562 6.578125 -18.375 L 6.578125 -3.15625 C 6.578125 -2.425781 6.632812 -1.878906 6.75 -1.515625 C 6.875 -1.148438 7.09375 -0.894531 7.40625 -0.75 C 7.71875 -0.613281 8.203125 -0.546875 8.859375 -0.546875 C 11.003906 -0.546875 12.691406 -0.9375 13.921875 -1.71875 C 15.160156 -2.5 16.03125 -3.640625 16.53125 -5.140625 C 17.03125 -6.640625 17.28125 -8.554688 17.28125 -10.890625 C 17.28125 -13.222656 17.003906 -15.125 16.453125 -16.59375 C 15.910156 -18.0625 15.023438 -19.160156 13.796875 -19.890625 C 12.566406 -20.617188 10.910156 -20.984375 8.828125 -20.984375 Z M 8.828125 -20.984375 "/></g></g></g><g fill="#ffffff" fill-opacity="1"><g transform="translate(494.595303, 92.650841)"><g><path d="M 9.03125 -20.9375 C 8.300781 -20.894531 7.769531 -20.8125 7.4375 -20.6875 C 7.101562 -20.5625 6.875 -20.328125 6.75 -19.984375 C 6.632812 -19.640625 6.578125 -19.082031 6.578125 -18.3125 L 6.578125 -3.21875 C 6.578125 -2.445312 6.632812 -1.890625 6.75 -1.546875 C 6.875 -1.203125 7.101562 -0.96875 7.4375 -0.84375 C 7.769531 -0.726562 8.300781 -0.648438 9.03125 -0.609375 L 9.03125 0 C 8.101562 -0.0625 6.816406 -0.09375 5.171875 -0.09375 C 3.429688 -0.09375 2.132812 -0.0625 1.28125 0 L 1.28125 -0.609375 C 2.007812 -0.648438 2.539062 -0.726562 2.875 -0.84375 C 3.207031 -0.96875 3.429688 -1.203125 3.546875 -1.546875 C 3.671875 -1.890625 3.734375 -2.445312 3.734375 -3.21875 L 3.734375 -18.3125 C 3.734375 -19.082031 3.671875 -19.640625 3.546875 -19.984375 C 3.429688 -20.328125 3.207031 -20.5625 2.875 -20.6875 C 2.539062 -20.8125 2.007812 -20.894531 1.28125 -20.9375 L 1.28125 -21.53125 C 2.132812 -21.476562 3.429688 -21.453125 5.171875 -21.453125 C 6.796875 -21.453125 8.082031 -21.476562 9.03125 -21.53125 Z M 9.03125 -20.9375 "/></g></g></g><g fill="#ffffff" fill-opacity="1"><g transform="translate(504.901304, 92.650841)"><g><path d="M 11.28125 -21.96875 C 13.207031 -21.96875 14.894531 -21.53125 16.34375 -20.65625 C 17.800781 -19.78125 18.929688 -18.515625 19.734375 -16.859375 C 20.535156 -15.210938 20.9375 -13.242188 20.9375 -10.953125 C 20.9375 -8.722656 20.523438 -6.742188 19.703125 -5.015625 C 18.878906 -3.296875 17.734375 -1.957031 16.265625 -1 C 14.796875 -0.0507812 13.125 0.421875 11.25 0.421875 C 9.320312 0.421875 7.632812 -0.0078125 6.1875 -0.875 C 4.738281 -1.75 3.613281 -3.015625 2.8125 -4.671875 C 2.007812 -6.328125 1.609375 -8.300781 1.609375 -10.59375 C 1.609375 -12.820312 2.019531 -14.796875 2.84375 -16.515625 C 3.664062 -18.242188 4.8125 -19.582031 6.28125 -20.53125 C 7.75 -21.488281 9.414062 -21.96875 11.28125 -21.96875 Z M 11.171875 -21.421875 C 9.867188 -21.421875 8.722656 -20.96875 7.734375 -20.0625 C 6.753906 -19.15625 5.992188 -17.890625 5.453125 -16.265625 C 4.921875 -14.648438 4.65625 -12.796875 4.65625 -10.703125 C 4.65625 -8.597656 4.953125 -6.742188 5.546875 -5.140625 C 6.148438 -3.535156 6.957031 -2.296875 7.96875 -1.421875 C 8.976562 -0.554688 10.113281 -0.125 11.375 -0.125 C 12.675781 -0.125 13.816406 -0.570312 14.796875 -1.46875 C 15.785156 -2.375 16.546875 -3.640625 17.078125 -5.265625 C 17.617188 -6.890625 17.890625 -8.742188 17.890625 -10.828125 C 17.890625 -12.941406 17.585938 -14.796875 16.984375 -16.390625 C 16.390625 -17.992188 15.582031 -19.234375 14.5625 -20.109375 C 13.550781 -20.984375 12.421875 -21.421875 11.171875 -21.421875 Z M 11.171875 -21.421875 "/></g></g></g><g fill="#ffffff" fill-opacity="1"><g transform="translate(527.42857, 92.650841)"><g><path d="M 7.78125 -21.875 C 8.675781 -21.875 9.378906 -21.773438 9.890625 -21.578125 C 10.410156 -21.390625 10.945312 -21.113281 11.5 -20.75 C 11.945312 -20.46875 12.289062 -20.328125 12.53125 -20.328125 C 12.71875 -20.328125 12.859375 -20.429688 12.953125 -20.640625 C 13.054688 -20.847656 13.140625 -21.1875 13.203125 -21.65625 L 13.90625 -21.65625 C 13.800781 -20.476562 13.75 -18.410156 13.75 -15.453125 L 13.046875 -15.453125 C 12.929688 -17.097656 12.460938 -18.484375 11.640625 -19.609375 C 10.816406 -20.734375 9.625 -21.296875 8.0625 -21.296875 C 6.96875 -21.296875 6.070312 -20.960938 5.375 -20.296875 C 4.6875 -19.640625 4.34375 -18.796875 4.34375 -17.765625 C 4.34375 -16.992188 4.519531 -16.320312 4.875 -15.75 C 5.238281 -15.1875 5.691406 -14.703125 6.234375 -14.296875 C 6.785156 -13.890625 7.566406 -13.375 8.578125 -12.75 L 9.46875 -12.203125 C 10.738281 -11.410156 11.742188 -10.710938 12.484375 -10.109375 C 13.222656 -9.515625 13.816406 -8.832031 14.265625 -8.0625 C 14.710938 -7.289062 14.9375 -6.390625 14.9375 -5.359375 C 14.9375 -3.503906 14.328125 -2.078125 13.109375 -1.078125 C 11.890625 -0.078125 10.347656 0.421875 8.484375 0.421875 C 7.515625 0.421875 6.71875 0.316406 6.09375 0.109375 C 5.476562 -0.0859375 4.882812 -0.359375 4.3125 -0.703125 C 3.875 -0.984375 3.53125 -1.125 3.28125 -1.125 C 3.101562 -1.125 2.960938 -1.015625 2.859375 -0.796875 C 2.753906 -0.585938 2.671875 -0.25 2.609375 0.21875 L 1.921875 0.21875 C 1.992188 -0.894531 2.03125 -3.332031 2.03125 -7.09375 L 2.734375 -7.09375 C 2.878906 -5.039062 3.382812 -3.375 4.25 -2.09375 C 5.125 -0.820312 6.46875 -0.1875 8.28125 -0.1875 C 9.375 -0.1875 10.304688 -0.523438 11.078125 -1.203125 C 11.847656 -1.878906 12.234375 -2.890625 12.234375 -4.234375 C 12.234375 -5.367188 11.851562 -6.332031 11.09375 -7.125 C 10.332031 -7.914062 9.128906 -8.804688 7.484375 -9.796875 C 6.285156 -10.523438 5.316406 -11.171875 4.578125 -11.734375 C 3.835938 -12.304688 3.234375 -12.992188 2.765625 -13.796875 C 2.296875 -14.597656 2.0625 -15.535156 2.0625 -16.609375 C 2.0625 -18.316406 2.609375 -19.617188 3.703125 -20.515625 C 4.804688 -21.421875 6.164062 -21.875 7.78125 -21.875 Z M 7.78125 -21.875 "/></g></g></g><g fill="#ffffff" fill-opacity="1"><g transform="translate(264.587574, 121.711821)"><g><path d="M 4.671875 -8.171875 C 5.242188 -8.171875 5.800781 -8.0625 6.34375 -7.84375 C 6.894531 -7.625 7.367188 -7.316406 7.765625 -6.921875 L 6.96875 -5.921875 C 6.664062 -6.234375 6.3125 -6.484375 5.90625 -6.671875 C 5.507812 -6.859375 5.109375 -6.953125 4.703125 -6.953125 C 3.878906 -6.953125 3.1875 -6.675781 2.625 -6.125 C 2.070312 -5.570312 1.796875 -4.894531 1.796875 -4.09375 C 1.796875 -3.289062 2.070312 -2.609375 2.625 -2.046875 C 3.1875 -1.492188 3.878906 -1.21875 4.703125 -1.21875 C 5.546875 -1.21875 6.300781 -1.539062 6.96875 -2.1875 L 7.78125 -1.28125 C 7.363281 -0.863281 6.875 -0.535156 6.3125 -0.296875 C 5.75 -0.0546875 5.1875 0.0625 4.625 0.0625 C 3.4375 0.0625 2.429688 -0.332031 1.609375 -1.125 C 0.796875 -1.925781 0.390625 -2.910156 0.390625 -4.078125 C 0.390625 -5.234375 0.800781 -6.203125 1.625 -6.984375 C 2.457031 -7.773438 3.472656 -8.171875 4.671875 -8.171875 Z M 4.671875 -8.171875 "/></g></g></g><g fill="#ffffff" fill-opacity="1"><g transform="translate(279.671998, 121.711821)"><g><path d="M 6.234375 0 L 4.75 -2.46875 C 4.664062 -2.457031 4.539062 -2.453125 4.375 -2.453125 L 2.4375 -2.453125 L 2.4375 0 L 1.0625 0 L 1.0625 -8.140625 L 4.375 -8.140625 C 5.40625 -8.140625 6.207031 -7.894531 6.78125 -7.40625 C 7.363281 -6.925781 7.65625 -6.242188 7.65625 -5.359375 C 7.65625 -4.703125 7.507812 -4.148438 7.21875 -3.703125 C 6.925781 -3.253906 6.507812 -2.925781 5.96875 -2.71875 L 7.78125 0 Z M 2.4375 -3.6875 L 4.375 -3.6875 C 5.6875 -3.6875 6.34375 -4.234375 6.34375 -5.328125 C 6.34375 -6.378906 5.6875 -6.90625 4.375 -6.90625 L 2.4375 -6.90625 Z M 2.4375 -3.6875 "/></g></g></g><g fill="#ffffff" fill-opacity="1"><g transform="translate(295.058805, 121.711821)"><g><path d="M 6.875 -6.90625 L 2.4375 -6.90625 L 2.4375 -4.703125 L 6.421875 -4.703125 L 6.421875 -3.46875 L 2.4375 -3.46875 L 2.4375 -1.234375 L 7.015625 -1.234375 L 7.015625 0 L 1.0625 0 L 1.0625 -8.140625 L 6.875 -8.140625 Z M 6.875 -6.90625 "/></g></g></g><g fill="#ffffff" fill-opacity="1"><g transform="translate(309.666386, 121.711821)"><g><path d="M 6.328125 -1.84375 L 2.21875 -1.84375 L 1.4375 0 L 0.015625 0 L 3.609375 -8.140625 L 5.015625 -8.140625 L 8.5625 0 L 7.109375 0 Z M 5.796875 -3.0625 L 4.265625 -6.671875 L 2.734375 -3.0625 Z M 5.796875 -3.0625 "/></g></g></g><g fill="#ffffff" fill-opacity="1"><g transform="translate(325.227654, 121.711821)"><g><path d="M 6.625 -6.90625 L 4.046875 -6.90625 L 4.046875 0 L 2.671875 0 L 2.671875 -6.90625 L 0.109375 -6.90625 L 0.109375 -8.140625 L 6.625 -8.140625 Z M 6.625 -6.90625 "/></g></g></g><g fill="#ffffff" fill-opacity="1"><g transform="translate(338.939701, 121.711821)"><g><path d="M 2.4375 0 L 1.0625 0 L 1.0625 -8.140625 L 2.4375 -8.140625 Z M 2.4375 0 "/></g></g></g><g fill="#ffffff" fill-opacity="1"><g transform="translate(349.430159, 121.711821)"><g><path d="M 4.703125 0 L 3.28125 0 L 0.03125 -8.140625 L 1.515625 -8.140625 L 4.015625 -1.515625 L 6.5625 -8.140625 L 7.984375 -8.140625 Z M 4.703125 0 "/></g></g></g><g fill="#ffffff" fill-opacity="1"><g transform="translate(364.43317, 121.711821)"><g><path d="M 6.875 -6.90625 L 2.4375 -6.90625 L 2.4375 -4.703125 L 6.421875 -4.703125 L 6.421875 -3.46875 L 2.4375 -3.46875 L 2.4375 -1.234375 L 7.015625 -1.234375 L 7.015625 0 L 1.0625 0 L 1.0625 -8.140625 L 6.875 -8.140625 Z M 6.875 -6.90625 "/></g></g></g><g fill="#ffffff" fill-opacity="1"><g transform="translate(379.040749, 121.711821)"><g/></g></g><g fill="#ffffff" fill-opacity="1"><g transform="translate(389.019479, 121.711821)"><g><path d="M 3.75 -8.203125 C 4.800781 -8.203125 5.75 -7.921875 6.59375 -7.359375 L 6.015625 -6.15625 C 5.191406 -6.65625 4.398438 -6.90625 3.640625 -6.90625 C 3.222656 -6.90625 2.894531 -6.832031 2.65625 -6.6875 C 2.425781 -6.539062 2.3125 -6.332031 2.3125 -6.0625 C 2.3125 -5.789062 2.421875 -5.554688 2.640625 -5.359375 C 2.859375 -5.171875 3.128906 -5.03125 3.453125 -4.9375 C 3.773438 -4.851562 4.125 -4.742188 4.5 -4.609375 C 4.882812 -4.472656 5.238281 -4.328125 5.5625 -4.171875 C 5.894531 -4.023438 6.164062 -3.789062 6.375 -3.46875 C 6.59375 -3.144531 6.703125 -2.753906 6.703125 -2.296875 C 6.703125 -1.585938 6.414062 -1.019531 5.84375 -0.59375 C 5.269531 -0.164062 4.53125 0.046875 3.625 0.046875 C 3.007812 0.046875 2.410156 -0.0664062 1.828125 -0.296875 C 1.242188 -0.535156 0.734375 -0.851562 0.296875 -1.25 L 0.890625 -2.421875 C 1.304688 -2.046875 1.757812 -1.753906 2.25 -1.546875 C 2.738281 -1.347656 3.207031 -1.25 3.65625 -1.25 C 4.132812 -1.25 4.503906 -1.332031 4.765625 -1.5 C 5.035156 -1.675781 5.171875 -1.921875 5.171875 -2.234375 C 5.171875 -2.515625 5.0625 -2.75 4.84375 -2.9375 C 4.625 -3.125 4.351562 -3.257812 4.03125 -3.34375 C 3.707031 -3.4375 3.351562 -3.546875 2.96875 -3.671875 C 2.59375 -3.804688 2.242188 -3.941406 1.921875 -4.078125 C 1.597656 -4.222656 1.328125 -4.453125 1.109375 -4.765625 C 0.890625 -5.085938 0.78125 -5.472656 0.78125 -5.921875 C 0.78125 -6.617188 1.050781 -7.171875 1.59375 -7.578125 C 2.132812 -7.992188 2.851562 -8.203125 3.75 -8.203125 Z M 3.75 -8.203125 "/></g></g></g><g fill="#ffffff" fill-opacity="1"><g transform="translate(403.231627, 121.711821)"><g><path d="M 1.640625 -6.984375 C 2.472656 -7.773438 3.492188 -8.171875 4.703125 -8.171875 C 5.921875 -8.171875 6.941406 -7.773438 7.765625 -6.984375 C 8.597656 -6.203125 9.015625 -5.226562 9.015625 -4.0625 C 9.015625 -2.90625 8.597656 -1.925781 7.765625 -1.125 C 6.941406 -0.332031 5.921875 0.0625 4.703125 0.0625 C 3.492188 0.0625 2.472656 -0.332031 1.640625 -1.125 C 0.804688 -1.925781 0.390625 -2.90625 0.390625 -4.0625 C 0.390625 -5.226562 0.804688 -6.203125 1.640625 -6.984375 Z M 4.71875 -6.9375 C 3.914062 -6.9375 3.226562 -6.660156 2.65625 -6.109375 C 2.082031 -5.554688 1.796875 -4.875 1.796875 -4.0625 C 1.796875 -3.257812 2.082031 -2.578125 2.65625 -2.015625 C 3.226562 -1.453125 3.914062 -1.171875 4.71875 -1.171875 C 5.519531 -1.171875 6.203125 -1.453125 6.765625 -2.015625 C 7.328125 -2.578125 7.609375 -3.257812 7.609375 -4.0625 C 7.609375 -4.875 7.328125 -5.554688 6.765625 -6.109375 C 6.203125 -6.660156 5.519531 -6.9375 4.71875 -6.9375 Z M 4.71875 -6.9375 "/></g></g></g><g fill="#ffffff" fill-opacity="1"><g transform="translate(419.630264, 121.711821)"><g><path d="M 2.4375 -1.25 L 5.96875 -1.25 L 5.96875 0 L 1.0625 0 L 1.0625 -8.140625 L 2.4375 -8.140625 Z M 2.4375 -1.25 "/></g></g></g><g fill="#ffffff" fill-opacity="1"><g transform="translate(432.818955, 121.711821)"><g><path d="M 7.984375 -8.140625 L 7.984375 -3.375 C 7.984375 -2.3125 7.671875 -1.472656 7.046875 -0.859375 C 6.421875 -0.242188 5.554688 0.0625 4.453125 0.0625 C 3.347656 0.0625 2.476562 -0.242188 1.84375 -0.859375 C 1.21875 -1.472656 0.90625 -2.3125 0.90625 -3.375 L 0.90625 -8.140625 L 2.28125 -8.140625 L 2.28125 -3.375 C 2.28125 -2.6875 2.472656 -2.144531 2.859375 -1.75 C 3.253906 -1.363281 3.789062 -1.171875 4.46875 -1.171875 C 5.132812 -1.171875 5.65625 -1.363281 6.03125 -1.75 C 6.414062 -2.144531 6.609375 -2.6875 6.609375 -3.375 L 6.609375 -8.140625 Z M 7.984375 -8.140625 "/></g></g></g><g fill="#ffffff" fill-opacity="1"><g transform="translate(448.682601, 121.711821)"><g><path d="M 6.625 -6.90625 L 4.046875 -6.90625 L 4.046875 0 L 2.671875 0 L 2.671875 -6.90625 L 0.109375 -6.90625 L 0.109375 -8.140625 L 6.625 -8.140625 Z M 6.625 -6.90625 "/></g></g></g><g fill="#ffffff" fill-opacity="1"><g transform="translate(462.394644, 121.711821)"><g><path d="M 2.4375 0 L 1.0625 0 L 1.0625 -8.140625 L 2.4375 -8.140625 Z M 2.4375 0 "/></g></g></g><g fill="#ffffff" fill-opacity="1"><g transform="translate(472.885103, 121.711821)"><g><path d="M 1.640625 -6.984375 C 2.472656 -7.773438 3.492188 -8.171875 4.703125 -8.171875 C 5.921875 -8.171875 6.941406 -7.773438 7.765625 -6.984375 C 8.597656 -6.203125 9.015625 -5.226562 9.015625 -4.0625 C 9.015625 -2.90625 8.597656 -1.925781 7.765625 -1.125 C 6.941406 -0.332031 5.921875 0.0625 4.703125 0.0625 C 3.492188 0.0625 2.472656 -0.332031 1.640625 -1.125 C 0.804688 -1.925781 0.390625 -2.90625 0.390625 -4.0625 C 0.390625 -5.226562 0.804688 -6.203125 1.640625 -6.984375 Z M 4.71875 -6.9375 C 3.914062 -6.9375 3.226562 -6.660156 2.65625 -6.109375 C 2.082031 -5.554688 1.796875 -4.875 1.796875 -4.0625 C 1.796875 -3.257812 2.082031 -2.578125 2.65625 -2.015625 C 3.226562 -1.453125 3.914062 -1.171875 4.71875 -1.171875 C 5.519531 -1.171875 6.203125 -1.453125 6.765625 -2.015625 C 7.328125 -2.578125 7.609375 -3.257812 7.609375 -4.0625 C 7.609375 -4.875 7.328125 -5.554688 6.765625 -6.109375 C 6.203125 -6.660156 5.519531 -6.9375 4.71875 -6.9375 Z M 4.71875 -6.9375 "/></g></g></g><g fill="#ffffff" fill-opacity="1"><g transform="translate(489.283739, 121.711821)"><g><path d="M 8.125 0 L 6.78125 0 L 2.4375 -5.828125 L 2.4375 0 L 1.0625 0 L 1.0625 -8.140625 L 2.421875 -8.140625 L 6.78125 -2.296875 L 6.78125 -8.140625 L 8.125 -8.140625 Z M 8.125 0 "/></g></g></g><g fill="#ffffff" fill-opacity="1"><g transform="translate(505.473044, 121.711821)"><g><path d="M 3.75 -8.203125 C 4.800781 -8.203125 5.75 -7.921875 6.59375 -7.359375 L 6.015625 -6.15625 C 5.191406 -6.65625 4.398438 -6.90625 3.640625 -6.90625 C 3.222656 -6.90625 2.894531 -6.832031 2.65625 -6.6875 C 2.425781 -6.539062 2.3125 -6.332031 2.3125 -6.0625 C 2.3125 -5.789062 2.421875 -5.554688 2.640625 -5.359375 C 2.859375 -5.171875 3.128906 -5.03125 3.453125 -4.9375 C 3.773438 -4.851562 4.125 -4.742188 4.5 -4.609375 C 4.882812 -4.472656 5.238281 -4.328125 5.5625 -4.171875 C 5.894531 -4.023438 6.164062 -3.789062 6.375 -3.46875 C 6.59375 -3.144531 6.703125 -2.753906 6.703125 -2.296875 C 6.703125 -1.585938 6.414062 -1.019531 5.84375 -0.59375 C 5.269531 -0.164062 4.53125 0.046875 3.625 0.046875 C 3.007812 0.046875 2.410156 -0.0664062 1.828125 -0.296875 C 1.242188 -0.535156 0.734375 -0.851562 0.296875 -1.25 L 0.890625 -2.421875 C 1.304688 -2.046875 1.757812 -1.753906 2.25 -1.546875 C 2.738281 -1.347656 3.207031 -1.25 3.65625 -1.25 C 4.132812 -1.25 4.503906 -1.332031 4.765625 -1.5 C 5.035156 -1.675781 5.171875 -1.921875 5.171875 -2.234375 C 5.171875 -2.515625 5.0625 -2.75 4.84375 -2.9375 C 4.625 -3.125 4.351562 -3.257812 4.03125 -3.34375 C 3.707031 -3.4375 3.351562 -3.546875 2.96875 -3.671875 C 2.59375 -3.804688 2.242188 -3.941406 1.921875 -4.078125 C 1.597656 -4.222656 1.328125 -4.453125 1.109375 -4.765625 C 0.890625 -5.085938 0.78125 -5.472656 0.78125 -5.921875 C 0.78125 -6.617188 1.050781 -7.171875 1.59375 -7.578125 C 2.132812 -7.992188 2.851562 -8.203125 3.75 -8.203125 Z M 3.75 -8.203125 "/></g></g></g><path stroke-linecap="butt" transform="matrix(0, 0.749058, -0.749058, 0, 217.882155, 34.464527)" fill="none" stroke-linejoin="miter" d="M 0.000422676 2.001638 L 171.622289 2.001638 " stroke="#ffffff" stroke-width="4" stroke-opacity="1" stroke-miterlimit="4"/></svg>