<svg xmlns="http://www.w3.org/2000/svg" xmlns:xlink="http://www.w3.org/1999/xlink" width="242" zoomAndPan="magnify" viewBox="0 0 181.5 60.75" height="81" preserveAspectRatio="xMidYMid meet" version="1.0"><defs><g/></defs><path stroke-linecap="butt" transform="matrix(0, -0.367848, 0.367848, 0, 80.086836, 50.057449)" fill="none" stroke-linejoin="miter" d="M -0.00311101 0.496661 L 95.845851 0.496661 " stroke="#fbfaf9" stroke-width="1" stroke-opacity="1" stroke-miterlimit="4"/><g fill="#fbfaf9" fill-opacity="1"><g transform="translate(26.843641, 43.663866)"><g><path d="M 8.734375 -9.3125 L 8.734375 -3.65625 C 8.734375 -2.78125 8.820312 -2.140625 9 -1.734375 C 9.1875 -1.335938 9.515625 -1.070312 9.984375 -0.9375 C 10.453125 -0.8125 11.195312 -0.738281 12.21875 -0.71875 L 12.21875 0 C 9.539062 -0.0625 7.550781 -0.09375 6.25 -0.09375 C 5.164062 -0.09375 3.800781 -0.0703125 2.15625 -0.03125 L 1.109375 0 L 1.109375 -0.65625 C 1.828125 -0.695312 2.351562 -0.78125 2.6875 -0.90625 C 3.019531 -1.039062 3.242188 -1.289062 3.359375 -1.65625 C 3.484375 -2.03125 3.546875 -2.628906 3.546875 -3.453125 L 3.546875 -19.609375 C 3.546875 -20.429688 3.484375 -21.023438 3.359375 -21.390625 C 3.242188 -21.765625 3.019531 -22.015625 2.6875 -22.140625 C 2.351562 -22.273438 1.828125 -22.363281 1.109375 -22.40625 L 1.109375 -23.0625 C 2.210938 -23 3.863281 -22.96875 6.0625 -22.96875 L 9.671875 -23 C 10.109375 -23.019531 10.609375 -23.03125 11.171875 -23.03125 C 14.109375 -23.03125 16.347656 -22.445312 17.890625 -21.28125 C 19.429688 -20.125 20.203125 -18.566406 20.203125 -16.609375 C 20.203125 -15.421875 19.894531 -14.273438 19.28125 -13.171875 C 18.675781 -12.078125 17.648438 -11.160156 16.203125 -10.421875 C 14.765625 -9.679688 12.847656 -9.3125 10.453125 -9.3125 Z M 10.75 -22.40625 C 10.164062 -22.40625 9.738281 -22.328125 9.46875 -22.171875 C 9.195312 -22.023438 9.003906 -21.753906 8.890625 -21.359375 C 8.785156 -20.972656 8.734375 -20.390625 8.734375 -19.609375 L 8.734375 -9.96875 L 10.125 -9.96875 C 11.882812 -9.96875 13.101562 -10.53125 13.78125 -11.65625 C 14.457031 -12.789062 14.796875 -14.320312 14.796875 -16.25 C 14.796875 -18.363281 14.484375 -19.914062 13.859375 -20.90625 C 13.242188 -21.90625 12.207031 -22.40625 10.75 -22.40625 Z M 10.75 -22.40625 "/></g></g></g><g fill="#fbfaf9" fill-opacity="1"><g transform="translate(46.744884, 43.663866)"><g/></g></g><g fill="#fbfaf9" fill-opacity="1"><g transform="translate(53.356835, 43.663866)"><g><path d="M 9.25 -23.484375 C 10.382812 -23.484375 11.285156 -23.375 11.953125 -23.15625 C 12.628906 -22.945312 13.316406 -22.632812 14.015625 -22.21875 C 14.242188 -22.082031 14.453125 -21.972656 14.640625 -21.890625 C 14.828125 -21.804688 14.984375 -21.765625 15.109375 -21.765625 C 15.304688 -21.765625 15.457031 -21.878906 15.5625 -22.109375 C 15.675781 -22.335938 15.765625 -22.703125 15.828125 -23.203125 L 16.578125 -23.203125 C 16.472656 -21.742188 16.421875 -19.265625 16.421875 -15.765625 L 15.671875 -15.765625 C 15.585938 -16.941406 15.320312 -18.0625 14.875 -19.125 C 14.425781 -20.1875 13.796875 -21.046875 12.984375 -21.703125 C 12.171875 -22.367188 11.21875 -22.703125 10.125 -22.703125 C 9.0625 -22.703125 8.195312 -22.40625 7.53125 -21.8125 C 6.875 -21.21875 6.546875 -20.410156 6.546875 -19.390625 C 6.546875 -18.628906 6.707031 -17.960938 7.03125 -17.390625 C 7.363281 -16.828125 7.820312 -16.3125 8.40625 -15.84375 C 8.988281 -15.382812 9.890625 -14.75 11.109375 -13.9375 L 12.15625 -13.234375 C 13.4375 -12.378906 14.445312 -11.632812 15.1875 -11 C 15.925781 -10.375 16.523438 -9.644531 16.984375 -8.8125 C 17.453125 -7.976562 17.6875 -7.003906 17.6875 -5.890625 C 17.6875 -4.503906 17.328125 -3.335938 16.609375 -2.390625 C 15.898438 -1.453125 14.929688 -0.742188 13.703125 -0.265625 C 12.472656 0.210938 11.109375 0.453125 9.609375 0.453125 C 8.390625 0.453125 7.378906 0.34375 6.578125 0.125 C 5.773438 -0.09375 5.035156 -0.382812 4.359375 -0.75 C 3.890625 -1.050781 3.523438 -1.203125 3.265625 -1.203125 C 3.066406 -1.203125 2.910156 -1.085938 2.796875 -0.859375 C 2.691406 -0.628906 2.609375 -0.265625 2.546875 0.234375 L 1.796875 0.234375 C 1.878906 -1.140625 1.921875 -4.070312 1.921875 -8.5625 L 2.671875 -8.5625 C 2.828125 -6.132812 3.367188 -4.164062 4.296875 -2.65625 C 5.234375 -1.144531 6.664062 -0.390625 8.59375 -0.390625 C 9.769531 -0.390625 10.738281 -0.703125 11.5 -1.328125 C 12.257812 -1.960938 12.640625 -2.867188 12.640625 -4.046875 C 12.640625 -5.253906 12.25 -6.289062 11.46875 -7.15625 C 10.6875 -8.03125 9.445312 -9.007812 7.75 -10.09375 C 6.445312 -10.945312 5.40625 -11.6875 4.625 -12.3125 C 3.84375 -12.945312 3.203125 -13.691406 2.703125 -14.546875 C 2.203125 -15.398438 1.953125 -16.394531 1.953125 -17.53125 C 1.953125 -18.832031 2.28125 -19.929688 2.9375 -20.828125 C 3.601562 -21.734375 4.488281 -22.398438 5.59375 -22.828125 C 6.707031 -23.265625 7.925781 -23.484375 9.25 -23.484375 Z M 9.25 -23.484375 "/></g></g></g><g fill="#fbfaf9" fill-opacity="1"><g transform="translate(84.88264, 28.305214)"><g><path d="M 2 -2.640625 L 2 -0.984375 C 2 -0.742188 2.019531 -0.570312 2.0625 -0.46875 C 2.113281 -0.363281 2.203125 -0.289062 2.328125 -0.25 C 2.453125 -0.21875 2.648438 -0.195312 2.921875 -0.1875 L 2.921875 0 C 2.609375 -0.0195312 2.15625 -0.03125 1.5625 -0.03125 C 1.039062 -0.03125 0.648438 -0.0195312 0.390625 0 L 0.390625 -0.1875 C 0.609375 -0.195312 0.769531 -0.21875 0.875 -0.25 C 0.976562 -0.289062 1.046875 -0.363281 1.078125 -0.46875 C 1.117188 -0.570312 1.140625 -0.742188 1.140625 -0.984375 L 1.140625 -5.5625 C 1.140625 -5.789062 1.117188 -5.957031 1.078125 -6.0625 C 1.046875 -6.164062 0.976562 -6.234375 0.875 -6.265625 C 0.769531 -6.304688 0.609375 -6.335938 0.390625 -6.359375 L 0.390625 -6.53125 C 0.648438 -6.519531 1.023438 -6.515625 1.515625 -6.515625 L 2.515625 -6.515625 C 2.628906 -6.523438 2.757812 -6.53125 2.90625 -6.53125 C 3.625 -6.53125 4.175781 -6.363281 4.5625 -6.03125 C 4.945312 -5.707031 5.140625 -5.265625 5.140625 -4.703125 C 5.140625 -4.367188 5.0625 -4.046875 4.90625 -3.734375 C 4.757812 -3.421875 4.503906 -3.160156 4.140625 -2.953125 C 3.773438 -2.742188 3.296875 -2.640625 2.703125 -2.640625 Z M 2.671875 -6.359375 C 2.484375 -6.359375 2.34375 -6.332031 2.25 -6.28125 C 2.15625 -6.238281 2.085938 -6.160156 2.046875 -6.046875 C 2.015625 -5.941406 2 -5.78125 2 -5.5625 L 2 -2.828125 L 2.609375 -2.828125 C 3.210938 -2.828125 3.628906 -2.988281 3.859375 -3.3125 C 4.085938 -3.632812 4.203125 -4.066406 4.203125 -4.609375 C 4.203125 -5.203125 4.082031 -5.640625 3.84375 -5.921875 C 3.613281 -6.210938 3.222656 -6.359375 2.671875 -6.359375 Z M 2.671875 -6.359375 "/></g></g></g><g fill="#fbfaf9" fill-opacity="1"><g transform="translate(90.27921, 28.305214)"><g><path d="M 5.234375 -0.78125 C 5.378906 -0.394531 5.59375 -0.195312 5.875 -0.1875 L 5.875 0 C 5.625 -0.0195312 5.296875 -0.03125 4.890625 -0.03125 C 4.359375 -0.03125 3.960938 -0.0195312 3.703125 0 L 3.703125 -0.1875 C 3.929688 -0.195312 4.097656 -0.222656 4.203125 -0.265625 C 4.304688 -0.316406 4.359375 -0.40625 4.359375 -0.53125 C 4.359375 -0.632812 4.320312 -0.773438 4.25 -0.953125 L 3.6875 -2.46875 L 1.453125 -2.46875 L 1.078125 -1.5 C 0.953125 -1.164062 0.890625 -0.910156 0.890625 -0.734375 C 0.890625 -0.546875 0.953125 -0.40625 1.078125 -0.3125 C 1.210938 -0.226562 1.414062 -0.1875 1.6875 -0.1875 L 1.6875 0 C 1.332031 -0.0195312 0.976562 -0.03125 0.625 -0.03125 C 0.351562 -0.03125 0.125 -0.0195312 -0.0625 0 L -0.0625 -0.1875 C 0.238281 -0.257812 0.484375 -0.523438 0.671875 -0.984375 L 2.828125 -6.578125 L 2.984375 -6.578125 Z M 3.609375 -2.65625 L 2.578125 -5.421875 L 1.53125 -2.65625 Z M 3.609375 -2.65625 "/></g></g></g><g fill="#fbfaf9" fill-opacity="1"><g transform="translate(96.090901, 28.305214)"><g><path d="M 3.46875 -6.671875 C 3.832031 -6.671875 4.128906 -6.617188 4.359375 -6.515625 C 4.597656 -6.410156 4.859375 -6.257812 5.140625 -6.0625 C 5.210938 -6 5.269531 -5.96875 5.3125 -5.96875 C 5.4375 -5.96875 5.515625 -6.15625 5.546875 -6.53125 L 5.765625 -6.53125 C 5.734375 -6.132812 5.71875 -5.425781 5.71875 -4.40625 L 5.515625 -4.40625 C 5.460938 -4.738281 5.40625 -5.007812 5.34375 -5.21875 C 5.28125 -5.4375 5.179688 -5.625 5.046875 -5.78125 C 4.867188 -6 4.632812 -6.171875 4.34375 -6.296875 C 4.0625 -6.429688 3.765625 -6.5 3.453125 -6.5 C 3.046875 -6.5 2.6875 -6.363281 2.375 -6.09375 C 2.070312 -5.832031 1.835938 -5.457031 1.671875 -4.96875 C 1.503906 -4.476562 1.421875 -3.910156 1.421875 -3.265625 C 1.421875 -2.148438 1.597656 -1.335938 1.953125 -0.828125 C 2.304688 -0.316406 2.863281 -0.0625 3.625 -0.0625 C 3.988281 -0.0625 4.304688 -0.15625 4.578125 -0.34375 C 4.691406 -0.414062 4.765625 -0.488281 4.796875 -0.5625 C 4.828125 -0.632812 4.84375 -0.726562 4.84375 -0.84375 L 4.84375 -1.734375 C 4.84375 -1.992188 4.816406 -2.179688 4.765625 -2.296875 C 4.722656 -2.410156 4.640625 -2.488281 4.515625 -2.53125 C 4.390625 -2.582031 4.191406 -2.613281 3.921875 -2.625 L 3.921875 -2.8125 C 4.234375 -2.789062 4.664062 -2.78125 5.21875 -2.78125 C 5.632812 -2.78125 5.953125 -2.789062 6.171875 -2.8125 L 6.171875 -2.625 C 6.035156 -2.613281 5.929688 -2.585938 5.859375 -2.546875 C 5.796875 -2.515625 5.753906 -2.441406 5.734375 -2.328125 C 5.710938 -2.222656 5.703125 -2.054688 5.703125 -1.828125 L 5.703125 0 L 5.515625 0 C 5.515625 -0.125 5.492188 -0.242188 5.453125 -0.359375 C 5.410156 -0.472656 5.347656 -0.53125 5.265625 -0.53125 C 5.234375 -0.53125 5.195312 -0.519531 5.15625 -0.5 C 5.125 -0.476562 5.0625 -0.4375 4.96875 -0.375 C 4.75 -0.207031 4.523438 -0.0820312 4.296875 0 C 4.066406 0.0820312 3.8125 0.125 3.53125 0.125 C 2.894531 0.125 2.347656 -0.00390625 1.890625 -0.265625 C 1.441406 -0.523438 1.097656 -0.898438 0.859375 -1.390625 C 0.617188 -1.890625 0.5 -2.476562 0.5 -3.15625 C 0.5 -3.851562 0.625 -4.46875 0.875 -5 C 1.132812 -5.539062 1.488281 -5.953125 1.9375 -6.234375 C 2.382812 -6.523438 2.894531 -6.671875 3.46875 -6.671875 Z M 3.46875 -6.671875 "/></g></g></g><g fill="#fbfaf9" fill-opacity="1"><g transform="translate(102.576006, 28.305214)"><g><path d="M 5.109375 -1.1875 C 5.109375 -0.832031 5.132812 -0.4375 5.1875 0 C 4.757812 -0.0195312 4.050781 -0.03125 3.0625 -0.03125 C 1.882812 -0.03125 0.992188 -0.0195312 0.390625 0 L 0.390625 -0.1875 C 0.609375 -0.195312 0.769531 -0.21875 0.875 -0.25 C 0.976562 -0.289062 1.046875 -0.363281 1.078125 -0.46875 C 1.117188 -0.570312 1.140625 -0.742188 1.140625 -0.984375 L 1.140625 -5.5625 C 1.140625 -5.789062 1.117188 -5.957031 1.078125 -6.0625 C 1.046875 -6.164062 0.976562 -6.234375 0.875 -6.265625 C 0.769531 -6.304688 0.609375 -6.335938 0.390625 -6.359375 L 0.390625 -6.53125 C 0.992188 -6.519531 1.882812 -6.515625 3.0625 -6.515625 C 3.96875 -6.515625 4.613281 -6.519531 5 -6.53125 C 4.957031 -6.125 4.9375 -5.765625 4.9375 -5.453125 C 4.9375 -5.210938 4.941406 -5.019531 4.953125 -4.875 L 4.75 -4.875 C 4.707031 -5.269531 4.648438 -5.566406 4.578125 -5.765625 C 4.515625 -5.960938 4.398438 -6.101562 4.234375 -6.1875 C 4.078125 -6.28125 3.835938 -6.328125 3.515625 -6.328125 L 2.75 -6.328125 C 2.519531 -6.328125 2.351562 -6.304688 2.25 -6.265625 C 2.15625 -6.234375 2.085938 -6.164062 2.046875 -6.0625 C 2.015625 -5.957031 2 -5.789062 2 -5.5625 L 2 -3.375 L 2.609375 -3.375 C 2.816406 -3.375 2.976562 -3.425781 3.09375 -3.53125 C 3.21875 -3.632812 3.296875 -3.753906 3.328125 -3.890625 C 3.367188 -4.023438 3.40625 -4.195312 3.4375 -4.40625 L 3.46875 -4.59375 L 3.671875 -4.59375 C 3.648438 -4.332031 3.640625 -4.046875 3.640625 -3.734375 L 3.640625 -3.28125 C 3.640625 -2.96875 3.660156 -2.53125 3.703125 -1.96875 L 3.484375 -1.96875 C 3.484375 -2.019531 3.46875 -2.171875 3.4375 -2.421875 C 3.40625 -2.679688 3.316406 -2.875 3.171875 -3 C 3.035156 -3.125 2.847656 -3.1875 2.609375 -3.1875 L 2 -3.1875 L 2 -0.984375 C 2 -0.742188 2.015625 -0.570312 2.046875 -0.46875 C 2.085938 -0.363281 2.15625 -0.296875 2.25 -0.265625 C 2.351562 -0.234375 2.519531 -0.21875 2.75 -0.21875 L 3.421875 -0.21875 C 3.796875 -0.21875 4.082031 -0.265625 4.28125 -0.359375 C 4.488281 -0.460938 4.632812 -0.625 4.71875 -0.84375 C 4.8125 -1.070312 4.882812 -1.40625 4.9375 -1.84375 L 5.140625 -1.84375 C 5.117188 -1.675781 5.109375 -1.457031 5.109375 -1.1875 Z M 5.109375 -1.1875 "/></g></g></g><g fill="#fbfaf9" fill-opacity="1"><g transform="translate(108.193972, 28.305214)"><g><path d="M 3.46875 -6.671875 C 3.832031 -6.671875 4.128906 -6.617188 4.359375 -6.515625 C 4.597656 -6.410156 4.859375 -6.257812 5.140625 -6.0625 C 5.210938 -6 5.269531 -5.96875 5.3125 -5.96875 C 5.4375 -5.96875 5.515625 -6.15625 5.546875 -6.53125 L 5.765625 -6.53125 C 5.734375 -6.132812 5.71875 -5.425781 5.71875 -4.40625 L 5.515625 -4.40625 C 5.460938 -4.738281 5.40625 -5.007812 5.34375 -5.21875 C 5.28125 -5.4375 5.179688 -5.625 5.046875 -5.78125 C 4.867188 -6 4.632812 -6.171875 4.34375 -6.296875 C 4.0625 -6.429688 3.765625 -6.5 3.453125 -6.5 C 3.046875 -6.5 2.6875 -6.363281 2.375 -6.09375 C 2.070312 -5.832031 1.835938 -5.457031 1.671875 -4.96875 C 1.503906 -4.476562 1.421875 -3.910156 1.421875 -3.265625 C 1.421875 -2.148438 1.597656 -1.335938 1.953125 -0.828125 C 2.304688 -0.316406 2.863281 -0.0625 3.625 -0.0625 C 3.988281 -0.0625 4.304688 -0.15625 4.578125 -0.34375 C 4.691406 -0.414062 4.765625 -0.488281 4.796875 -0.5625 C 4.828125 -0.632812 4.84375 -0.726562 4.84375 -0.84375 L 4.84375 -1.734375 C 4.84375 -1.992188 4.816406 -2.179688 4.765625 -2.296875 C 4.722656 -2.410156 4.640625 -2.488281 4.515625 -2.53125 C 4.390625 -2.582031 4.191406 -2.613281 3.921875 -2.625 L 3.921875 -2.8125 C 4.234375 -2.789062 4.664062 -2.78125 5.21875 -2.78125 C 5.632812 -2.78125 5.953125 -2.789062 6.171875 -2.8125 L 6.171875 -2.625 C 6.035156 -2.613281 5.929688 -2.585938 5.859375 -2.546875 C 5.796875 -2.515625 5.753906 -2.441406 5.734375 -2.328125 C 5.710938 -2.222656 5.703125 -2.054688 5.703125 -1.828125 L 5.703125 0 L 5.515625 0 C 5.515625 -0.125 5.492188 -0.242188 5.453125 -0.359375 C 5.410156 -0.472656 5.347656 -0.53125 5.265625 -0.53125 C 5.234375 -0.53125 5.195312 -0.519531 5.15625 -0.5 C 5.125 -0.476562 5.0625 -0.4375 4.96875 -0.375 C 4.75 -0.207031 4.523438 -0.0820312 4.296875 0 C 4.066406 0.0820312 3.8125 0.125 3.53125 0.125 C 2.894531 0.125 2.347656 -0.00390625 1.890625 -0.265625 C 1.441406 -0.523438 1.097656 -0.898438 0.859375 -1.390625 C 0.617188 -1.890625 0.5 -2.476562 0.5 -3.15625 C 0.5 -3.851562 0.625 -4.46875 0.875 -5 C 1.132812 -5.539062 1.488281 -5.953125 1.9375 -6.234375 C 2.382812 -6.523438 2.894531 -6.671875 3.46875 -6.671875 Z M 3.46875 -6.671875 "/></g></g></g><g fill="#fbfaf9" fill-opacity="1"><g transform="translate(114.679077, 28.305214)"><g><path d="M 5.109375 -1.1875 C 5.109375 -0.832031 5.132812 -0.4375 5.1875 0 C 4.757812 -0.0195312 4.050781 -0.03125 3.0625 -0.03125 C 1.882812 -0.03125 0.992188 -0.0195312 0.390625 0 L 0.390625 -0.1875 C 0.609375 -0.195312 0.769531 -0.21875 0.875 -0.25 C 0.976562 -0.289062 1.046875 -0.363281 1.078125 -0.46875 C 1.117188 -0.570312 1.140625 -0.742188 1.140625 -0.984375 L 1.140625 -5.5625 C 1.140625 -5.789062 1.117188 -5.957031 1.078125 -6.0625 C 1.046875 -6.164062 0.976562 -6.234375 0.875 -6.265625 C 0.769531 -6.304688 0.609375 -6.335938 0.390625 -6.359375 L 0.390625 -6.53125 C 0.992188 -6.519531 1.882812 -6.515625 3.0625 -6.515625 C 3.96875 -6.515625 4.613281 -6.519531 5 -6.53125 C 4.957031 -6.125 4.9375 -5.765625 4.9375 -5.453125 C 4.9375 -5.210938 4.941406 -5.019531 4.953125 -4.875 L 4.75 -4.875 C 4.707031 -5.269531 4.648438 -5.566406 4.578125 -5.765625 C 4.515625 -5.960938 4.398438 -6.101562 4.234375 -6.1875 C 4.078125 -6.28125 3.835938 -6.328125 3.515625 -6.328125 L 2.75 -6.328125 C 2.519531 -6.328125 2.351562 -6.304688 2.25 -6.265625 C 2.15625 -6.234375 2.085938 -6.164062 2.046875 -6.0625 C 2.015625 -5.957031 2 -5.789062 2 -5.5625 L 2 -3.375 L 2.609375 -3.375 C 2.816406 -3.375 2.976562 -3.425781 3.09375 -3.53125 C 3.21875 -3.632812 3.296875 -3.753906 3.328125 -3.890625 C 3.367188 -4.023438 3.40625 -4.195312 3.4375 -4.40625 L 3.46875 -4.59375 L 3.671875 -4.59375 C 3.648438 -4.332031 3.640625 -4.046875 3.640625 -3.734375 L 3.640625 -3.28125 C 3.640625 -2.96875 3.660156 -2.53125 3.703125 -1.96875 L 3.484375 -1.96875 C 3.484375 -2.019531 3.46875 -2.171875 3.4375 -2.421875 C 3.40625 -2.679688 3.316406 -2.875 3.171875 -3 C 3.035156 -3.125 2.847656 -3.1875 2.609375 -3.1875 L 2 -3.1875 L 2 -0.984375 C 2 -0.742188 2.015625 -0.570312 2.046875 -0.46875 C 2.085938 -0.363281 2.15625 -0.296875 2.25 -0.265625 C 2.351562 -0.234375 2.519531 -0.21875 2.75 -0.21875 L 3.421875 -0.21875 C 3.796875 -0.21875 4.082031 -0.265625 4.28125 -0.359375 C 4.488281 -0.460938 4.632812 -0.625 4.71875 -0.84375 C 4.8125 -1.070312 4.882812 -1.40625 4.9375 -1.84375 L 5.140625 -1.84375 C 5.117188 -1.675781 5.109375 -1.457031 5.109375 -1.1875 Z M 5.109375 -1.1875 "/></g></g></g><g fill="#fbfaf9" fill-opacity="1"><g transform="translate(120.297044, 28.305214)"><g><path d="M 6.1875 -6.359375 C 5.96875 -6.335938 5.804688 -6.300781 5.703125 -6.25 C 5.597656 -6.195312 5.523438 -6.109375 5.484375 -5.984375 C 5.453125 -5.867188 5.4375 -5.695312 5.4375 -5.46875 L 5.4375 0.046875 L 5.234375 0.046875 L 1.34375 -5.953125 L 1.34375 -1.078125 C 1.34375 -0.835938 1.363281 -0.65625 1.40625 -0.53125 C 1.445312 -0.414062 1.523438 -0.332031 1.640625 -0.28125 C 1.753906 -0.226562 1.9375 -0.195312 2.1875 -0.1875 L 2.1875 0 C 1.96875 -0.0195312 1.65625 -0.03125 1.25 -0.03125 C 0.875 -0.03125 0.585938 -0.0195312 0.390625 0 L 0.390625 -0.1875 C 0.609375 -0.195312 0.769531 -0.226562 0.875 -0.28125 C 0.976562 -0.332031 1.046875 -0.414062 1.078125 -0.53125 C 1.117188 -0.65625 1.140625 -0.835938 1.140625 -1.078125 L 1.140625 -5.5625 C 1.140625 -5.789062 1.117188 -5.957031 1.078125 -6.0625 C 1.046875 -6.164062 0.976562 -6.234375 0.875 -6.265625 C 0.769531 -6.304688 0.609375 -6.335938 0.390625 -6.359375 L 0.390625 -6.53125 C 0.585938 -6.519531 0.875 -6.515625 1.25 -6.515625 C 1.519531 -6.515625 1.757812 -6.519531 1.96875 -6.53125 L 5.234375 -1.515625 L 5.234375 -5.46875 C 5.234375 -5.707031 5.210938 -5.882812 5.171875 -6 C 5.128906 -6.113281 5.046875 -6.195312 4.921875 -6.25 C 4.804688 -6.300781 4.628906 -6.335938 4.390625 -6.359375 L 4.390625 -6.53125 C 4.609375 -6.519531 4.921875 -6.515625 5.328125 -6.515625 C 5.691406 -6.515625 5.976562 -6.519531 6.1875 -6.53125 Z M 6.1875 -6.359375 "/></g></g></g><g fill="#fbfaf9" fill-opacity="1"><g transform="translate(126.809826, 28.305214)"><g><path d="M 2.75 -6.359375 C 2.519531 -6.335938 2.351562 -6.304688 2.25 -6.265625 C 2.15625 -6.234375 2.085938 -6.164062 2.046875 -6.0625 C 2.015625 -5.957031 2 -5.789062 2 -5.5625 L 2 -0.984375 C 2 -0.742188 2.015625 -0.570312 2.046875 -0.46875 C 2.085938 -0.363281 2.15625 -0.289062 2.25 -0.25 C 2.351562 -0.21875 2.519531 -0.195312 2.75 -0.1875 L 2.75 0 C 2.457031 -0.0195312 2.0625 -0.03125 1.5625 -0.03125 C 1.039062 -0.03125 0.648438 -0.0195312 0.390625 0 L 0.390625 -0.1875 C 0.609375 -0.195312 0.769531 -0.21875 0.875 -0.25 C 0.976562 -0.289062 1.046875 -0.363281 1.078125 -0.46875 C 1.117188 -0.570312 1.140625 -0.742188 1.140625 -0.984375 L 1.140625 -5.5625 C 1.140625 -5.789062 1.117188 -5.957031 1.078125 -6.0625 C 1.046875 -6.164062 0.976562 -6.234375 0.875 -6.265625 C 0.769531 -6.304688 0.609375 -6.335938 0.390625 -6.359375 L 0.390625 -6.53125 C 0.648438 -6.519531 1.039062 -6.515625 1.5625 -6.515625 C 2.0625 -6.515625 2.457031 -6.519531 2.75 -6.53125 Z M 2.75 -6.359375 "/></g></g></g><g fill="#fbfaf9" fill-opacity="1"><g transform="translate(129.93707, 28.305214)"><g><path d="M 5.109375 -1.1875 C 5.109375 -0.832031 5.132812 -0.4375 5.1875 0 C 4.757812 -0.0195312 4.050781 -0.03125 3.0625 -0.03125 C 1.882812 -0.03125 0.992188 -0.0195312 0.390625 0 L 0.390625 -0.1875 C 0.609375 -0.195312 0.769531 -0.21875 0.875 -0.25 C 0.976562 -0.289062 1.046875 -0.363281 1.078125 -0.46875 C 1.117188 -0.570312 1.140625 -0.742188 1.140625 -0.984375 L 1.140625 -5.5625 C 1.140625 -5.789062 1.117188 -5.957031 1.078125 -6.0625 C 1.046875 -6.164062 0.976562 -6.234375 0.875 -6.265625 C 0.769531 -6.304688 0.609375 -6.335938 0.390625 -6.359375 L 0.390625 -6.53125 C 0.992188 -6.519531 1.882812 -6.515625 3.0625 -6.515625 C 3.96875 -6.515625 4.613281 -6.519531 5 -6.53125 C 4.957031 -6.125 4.9375 -5.765625 4.9375 -5.453125 C 4.9375 -5.210938 4.941406 -5.019531 4.953125 -4.875 L 4.75 -4.875 C 4.707031 -5.269531 4.648438 -5.566406 4.578125 -5.765625 C 4.515625 -5.960938 4.398438 -6.101562 4.234375 -6.1875 C 4.078125 -6.28125 3.835938 -6.328125 3.515625 -6.328125 L 2.75 -6.328125 C 2.519531 -6.328125 2.351562 -6.304688 2.25 -6.265625 C 2.15625 -6.234375 2.085938 -6.164062 2.046875 -6.0625 C 2.015625 -5.957031 2 -5.789062 2 -5.5625 L 2 -3.375 L 2.609375 -3.375 C 2.816406 -3.375 2.976562 -3.425781 3.09375 -3.53125 C 3.21875 -3.632812 3.296875 -3.753906 3.328125 -3.890625 C 3.367188 -4.023438 3.40625 -4.195312 3.4375 -4.40625 L 3.46875 -4.59375 L 3.671875 -4.59375 C 3.648438 -4.332031 3.640625 -4.046875 3.640625 -3.734375 L 3.640625 -3.28125 C 3.640625 -2.96875 3.660156 -2.53125 3.703125 -1.96875 L 3.484375 -1.96875 C 3.484375 -2.019531 3.46875 -2.171875 3.4375 -2.421875 C 3.40625 -2.679688 3.316406 -2.875 3.171875 -3 C 3.035156 -3.125 2.847656 -3.1875 2.609375 -3.1875 L 2 -3.1875 L 2 -0.984375 C 2 -0.742188 2.015625 -0.570312 2.046875 -0.46875 C 2.085938 -0.363281 2.15625 -0.296875 2.25 -0.265625 C 2.351562 -0.234375 2.519531 -0.21875 2.75 -0.21875 L 3.421875 -0.21875 C 3.796875 -0.21875 4.082031 -0.265625 4.28125 -0.359375 C 4.488281 -0.460938 4.632812 -0.625 4.71875 -0.84375 C 4.8125 -1.070312 4.882812 -1.40625 4.9375 -1.84375 L 5.140625 -1.84375 C 5.117188 -1.675781 5.109375 -1.457031 5.109375 -1.1875 Z M 5.109375 -1.1875 "/></g></g></g><g fill="#fbfaf9" fill-opacity="1"><g transform="translate(135.555036, 28.305214)"><g/></g></g><g fill="#fbfaf9" fill-opacity="1"><g transform="translate(137.852035, 28.305214)"><g><path d="M 2.359375 -6.640625 C 2.628906 -6.640625 2.84375 -6.609375 3 -6.546875 C 3.15625 -6.492188 3.316406 -6.410156 3.484375 -6.296875 C 3.617188 -6.210938 3.722656 -6.171875 3.796875 -6.171875 C 3.859375 -6.171875 3.90625 -6.203125 3.9375 -6.265625 C 3.96875 -6.328125 3.988281 -6.429688 4 -6.578125 L 4.21875 -6.578125 C 4.1875 -6.222656 4.171875 -5.59375 4.171875 -4.6875 L 3.96875 -4.6875 C 3.925781 -5.1875 3.78125 -5.609375 3.53125 -5.953125 C 3.28125 -6.296875 2.921875 -6.46875 2.453125 -6.46875 C 2.117188 -6.46875 1.847656 -6.363281 1.640625 -6.15625 C 1.429688 -5.957031 1.328125 -5.703125 1.328125 -5.390625 C 1.328125 -5.160156 1.378906 -4.957031 1.484375 -4.78125 C 1.585938 -4.613281 1.722656 -4.46875 1.890625 -4.34375 C 2.054688 -4.21875 2.296875 -4.0625 2.609375 -3.875 L 2.875 -3.703125 C 3.257812 -3.460938 3.5625 -3.25 3.78125 -3.0625 C 4.007812 -2.882812 4.191406 -2.675781 4.328125 -2.4375 C 4.460938 -2.207031 4.53125 -1.9375 4.53125 -1.625 C 4.53125 -1.0625 4.34375 -0.628906 3.96875 -0.328125 C 3.601562 -0.0234375 3.140625 0.125 2.578125 0.125 C 2.285156 0.125 2.039062 0.09375 1.84375 0.03125 C 1.65625 -0.03125 1.476562 -0.113281 1.3125 -0.21875 C 1.175781 -0.300781 1.070312 -0.34375 1 -0.34375 C 0.945312 -0.34375 0.90625 -0.304688 0.875 -0.234375 C 0.84375 -0.171875 0.816406 -0.0703125 0.796875 0.0625 L 0.578125 0.0625 C 0.609375 -0.269531 0.625 -1.007812 0.625 -2.15625 L 0.828125 -2.15625 C 0.867188 -1.53125 1.019531 -1.023438 1.28125 -0.640625 C 1.550781 -0.253906 1.960938 -0.0625 2.515625 -0.0625 C 2.847656 -0.0625 3.128906 -0.160156 3.359375 -0.359375 C 3.597656 -0.566406 3.71875 -0.875 3.71875 -1.28125 C 3.71875 -1.625 3.597656 -1.914062 3.359375 -2.15625 C 3.128906 -2.394531 2.765625 -2.664062 2.265625 -2.96875 C 1.910156 -3.195312 1.617188 -3.394531 1.390625 -3.5625 C 1.160156 -3.738281 0.972656 -3.945312 0.828125 -4.1875 C 0.691406 -4.425781 0.625 -4.710938 0.625 -5.046875 C 0.625 -5.554688 0.789062 -5.945312 1.125 -6.21875 C 1.457031 -6.5 1.867188 -6.640625 2.359375 -6.640625 Z M 2.359375 -6.640625 "/></g></g></g><g fill="#fbfaf9" fill-opacity="1"><g transform="translate(142.833481, 28.305214)"><g><path d="M 5.46875 -6.53125 C 5.425781 -6.09375 5.40625 -5.703125 5.40625 -5.359375 C 5.40625 -5.046875 5.414062 -4.789062 5.4375 -4.59375 L 5.21875 -4.59375 C 5.164062 -5.070312 5.101562 -5.425781 5.03125 -5.65625 C 4.957031 -5.882812 4.828125 -6.050781 4.640625 -6.15625 C 4.460938 -6.269531 4.179688 -6.328125 3.796875 -6.328125 L 3.296875 -6.328125 L 3.296875 -1.078125 C 3.296875 -0.816406 3.316406 -0.625 3.359375 -0.5 C 3.410156 -0.382812 3.5 -0.304688 3.625 -0.265625 C 3.75 -0.222656 3.953125 -0.195312 4.234375 -0.1875 L 4.234375 0 C 3.910156 -0.0195312 3.457031 -0.03125 2.875 -0.03125 C 2.257812 -0.03125 1.800781 -0.0195312 1.5 0 L 1.5 -0.1875 C 1.78125 -0.195312 1.984375 -0.222656 2.109375 -0.265625 C 2.234375 -0.304688 2.316406 -0.382812 2.359375 -0.5 C 2.410156 -0.625 2.4375 -0.816406 2.4375 -1.078125 L 2.4375 -6.328125 L 1.9375 -6.328125 C 1.550781 -6.328125 1.265625 -6.269531 1.078125 -6.15625 C 0.898438 -6.050781 0.773438 -5.882812 0.703125 -5.65625 C 0.628906 -5.425781 0.566406 -5.070312 0.515625 -4.59375 L 0.3125 -4.59375 C 0.320312 -4.789062 0.328125 -5.046875 0.328125 -5.359375 C 0.328125 -5.703125 0.304688 -6.09375 0.265625 -6.53125 C 0.773438 -6.519531 1.644531 -6.515625 2.875 -6.515625 C 4.09375 -6.515625 4.957031 -6.519531 5.46875 -6.53125 Z M 5.46875 -6.53125 "/></g></g></g><g fill="#fbfaf9" fill-opacity="1"><g transform="translate(148.562145, 28.305214)"><g><path d="M 6.046875 -6.359375 C 5.828125 -6.335938 5.664062 -6.300781 5.5625 -6.25 C 5.457031 -6.195312 5.382812 -6.109375 5.34375 -5.984375 C 5.3125 -5.867188 5.296875 -5.695312 5.296875 -5.46875 L 5.296875 -2.6875 C 5.296875 -2.238281 5.265625 -1.859375 5.203125 -1.546875 C 5.148438 -1.234375 5.054688 -0.960938 4.921875 -0.734375 C 4.765625 -0.460938 4.535156 -0.25 4.234375 -0.09375 C 3.941406 0.0507812 3.609375 0.125 3.234375 0.125 C 2.554688 0.125 2.039062 -0.0390625 1.6875 -0.375 C 1.414062 -0.625 1.234375 -0.90625 1.140625 -1.21875 C 1.046875 -1.539062 1 -2.019531 1 -2.65625 L 1 -5.5625 C 1 -5.789062 0.976562 -5.957031 0.9375 -6.0625 C 0.90625 -6.164062 0.835938 -6.234375 0.734375 -6.265625 C 0.628906 -6.304688 0.46875 -6.335938 0.25 -6.359375 L 0.25 -6.53125 C 0.507812 -6.519531 0.90625 -6.515625 1.4375 -6.515625 C 1.925781 -6.515625 2.316406 -6.519531 2.609375 -6.53125 L 2.609375 -6.359375 C 2.378906 -6.335938 2.210938 -6.304688 2.109375 -6.265625 C 2.015625 -6.234375 1.945312 -6.164062 1.90625 -6.0625 C 1.875 -5.957031 1.859375 -5.789062 1.859375 -5.5625 L 1.859375 -2.5 C 1.859375 -2.007812 1.890625 -1.597656 1.953125 -1.265625 C 2.023438 -0.941406 2.164062 -0.679688 2.375 -0.484375 C 2.59375 -0.285156 2.90625 -0.1875 3.3125 -0.1875 C 3.96875 -0.1875 4.425781 -0.394531 4.6875 -0.8125 C 4.957031 -1.238281 5.09375 -1.828125 5.09375 -2.578125 L 5.09375 -5.46875 C 5.09375 -5.800781 5.03125 -6.023438 4.90625 -6.140625 C 4.789062 -6.265625 4.570312 -6.335938 4.25 -6.359375 L 4.25 -6.53125 C 4.46875 -6.519531 4.78125 -6.515625 5.1875 -6.515625 C 5.5625 -6.515625 5.847656 -6.519531 6.046875 -6.53125 Z M 6.046875 -6.359375 "/></g></g></g><g fill="#fbfaf9" fill-opacity="1"><g transform="translate(154.853531, 28.305214)"><g><path d="M 2.90625 -6.53125 C 4 -6.53125 4.816406 -6.257812 5.359375 -5.71875 C 5.898438 -5.175781 6.171875 -4.382812 6.171875 -3.34375 C 6.171875 -2.675781 6.035156 -2.085938 5.765625 -1.578125 C 5.503906 -1.078125 5.125 -0.6875 4.625 -0.40625 C 4.125 -0.132812 3.523438 0 2.828125 0 L 2.296875 -0.015625 C 1.941406 -0.0234375 1.6875 -0.03125 1.53125 -0.03125 C 1.03125 -0.03125 0.648438 -0.0195312 0.390625 0 L 0.390625 -0.1875 C 0.609375 -0.195312 0.769531 -0.21875 0.875 -0.25 C 0.976562 -0.289062 1.046875 -0.363281 1.078125 -0.46875 C 1.117188 -0.570312 1.140625 -0.742188 1.140625 -0.984375 L 1.140625 -5.5625 C 1.140625 -5.789062 1.117188 -5.957031 1.078125 -6.0625 C 1.046875 -6.164062 0.976562 -6.234375 0.875 -6.265625 C 0.769531 -6.304688 0.609375 -6.335938 0.390625 -6.359375 L 0.390625 -6.53125 C 0.609375 -6.519531 0.90625 -6.515625 1.28125 -6.515625 L 2.0625 -6.515625 C 2.488281 -6.523438 2.769531 -6.53125 2.90625 -6.53125 Z M 2.671875 -6.375 C 2.484375 -6.375 2.34375 -6.351562 2.25 -6.3125 C 2.15625 -6.269531 2.085938 -6.191406 2.046875 -6.078125 C 2.015625 -5.960938 2 -5.796875 2 -5.578125 L 2 -0.953125 C 2 -0.734375 2.015625 -0.566406 2.046875 -0.453125 C 2.085938 -0.347656 2.15625 -0.273438 2.25 -0.234375 C 2.34375 -0.191406 2.488281 -0.171875 2.6875 -0.171875 C 3.34375 -0.171875 3.859375 -0.285156 4.234375 -0.515625 C 4.609375 -0.753906 4.867188 -1.101562 5.015625 -1.5625 C 5.171875 -2.019531 5.25 -2.601562 5.25 -3.3125 C 5.25 -4.019531 5.164062 -4.59375 5 -5.03125 C 4.832031 -5.476562 4.5625 -5.8125 4.1875 -6.03125 C 3.8125 -6.257812 3.304688 -6.375 2.671875 -6.375 Z M 2.671875 -6.375 "/></g></g></g><g fill="#fbfaf9" fill-opacity="1"><g transform="translate(161.523138, 28.305214)"><g><path d="M 2.75 -6.359375 C 2.519531 -6.335938 2.351562 -6.304688 2.25 -6.265625 C 2.15625 -6.234375 2.085938 -6.164062 2.046875 -6.0625 C 2.015625 -5.957031 2 -5.789062 2 -5.5625 L 2 -0.984375 C 2 -0.742188 2.015625 -0.570312 2.046875 -0.46875 C 2.085938 -0.363281 2.15625 -0.289062 2.25 -0.25 C 2.351562 -0.21875 2.519531 -0.195312 2.75 -0.1875 L 2.75 0 C 2.457031 -0.0195312 2.0625 -0.03125 1.5625 -0.03125 C 1.039062 -0.03125 0.648438 -0.0195312 0.390625 0 L 0.390625 -0.1875 C 0.609375 -0.195312 0.769531 -0.21875 0.875 -0.25 C 0.976562 -0.289062 1.046875 -0.363281 1.078125 -0.46875 C 1.117188 -0.570312 1.140625 -0.742188 1.140625 -0.984375 L 1.140625 -5.5625 C 1.140625 -5.789062 1.117188 -5.957031 1.078125 -6.0625 C 1.046875 -6.164062 0.976562 -6.234375 0.875 -6.265625 C 0.769531 -6.304688 0.609375 -6.335938 0.390625 -6.359375 L 0.390625 -6.53125 C 0.648438 -6.519531 1.039062 -6.515625 1.5625 -6.515625 C 2.0625 -6.515625 2.457031 -6.519531 2.75 -6.53125 Z M 2.75 -6.359375 "/></g></g></g><g fill="#fbfaf9" fill-opacity="1"><g transform="translate(164.650382, 28.305214)"><g><path d="M 3.421875 -6.671875 C 4.003906 -6.671875 4.515625 -6.535156 4.953125 -6.265625 C 5.398438 -6.003906 5.742188 -5.625 5.984375 -5.125 C 6.234375 -4.625 6.359375 -4.023438 6.359375 -3.328125 C 6.359375 -2.648438 6.234375 -2.046875 5.984375 -1.515625 C 5.734375 -0.992188 5.382812 -0.585938 4.9375 -0.296875 C 4.488281 -0.015625 3.984375 0.125 3.421875 0.125 C 2.835938 0.125 2.320312 -0.00390625 1.875 -0.265625 C 1.4375 -0.535156 1.09375 -0.921875 0.84375 -1.421875 C 0.601562 -1.921875 0.484375 -2.519531 0.484375 -3.21875 C 0.484375 -3.894531 0.609375 -4.492188 0.859375 -5.015625 C 1.109375 -5.535156 1.457031 -5.941406 1.90625 -6.234375 C 2.351562 -6.523438 2.859375 -6.671875 3.421875 -6.671875 Z M 3.390625 -6.5 C 2.992188 -6.5 2.644531 -6.359375 2.34375 -6.078125 C 2.050781 -5.804688 1.820312 -5.425781 1.65625 -4.9375 C 1.488281 -4.445312 1.40625 -3.882812 1.40625 -3.25 C 1.40625 -2.613281 1.492188 -2.050781 1.671875 -1.5625 C 1.859375 -1.070312 2.101562 -0.691406 2.40625 -0.421875 C 2.71875 -0.160156 3.066406 -0.03125 3.453125 -0.03125 C 3.847656 -0.03125 4.191406 -0.164062 4.484375 -0.4375 C 4.785156 -0.71875 5.019531 -1.101562 5.1875 -1.59375 C 5.351562 -2.09375 5.4375 -2.65625 5.4375 -3.28125 C 5.4375 -3.925781 5.34375 -4.488281 5.15625 -4.96875 C 4.976562 -5.457031 4.734375 -5.832031 4.421875 -6.09375 C 4.117188 -6.363281 3.773438 -6.5 3.390625 -6.5 Z M 3.390625 -6.5 "/></g></g></g><g fill="#fbfaf9" fill-opacity="1"><g transform="translate(171.486035, 28.305214)"><g><path d="M 2.359375 -6.640625 C 2.628906 -6.640625 2.84375 -6.609375 3 -6.546875 C 3.15625 -6.492188 3.316406 -6.410156 3.484375 -6.296875 C 3.617188 -6.210938 3.722656 -6.171875 3.796875 -6.171875 C 3.859375 -6.171875 3.90625 -6.203125 3.9375 -6.265625 C 3.96875 -6.328125 3.988281 -6.429688 4 -6.578125 L 4.21875 -6.578125 C 4.1875 -6.222656 4.171875 -5.59375 4.171875 -4.6875 L 3.96875 -4.6875 C 3.925781 -5.1875 3.78125 -5.609375 3.53125 -5.953125 C 3.28125 -6.296875 2.921875 -6.46875 2.453125 -6.46875 C 2.117188 -6.46875 1.847656 -6.363281 1.640625 -6.15625 C 1.429688 -5.957031 1.328125 -5.703125 1.328125 -5.390625 C 1.328125 -5.160156 1.378906 -4.957031 1.484375 -4.78125 C 1.585938 -4.613281 1.722656 -4.46875 1.890625 -4.34375 C 2.054688 -4.21875 2.296875 -4.0625 2.609375 -3.875 L 2.875 -3.703125 C 3.257812 -3.460938 3.5625 -3.25 3.78125 -3.0625 C 4.007812 -2.882812 4.191406 -2.675781 4.328125 -2.4375 C 4.460938 -2.207031 4.53125 -1.9375 4.53125 -1.625 C 4.53125 -1.0625 4.34375 -0.628906 3.96875 -0.328125 C 3.601562 -0.0234375 3.140625 0.125 2.578125 0.125 C 2.285156 0.125 2.039062 0.09375 1.84375 0.03125 C 1.65625 -0.03125 1.476562 -0.113281 1.3125 -0.21875 C 1.175781 -0.300781 1.070312 -0.34375 1 -0.34375 C 0.945312 -0.34375 0.90625 -0.304688 0.875 -0.234375 C 0.84375 -0.171875 0.816406 -0.0703125 0.796875 0.0625 L 0.578125 0.0625 C 0.609375 -0.269531 0.625 -1.007812 0.625 -2.15625 L 0.828125 -2.15625 C 0.867188 -1.53125 1.019531 -1.023438 1.28125 -0.640625 C 1.550781 -0.253906 1.960938 -0.0625 2.515625 -0.0625 C 2.847656 -0.0625 3.128906 -0.160156 3.359375 -0.359375 C 3.597656 -0.566406 3.71875 -0.875 3.71875 -1.28125 C 3.71875 -1.625 3.597656 -1.914062 3.359375 -2.15625 C 3.128906 -2.394531 2.765625 -2.664062 2.265625 -2.96875 C 1.910156 -3.195312 1.617188 -3.394531 1.390625 -3.5625 C 1.160156 -3.738281 0.972656 -3.945312 0.828125 -4.1875 C 0.691406 -4.425781 0.625 -4.710938 0.625 -5.046875 C 0.625 -5.554688 0.789062 -5.945312 1.125 -6.21875 C 1.457031 -6.5 1.867188 -6.640625 2.359375 -6.640625 Z M 2.359375 -6.640625 "/></g></g></g><g fill="#fbfaf9" fill-opacity="1"><g transform="translate(91.399675, 35.968037)"><g><path d="M 1.421875 -2.484375 C 1.597656 -2.484375 1.765625 -2.445312 1.921875 -2.375 C 2.085938 -2.3125 2.234375 -2.21875 2.359375 -2.09375 L 2.109375 -1.796875 C 2.023438 -1.890625 1.921875 -1.960938 1.796875 -2.015625 C 1.671875 -2.078125 1.546875 -2.109375 1.421875 -2.109375 C 1.179688 -2.109375 0.972656 -2.023438 0.796875 -1.859375 C 0.628906 -1.691406 0.546875 -1.488281 0.546875 -1.25 C 0.546875 -1 0.628906 -0.789062 0.796875 -0.625 C 0.972656 -0.457031 1.179688 -0.375 1.421875 -0.375 C 1.679688 -0.375 1.910156 -0.46875 2.109375 -0.65625 L 2.359375 -0.390625 C 2.234375 -0.265625 2.082031 -0.164062 1.90625 -0.09375 C 1.738281 -0.0195312 1.570312 0.015625 1.40625 0.015625 C 1.039062 0.015625 0.734375 -0.101562 0.484375 -0.34375 C 0.242188 -0.582031 0.125 -0.878906 0.125 -1.234375 C 0.125 -1.585938 0.25 -1.882812 0.5 -2.125 C 0.75 -2.363281 1.054688 -2.484375 1.421875 -2.484375 Z M 1.421875 -2.484375 "/></g></g></g><g fill="#fbfaf9" fill-opacity="1"><g transform="translate(95.972869, 35.968037)"><g><path d="M 1.890625 0 L 1.4375 -0.75 C 1.414062 -0.75 1.378906 -0.75 1.328125 -0.75 L 0.734375 -0.75 L 0.734375 0 L 0.328125 0 L 0.328125 -2.46875 L 1.328125 -2.46875 C 1.640625 -2.46875 1.882812 -2.394531 2.0625 -2.25 C 2.238281 -2.101562 2.328125 -1.894531 2.328125 -1.625 C 2.328125 -1.425781 2.28125 -1.257812 2.1875 -1.125 C 2.101562 -0.988281 1.976562 -0.890625 1.8125 -0.828125 L 2.359375 0 Z M 0.734375 -1.125 L 1.328125 -1.125 C 1.722656 -1.125 1.921875 -1.289062 1.921875 -1.625 C 1.921875 -1.9375 1.722656 -2.09375 1.328125 -2.09375 L 0.734375 -2.09375 Z M 0.734375 -1.125 "/></g></g></g><g fill="#fbfaf9" fill-opacity="1"><g transform="translate(100.637671, 35.968037)"><g><path d="M 2.09375 -2.09375 L 0.734375 -2.09375 L 0.734375 -1.4375 L 1.953125 -1.4375 L 1.953125 -1.0625 L 0.734375 -1.0625 L 0.734375 -0.375 L 2.140625 -0.375 L 2.140625 0 L 0.328125 0 L 0.328125 -2.46875 L 2.09375 -2.46875 Z M 2.09375 -2.09375 "/></g></g></g><g fill="#fbfaf9" fill-opacity="1"><g transform="translate(105.066411, 35.968037)"><g><path d="M 1.921875 -0.5625 L 0.671875 -0.5625 L 0.4375 0 L 0 0 L 1.09375 -2.46875 L 1.515625 -2.46875 L 2.609375 0 L 2.15625 0 Z M 1.765625 -0.921875 L 1.296875 -2.03125 L 0.828125 -0.921875 Z M 1.765625 -0.921875 "/></g></g></g><g fill="#fbfaf9" fill-opacity="1"><g transform="translate(109.784059, 35.968037)"><g><path d="M 2.015625 -2.09375 L 1.234375 -2.09375 L 1.234375 0 L 0.8125 0 L 0.8125 -2.09375 L 0.03125 -2.09375 L 0.03125 -2.46875 L 2.015625 -2.46875 Z M 2.015625 -2.09375 "/></g></g></g><g fill="#fbfaf9" fill-opacity="1"><g transform="translate(113.941498, 35.968037)"><g><path d="M 0.734375 0 L 0.328125 0 L 0.328125 -2.46875 L 0.734375 -2.46875 Z M 0.734375 0 "/></g></g></g><g fill="#fbfaf9" fill-opacity="1"><g transform="translate(117.122978, 35.968037)"><g><path d="M 1.421875 0 L 1 0 L 0.015625 -2.46875 L 0.453125 -2.46875 L 1.21875 -0.46875 L 1.984375 -2.46875 L 2.421875 -2.46875 Z M 1.421875 0 "/></g></g></g><g fill="#fbfaf9" fill-opacity="1"><g transform="translate(121.671509, 35.968037)"><g><path d="M 2.09375 -2.09375 L 0.734375 -2.09375 L 0.734375 -1.4375 L 1.953125 -1.4375 L 1.953125 -1.0625 L 0.734375 -1.0625 L 0.734375 -0.375 L 2.140625 -0.375 L 2.140625 0 L 0.328125 0 L 0.328125 -2.46875 L 2.09375 -2.46875 Z M 2.09375 -2.09375 "/></g></g></g><g fill="#fbfaf9" fill-opacity="1"><g transform="translate(126.100248, 35.968037)"><g/></g></g><g fill="#fbfaf9" fill-opacity="1"><g transform="translate(129.126698, 35.968037)"><g><path d="M 1.140625 -2.484375 C 1.460938 -2.484375 1.75 -2.398438 2 -2.234375 L 1.828125 -1.875 C 1.578125 -2.019531 1.335938 -2.09375 1.109375 -2.09375 C 0.984375 -2.09375 0.882812 -2.070312 0.8125 -2.03125 C 0.738281 -1.988281 0.703125 -1.925781 0.703125 -1.84375 C 0.703125 -1.757812 0.734375 -1.6875 0.796875 -1.625 C 0.867188 -1.570312 0.953125 -1.53125 1.046875 -1.5 C 1.148438 -1.476562 1.257812 -1.445312 1.375 -1.40625 C 1.488281 -1.363281 1.59375 -1.316406 1.6875 -1.265625 C 1.789062 -1.222656 1.875 -1.148438 1.9375 -1.046875 C 2 -0.953125 2.03125 -0.835938 2.03125 -0.703125 C 2.03125 -0.484375 1.941406 -0.304688 1.765625 -0.171875 C 1.597656 -0.046875 1.378906 0.015625 1.109375 0.015625 C 0.910156 0.015625 0.722656 -0.0195312 0.546875 -0.09375 C 0.378906 -0.164062 0.226562 -0.257812 0.09375 -0.375 L 0.265625 -0.734375 C 0.390625 -0.617188 0.523438 -0.53125 0.671875 -0.46875 C 0.828125 -0.40625 0.972656 -0.375 1.109375 -0.375 C 1.253906 -0.375 1.367188 -0.398438 1.453125 -0.453125 C 1.535156 -0.503906 1.578125 -0.578125 1.578125 -0.671875 C 1.578125 -0.765625 1.539062 -0.835938 1.46875 -0.890625 C 1.40625 -0.953125 1.320312 -0.992188 1.21875 -1.015625 C 1.125 -1.046875 1.019531 -1.078125 0.90625 -1.109375 C 0.789062 -1.148438 0.679688 -1.191406 0.578125 -1.234375 C 0.484375 -1.285156 0.398438 -1.359375 0.328125 -1.453125 C 0.265625 -1.546875 0.234375 -1.660156 0.234375 -1.796875 C 0.234375 -2.003906 0.316406 -2.171875 0.484375 -2.296875 C 0.648438 -2.421875 0.867188 -2.484375 1.140625 -2.484375 Z M 1.140625 -2.484375 "/></g></g></g><g fill="#fbfaf9" fill-opacity="1"><g transform="translate(133.435642, 35.968037)"><g><path d="M 0.5 -2.125 C 0.75 -2.363281 1.054688 -2.484375 1.421875 -2.484375 C 1.796875 -2.484375 2.109375 -2.363281 2.359375 -2.125 C 2.609375 -1.882812 2.734375 -1.585938 2.734375 -1.234375 C 2.734375 -0.878906 2.609375 -0.582031 2.359375 -0.34375 C 2.109375 -0.101562 1.796875 0.015625 1.421875 0.015625 C 1.054688 0.015625 0.75 -0.101562 0.5 -0.34375 C 0.25 -0.582031 0.125 -0.878906 0.125 -1.234375 C 0.125 -1.585938 0.25 -1.882812 0.5 -2.125 Z M 1.4375 -2.109375 C 1.1875 -2.109375 0.972656 -2.023438 0.796875 -1.859375 C 0.628906 -1.691406 0.546875 -1.484375 0.546875 -1.234375 C 0.546875 -0.992188 0.628906 -0.785156 0.796875 -0.609375 C 0.972656 -0.441406 1.179688 -0.359375 1.421875 -0.359375 C 1.671875 -0.359375 1.878906 -0.441406 2.046875 -0.609375 C 2.222656 -0.785156 2.3125 -0.992188 2.3125 -1.234375 C 2.3125 -1.484375 2.222656 -1.691406 2.046875 -1.859375 C 1.878906 -2.023438 1.675781 -2.109375 1.4375 -2.109375 Z M 1.4375 -2.109375 "/></g></g></g><g fill="#fbfaf9" fill-opacity="1"><g transform="translate(138.40697, 35.968037)"><g><path d="M 0.734375 -0.375 L 1.8125 -0.375 L 1.8125 0 L 0.328125 0 L 0.328125 -2.46875 L 0.734375 -2.46875 Z M 0.734375 -0.375 "/></g></g></g><g fill="#fbfaf9" fill-opacity="1"><g transform="translate(142.405865, 35.968037)"><g><path d="M 2.421875 -2.46875 L 2.421875 -1.03125 C 2.421875 -0.707031 2.328125 -0.453125 2.140625 -0.265625 C 1.953125 -0.078125 1.6875 0.015625 1.34375 0.015625 C 1.007812 0.015625 0.75 -0.078125 0.5625 -0.265625 C 0.375 -0.453125 0.28125 -0.707031 0.28125 -1.03125 L 0.28125 -2.46875 L 0.6875 -2.46875 L 0.6875 -1.03125 C 0.6875 -0.820312 0.742188 -0.65625 0.859375 -0.53125 C 0.984375 -0.414062 1.148438 -0.359375 1.359375 -0.359375 C 1.554688 -0.359375 1.710938 -0.414062 1.828125 -0.53125 C 1.953125 -0.644531 2.015625 -0.8125 2.015625 -1.03125 L 2.015625 -2.46875 Z M 2.421875 -2.46875 "/></g></g></g><g fill="#fbfaf9" fill-opacity="1"><g transform="translate(147.215123, 35.968037)"><g><path d="M 2.015625 -2.09375 L 1.234375 -2.09375 L 1.234375 0 L 0.8125 0 L 0.8125 -2.09375 L 0.03125 -2.09375 L 0.03125 -2.46875 L 2.015625 -2.46875 Z M 2.015625 -2.09375 "/></g></g></g><g fill="#fbfaf9" fill-opacity="1"><g transform="translate(151.372566, 35.968037)"><g><path d="M 0.734375 0 L 0.328125 0 L 0.328125 -2.46875 L 0.734375 -2.46875 Z M 0.734375 0 "/></g></g></g><g fill="#fbfaf9" fill-opacity="1"><g transform="translate(154.554047, 35.968037)"><g><path d="M 0.5 -2.125 C 0.75 -2.363281 1.054688 -2.484375 1.421875 -2.484375 C 1.796875 -2.484375 2.109375 -2.363281 2.359375 -2.125 C 2.609375 -1.882812 2.734375 -1.585938 2.734375 -1.234375 C 2.734375 -0.878906 2.609375 -0.582031 2.359375 -0.34375 C 2.109375 -0.101562 1.796875 0.015625 1.421875 0.015625 C 1.054688 0.015625 0.75 -0.101562 0.5 -0.34375 C 0.25 -0.582031 0.125 -0.878906 0.125 -1.234375 C 0.125 -1.585938 0.25 -1.882812 0.5 -2.125 Z M 1.4375 -2.109375 C 1.1875 -2.109375 0.972656 -2.023438 0.796875 -1.859375 C 0.628906 -1.691406 0.546875 -1.484375 0.546875 -1.234375 C 0.546875 -0.992188 0.628906 -0.785156 0.796875 -0.609375 C 0.972656 -0.441406 1.179688 -0.359375 1.421875 -0.359375 C 1.671875 -0.359375 1.878906 -0.441406 2.046875 -0.609375 C 2.222656 -0.785156 2.3125 -0.992188 2.3125 -1.234375 C 2.3125 -1.484375 2.222656 -1.691406 2.046875 -1.859375 C 1.878906 -2.023438 1.675781 -2.109375 1.4375 -2.109375 Z M 1.4375 -2.109375 "/></g></g></g><g fill="#fbfaf9" fill-opacity="1"><g transform="translate(159.525378, 35.968037)"><g><path d="M 2.46875 0 L 2.0625 0 L 0.734375 -1.765625 L 0.734375 0 L 0.328125 0 L 0.328125 -2.46875 L 0.734375 -2.46875 L 2.0625 -0.703125 L 2.0625 -2.46875 L 2.46875 -2.46875 Z M 2.46875 0 "/></g></g></g><g fill="#fbfaf9" fill-opacity="1"><g transform="translate(164.433289, 35.968037)"><g><path d="M 1.140625 -2.484375 C 1.460938 -2.484375 1.75 -2.398438 2 -2.234375 L 1.828125 -1.875 C 1.578125 -2.019531 1.335938 -2.09375 1.109375 -2.09375 C 0.984375 -2.09375 0.882812 -2.070312 0.8125 -2.03125 C 0.738281 -1.988281 0.703125 -1.925781 0.703125 -1.84375 C 0.703125 -1.757812 0.734375 -1.6875 0.796875 -1.625 C 0.867188 -1.570312 0.953125 -1.53125 1.046875 -1.5 C 1.148438 -1.476562 1.257812 -1.445312 1.375 -1.40625 C 1.488281 -1.363281 1.59375 -1.316406 1.6875 -1.265625 C 1.789062 -1.222656 1.875 -1.148438 1.9375 -1.046875 C 2 -0.953125 2.03125 -0.835938 2.03125 -0.703125 C 2.03125 -0.484375 1.941406 -0.304688 1.765625 -0.171875 C 1.597656 -0.046875 1.378906 0.015625 1.109375 0.015625 C 0.910156 0.015625 0.722656 -0.0195312 0.546875 -0.09375 C 0.378906 -0.164062 0.226562 -0.257812 0.09375 -0.375 L 0.265625 -0.734375 C 0.390625 -0.617188 0.523438 -0.53125 0.671875 -0.46875 C 0.828125 -0.40625 0.972656 -0.375 1.109375 -0.375 C 1.253906 -0.375 1.367188 -0.398438 1.453125 -0.453125 C 1.535156 -0.503906 1.578125 -0.578125 1.578125 -0.671875 C 1.578125 -0.765625 1.539062 -0.835938 1.46875 -0.890625 C 1.40625 -0.953125 1.320312 -0.992188 1.21875 -1.015625 C 1.125 -1.046875 1.019531 -1.078125 0.90625 -1.109375 C 0.789062 -1.148438 0.679688 -1.191406 0.578125 -1.234375 C 0.484375 -1.285156 0.398438 -1.359375 0.328125 -1.453125 C 0.265625 -1.546875 0.234375 -1.660156 0.234375 -1.796875 C 0.234375 -2.003906 0.316406 -2.171875 0.484375 -2.296875 C 0.648438 -2.421875 0.867188 -2.484375 1.140625 -2.484375 Z M 1.140625 -2.484375 "/></g></g></g></svg>