<svg xmlns="http://www.w3.org/2000/svg" xmlns:xlink="http://www.w3.org/1999/xlink" width="436" zoomAndPan="magnify" viewBox="0 0 327 116.249996" height="155" preserveAspectRatio="xMidYMid meet" version="1.0"><defs><g/></defs><path stroke-linecap="butt" transform="matrix(-0.0067868, -0.43485, 0.43485, -0.0067868, 128.577926, 95.150673)" fill="none" stroke-linejoin="miter" d="M -0.00271677 0.503463 L 110.281467 0.49996 " stroke="#191919" stroke-width="1" stroke-opacity="1" stroke-miterlimit="4"/><g fill="#ffffff" fill-opacity="1"><g transform="translate(26.264899, 82.912707)"><g><path d="M 16.703125 -17.828125 L 16.703125 -6.984375 C 16.703125 -5.316406 16.878906 -4.097656 17.234375 -3.328125 C 17.585938 -2.566406 18.207031 -2.0625 19.09375 -1.8125 C 19.988281 -1.5625 21.414062 -1.414062 23.375 -1.375 L 23.375 0 C 18.257812 -0.125 14.457031 -0.1875 11.96875 -0.1875 C 9.882812 -0.1875 7.265625 -0.144531 4.109375 -0.0625 L 2.125 0 L 2.125 -1.25 C 3.488281 -1.332031 4.492188 -1.5 5.140625 -1.75 C 5.785156 -2 6.222656 -2.472656 6.453125 -3.171875 C 6.679688 -3.878906 6.796875 -5.023438 6.796875 -6.609375 L 6.796875 -37.515625 C 6.796875 -39.097656 6.679688 -40.242188 6.453125 -40.953125 C 6.222656 -41.660156 5.785156 -42.132812 5.140625 -42.375 C 4.492188 -42.625 3.488281 -42.789062 2.125 -42.875 L 2.125 -44.125 C 4.238281 -44 7.394531 -43.9375 11.59375 -43.9375 L 18.515625 -44 C 19.347656 -44.039062 20.300781 -44.0625 21.375 -44.0625 C 26.988281 -44.0625 31.269531 -42.945312 34.21875 -40.71875 C 37.164062 -38.5 38.640625 -35.519531 38.640625 -31.78125 C 38.640625 -29.5 38.054688 -27.304688 36.890625 -25.203125 C 35.734375 -23.109375 33.769531 -21.351562 31 -19.9375 C 28.238281 -18.53125 24.570312 -17.828125 20 -17.828125 Z M 20.5625 -42.875 C 19.445312 -42.875 18.628906 -42.726562 18.109375 -42.4375 C 17.585938 -42.15625 17.222656 -41.640625 17.015625 -40.890625 C 16.804688 -40.140625 16.703125 -39.015625 16.703125 -37.515625 L 16.703125 -19.078125 L 19.390625 -19.078125 C 22.753906 -19.078125 25.078125 -20.15625 26.359375 -22.3125 C 27.648438 -24.46875 28.296875 -27.398438 28.296875 -31.109375 C 28.296875 -35.128906 27.703125 -38.09375 26.515625 -40 C 25.335938 -41.914062 23.351562 -42.875 20.5625 -42.875 Z M 20.5625 -42.875 "/></g></g></g><g fill="#ffffff" fill-opacity="1"><g transform="translate(64.343901, 82.912707)"><g/></g></g><g fill="#ffffff" fill-opacity="1"><g transform="translate(76.995196, 82.912707)"><g><path d="M 17.703125 -44.9375 C 19.859375 -44.9375 21.582031 -44.726562 22.875 -44.3125 C 24.164062 -43.894531 25.472656 -43.289062 26.796875 -42.5 C 27.253906 -42.257812 27.660156 -42.054688 28.015625 -41.890625 C 28.367188 -41.722656 28.671875 -41.640625 28.921875 -41.640625 C 29.296875 -41.640625 29.585938 -41.851562 29.796875 -42.28125 C 30.003906 -42.71875 30.171875 -43.414062 30.296875 -44.375 L 31.71875 -44.375 C 31.507812 -41.59375 31.40625 -36.859375 31.40625 -30.171875 L 29.984375 -30.171875 C 29.816406 -32.410156 29.304688 -34.546875 28.453125 -36.578125 C 27.597656 -38.617188 26.390625 -40.269531 24.828125 -41.53125 C 23.273438 -42.800781 21.460938 -43.4375 19.390625 -43.4375 C 17.347656 -43.4375 15.691406 -42.863281 14.421875 -41.71875 C 13.160156 -40.582031 12.53125 -39.035156 12.53125 -37.078125 C 12.53125 -35.628906 12.835938 -34.363281 13.453125 -33.28125 C 14.078125 -32.195312 14.953125 -31.207031 16.078125 -30.3125 C 17.203125 -29.425781 18.925781 -28.210938 21.25 -26.671875 L 23.25 -25.3125 C 25.695312 -23.6875 27.625 -22.269531 29.03125 -21.0625 C 30.445312 -19.863281 31.601562 -18.460938 32.5 -16.859375 C 33.394531 -15.253906 33.84375 -13.394531 33.84375 -11.28125 C 33.84375 -8.625 33.15625 -6.390625 31.78125 -4.578125 C 30.414062 -2.773438 28.554688 -1.414062 26.203125 -0.5 C 23.859375 0.414062 21.253906 0.875 18.390625 0.875 C 16.054688 0.875 14.117188 0.664062 12.578125 0.25 C 11.046875 -0.164062 9.640625 -0.726562 8.359375 -1.4375 C 7.441406 -2.019531 6.734375 -2.3125 6.234375 -2.3125 C 5.859375 -2.3125 5.566406 -2.09375 5.359375 -1.65625 C 5.148438 -1.21875 4.984375 -0.519531 4.859375 0.4375 L 3.421875 0.4375 C 3.585938 -2.175781 3.671875 -7.785156 3.671875 -16.390625 L 5.109375 -16.390625 C 5.398438 -11.734375 6.4375 -7.960938 8.21875 -5.078125 C 10.007812 -2.191406 12.753906 -0.75 16.453125 -0.75 C 18.703125 -0.75 20.550781 -1.347656 22 -2.546875 C 23.457031 -3.753906 24.1875 -5.484375 24.1875 -7.734375 C 24.1875 -10.054688 23.4375 -12.046875 21.9375 -13.703125 C 20.445312 -15.367188 18.078125 -17.242188 14.828125 -19.328125 C 12.335938 -20.941406 10.34375 -22.351562 8.84375 -23.5625 C 7.351562 -24.769531 6.128906 -26.191406 5.171875 -27.828125 C 4.210938 -29.472656 3.734375 -31.375 3.734375 -33.53125 C 3.734375 -36.019531 4.367188 -38.128906 5.640625 -39.859375 C 6.910156 -41.585938 8.601562 -42.863281 10.71875 -43.6875 C 12.84375 -44.519531 15.171875 -44.9375 17.703125 -44.9375 Z M 17.703125 -44.9375 "/></g></g></g><g fill="#ffffff" fill-opacity="1"><g transform="translate(142.060433, 53.783125)"><g><path d="M 3.8125 -5.046875 L 3.8125 -1.875 C 3.8125 -1.425781 3.859375 -1.097656 3.953125 -0.890625 C 4.046875 -0.691406 4.207031 -0.554688 4.4375 -0.484375 C 4.675781 -0.421875 5.0625 -0.378906 5.59375 -0.359375 L 5.59375 0 C 4.976562 -0.03125 4.113281 -0.046875 3 -0.046875 C 1.988281 -0.046875 1.234375 -0.03125 0.734375 0 L 0.734375 -0.359375 C 1.160156 -0.378906 1.46875 -0.421875 1.65625 -0.484375 C 1.851562 -0.554688 1.988281 -0.691406 2.0625 -0.890625 C 2.132812 -1.097656 2.171875 -1.425781 2.171875 -1.875 L 2.171875 -10.625 C 2.171875 -11.070312 2.132812 -11.394531 2.0625 -11.59375 C 1.988281 -11.800781 1.851562 -11.9375 1.65625 -12 C 1.46875 -12.070312 1.160156 -12.117188 0.734375 -12.140625 L 0.734375 -12.5 C 1.234375 -12.46875 1.953125 -12.453125 2.890625 -12.453125 L 4.796875 -12.46875 C 5.023438 -12.476562 5.28125 -12.484375 5.5625 -12.484375 C 6.9375 -12.484375 7.988281 -12.164062 8.71875 -11.53125 C 9.445312 -10.90625 9.8125 -10.0625 9.8125 -9 C 9.8125 -8.351562 9.664062 -7.734375 9.375 -7.140625 C 9.09375 -6.546875 8.609375 -6.046875 7.921875 -5.640625 C 7.234375 -5.242188 6.316406 -5.046875 5.171875 -5.046875 Z M 5.125 -12.140625 C 4.757812 -12.140625 4.484375 -12.097656 4.296875 -12.015625 C 4.117188 -11.941406 3.992188 -11.796875 3.921875 -11.578125 C 3.847656 -11.367188 3.8125 -11.050781 3.8125 -10.625 L 3.8125 -5.40625 L 5 -5.40625 C 6.15625 -5.40625 6.953125 -5.710938 7.390625 -6.328125 C 7.828125 -6.941406 8.046875 -7.769531 8.046875 -8.8125 C 8.046875 -9.945312 7.816406 -10.785156 7.359375 -11.328125 C 6.910156 -11.867188 6.164062 -12.140625 5.125 -12.140625 Z M 5.125 -12.140625 "/></g></g></g><g fill="#ffffff" fill-opacity="1"><g transform="translate(152.386222, 53.783125)"><g><path d="M 10.015625 -1.484375 C 10.296875 -0.753906 10.703125 -0.378906 11.234375 -0.359375 L 11.234375 0 C 10.753906 -0.03125 10.125 -0.046875 9.34375 -0.046875 C 8.332031 -0.046875 7.578125 -0.03125 7.078125 0 L 7.078125 -0.359375 C 7.523438 -0.378906 7.84375 -0.429688 8.03125 -0.515625 C 8.226562 -0.609375 8.328125 -0.769531 8.328125 -1 C 8.328125 -1.207031 8.257812 -1.488281 8.125 -1.84375 L 7.046875 -4.734375 L 2.765625 -4.734375 L 2.046875 -2.859375 C 1.804688 -2.222656 1.6875 -1.738281 1.6875 -1.40625 C 1.6875 -1.039062 1.8125 -0.773438 2.0625 -0.609375 C 2.320312 -0.453125 2.710938 -0.367188 3.234375 -0.359375 L 3.234375 0 C 2.554688 -0.03125 1.878906 -0.046875 1.203125 -0.046875 C 0.671875 -0.046875 0.226562 -0.03125 -0.125 0 L -0.125 -0.359375 C 0.46875 -0.492188 0.929688 -1.003906 1.265625 -1.890625 L 5.421875 -12.59375 L 5.703125 -12.59375 Z M 6.90625 -5.078125 L 4.921875 -10.359375 L 2.90625 -5.078125 Z M 6.90625 -5.078125 "/></g></g></g><g fill="#ffffff" fill-opacity="1"><g transform="translate(163.506299, 53.783125)"><g><path d="M 6.640625 -12.75 C 7.335938 -12.75 7.90625 -12.648438 8.34375 -12.453125 C 8.789062 -12.265625 9.28125 -11.976562 9.8125 -11.59375 C 9.96875 -11.476562 10.085938 -11.421875 10.171875 -11.421875 C 10.390625 -11.421875 10.535156 -11.78125 10.609375 -12.5 L 11.015625 -12.5 C 10.972656 -11.738281 10.953125 -10.382812 10.953125 -8.4375 L 10.546875 -8.4375 C 10.429688 -9.0625 10.316406 -9.578125 10.203125 -9.984375 C 10.085938 -10.390625 9.90625 -10.742188 9.65625 -11.046875 C 9.3125 -11.472656 8.863281 -11.8125 8.3125 -12.0625 C 7.769531 -12.3125 7.203125 -12.4375 6.609375 -12.4375 C 5.828125 -12.4375 5.140625 -12.179688 4.546875 -11.671875 C 3.960938 -11.160156 3.507812 -10.4375 3.1875 -9.5 C 2.875 -8.570312 2.71875 -7.484375 2.71875 -6.234375 C 2.71875 -4.109375 3.054688 -2.554688 3.734375 -1.578125 C 4.410156 -0.597656 5.472656 -0.109375 6.921875 -0.109375 C 7.628906 -0.109375 8.238281 -0.289062 8.75 -0.65625 C 8.96875 -0.789062 9.109375 -0.925781 9.171875 -1.0625 C 9.234375 -1.195312 9.265625 -1.382812 9.265625 -1.625 L 9.265625 -3.3125 C 9.265625 -3.8125 9.21875 -4.171875 9.125 -4.390625 C 9.03125 -4.617188 8.863281 -4.773438 8.625 -4.859375 C 8.394531 -4.941406 8.015625 -4.992188 7.484375 -5.015625 L 7.484375 -5.375 C 8.097656 -5.332031 8.925781 -5.3125 9.96875 -5.3125 C 10.769531 -5.3125 11.382812 -5.332031 11.8125 -5.375 L 11.8125 -5.015625 C 11.539062 -4.992188 11.34375 -4.945312 11.21875 -4.875 C 11.09375 -4.800781 11.007812 -4.664062 10.96875 -4.46875 C 10.925781 -4.269531 10.90625 -3.945312 10.90625 -3.5 L 10.90625 0 L 10.5625 0 C 10.550781 -0.238281 10.503906 -0.460938 10.421875 -0.671875 C 10.335938 -0.890625 10.222656 -1 10.078125 -1 C 10.003906 -1 9.929688 -0.984375 9.859375 -0.953125 C 9.796875 -0.921875 9.675781 -0.835938 9.5 -0.703125 C 9.082031 -0.390625 8.65625 -0.15625 8.21875 0 C 7.78125 0.164062 7.289062 0.25 6.75 0.25 C 5.53125 0.25 4.488281 0 3.625 -0.5 C 2.757812 -1 2.097656 -1.71875 1.640625 -2.65625 C 1.179688 -3.601562 0.953125 -4.726562 0.953125 -6.03125 C 0.953125 -7.375 1.195312 -8.554688 1.6875 -9.578125 C 2.175781 -10.597656 2.847656 -11.378906 3.703125 -11.921875 C 4.566406 -12.472656 5.546875 -12.75 6.640625 -12.75 Z M 6.640625 -12.75 "/></g></g></g><g fill="#ffffff" fill-opacity="1"><g transform="translate(175.914887, 53.783125)"><g><path d="M 9.78125 -2.265625 C 9.78125 -1.585938 9.820312 -0.832031 9.90625 0 C 9.101562 -0.03125 7.753906 -0.046875 5.859375 -0.046875 C 3.597656 -0.046875 1.890625 -0.03125 0.734375 0 L 0.734375 -0.359375 C 1.160156 -0.378906 1.46875 -0.421875 1.65625 -0.484375 C 1.851562 -0.554688 1.988281 -0.691406 2.0625 -0.890625 C 2.132812 -1.097656 2.171875 -1.425781 2.171875 -1.875 L 2.171875 -10.625 C 2.171875 -11.070312 2.132812 -11.394531 2.0625 -11.59375 C 1.988281 -11.800781 1.851562 -11.9375 1.65625 -12 C 1.46875 -12.070312 1.160156 -12.117188 0.734375 -12.140625 L 0.734375 -12.5 C 1.890625 -12.46875 3.597656 -12.453125 5.859375 -12.453125 C 7.585938 -12.453125 8.816406 -12.46875 9.546875 -12.5 C 9.460938 -11.71875 9.421875 -11.023438 9.421875 -10.421875 C 9.421875 -9.960938 9.441406 -9.597656 9.484375 -9.328125 L 9.078125 -9.328125 C 8.992188 -10.085938 8.882812 -10.648438 8.75 -11.015625 C 8.625 -11.390625 8.40625 -11.660156 8.09375 -11.828125 C 7.789062 -12.003906 7.328125 -12.09375 6.703125 -12.09375 L 5.25 -12.09375 C 4.820312 -12.09375 4.507812 -12.0625 4.3125 -12 C 4.125 -11.9375 3.992188 -11.800781 3.921875 -11.59375 C 3.847656 -11.394531 3.8125 -11.070312 3.8125 -10.625 L 3.8125 -6.46875 L 4.984375 -6.46875 C 5.390625 -6.46875 5.703125 -6.5625 5.921875 -6.75 C 6.148438 -6.945312 6.300781 -7.175781 6.375 -7.4375 C 6.457031 -7.707031 6.519531 -8.039062 6.5625 -8.4375 L 6.625 -8.796875 L 7.03125 -8.796875 C 6.988281 -8.296875 6.96875 -7.742188 6.96875 -7.140625 L 6.96875 -6.28125 C 6.96875 -5.6875 7.003906 -4.851562 7.078125 -3.78125 L 6.671875 -3.78125 C 6.660156 -3.863281 6.625 -4.148438 6.5625 -4.640625 C 6.507812 -5.128906 6.347656 -5.492188 6.078125 -5.734375 C 5.816406 -5.984375 5.453125 -6.109375 4.984375 -6.109375 L 3.8125 -6.109375 L 3.8125 -1.875 C 3.8125 -1.425781 3.847656 -1.097656 3.921875 -0.890625 C 3.992188 -0.691406 4.125 -0.5625 4.3125 -0.5 C 4.507812 -0.4375 4.820312 -0.40625 5.25 -0.40625 L 6.53125 -0.40625 C 7.257812 -0.40625 7.816406 -0.5 8.203125 -0.6875 C 8.585938 -0.882812 8.867188 -1.195312 9.046875 -1.625 C 9.222656 -2.0625 9.347656 -2.695312 9.421875 -3.53125 L 9.828125 -3.53125 C 9.796875 -3.207031 9.78125 -2.785156 9.78125 -2.265625 Z M 9.78125 -2.265625 "/></g></g></g><g fill="#ffffff" fill-opacity="1"><g transform="translate(186.664293, 53.783125)"><g><path d="M 6.640625 -12.75 C 7.335938 -12.75 7.90625 -12.648438 8.34375 -12.453125 C 8.789062 -12.265625 9.28125 -11.976562 9.8125 -11.59375 C 9.96875 -11.476562 10.085938 -11.421875 10.171875 -11.421875 C 10.390625 -11.421875 10.535156 -11.78125 10.609375 -12.5 L 11.015625 -12.5 C 10.972656 -11.738281 10.953125 -10.382812 10.953125 -8.4375 L 10.546875 -8.4375 C 10.429688 -9.0625 10.316406 -9.578125 10.203125 -9.984375 C 10.085938 -10.390625 9.90625 -10.742188 9.65625 -11.046875 C 9.3125 -11.472656 8.863281 -11.8125 8.3125 -12.0625 C 7.769531 -12.3125 7.203125 -12.4375 6.609375 -12.4375 C 5.828125 -12.4375 5.140625 -12.179688 4.546875 -11.671875 C 3.960938 -11.160156 3.507812 -10.4375 3.1875 -9.5 C 2.875 -8.570312 2.71875 -7.484375 2.71875 -6.234375 C 2.71875 -4.109375 3.054688 -2.554688 3.734375 -1.578125 C 4.410156 -0.597656 5.472656 -0.109375 6.921875 -0.109375 C 7.628906 -0.109375 8.238281 -0.289062 8.75 -0.65625 C 8.96875 -0.789062 9.109375 -0.925781 9.171875 -1.0625 C 9.234375 -1.195312 9.265625 -1.382812 9.265625 -1.625 L 9.265625 -3.3125 C 9.265625 -3.8125 9.21875 -4.171875 9.125 -4.390625 C 9.03125 -4.617188 8.863281 -4.773438 8.625 -4.859375 C 8.394531 -4.941406 8.015625 -4.992188 7.484375 -5.015625 L 7.484375 -5.375 C 8.097656 -5.332031 8.925781 -5.3125 9.96875 -5.3125 C 10.769531 -5.3125 11.382812 -5.332031 11.8125 -5.375 L 11.8125 -5.015625 C 11.539062 -4.992188 11.34375 -4.945312 11.21875 -4.875 C 11.09375 -4.800781 11.007812 -4.664062 10.96875 -4.46875 C 10.925781 -4.269531 10.90625 -3.945312 10.90625 -3.5 L 10.90625 0 L 10.5625 0 C 10.550781 -0.238281 10.503906 -0.460938 10.421875 -0.671875 C 10.335938 -0.890625 10.222656 -1 10.078125 -1 C 10.003906 -1 9.929688 -0.984375 9.859375 -0.953125 C 9.796875 -0.921875 9.675781 -0.835938 9.5 -0.703125 C 9.082031 -0.390625 8.65625 -0.15625 8.21875 0 C 7.78125 0.164062 7.289062 0.25 6.75 0.25 C 5.53125 0.25 4.488281 0 3.625 -0.5 C 2.757812 -1 2.097656 -1.71875 1.640625 -2.65625 C 1.179688 -3.601562 0.953125 -4.726562 0.953125 -6.03125 C 0.953125 -7.375 1.195312 -8.554688 1.6875 -9.578125 C 2.175781 -10.597656 2.847656 -11.378906 3.703125 -11.921875 C 4.566406 -12.472656 5.546875 -12.75 6.640625 -12.75 Z M 6.640625 -12.75 "/></g></g></g><g fill="#ffffff" fill-opacity="1"><g transform="translate(199.072881, 53.783125)"><g><path d="M 9.78125 -2.265625 C 9.78125 -1.585938 9.820312 -0.832031 9.90625 0 C 9.101562 -0.03125 7.753906 -0.046875 5.859375 -0.046875 C 3.597656 -0.046875 1.890625 -0.03125 0.734375 0 L 0.734375 -0.359375 C 1.160156 -0.378906 1.46875 -0.421875 1.65625 -0.484375 C 1.851562 -0.554688 1.988281 -0.691406 2.0625 -0.890625 C 2.132812 -1.097656 2.171875 -1.425781 2.171875 -1.875 L 2.171875 -10.625 C 2.171875 -11.070312 2.132812 -11.394531 2.0625 -11.59375 C 1.988281 -11.800781 1.851562 -11.9375 1.65625 -12 C 1.46875 -12.070312 1.160156 -12.117188 0.734375 -12.140625 L 0.734375 -12.5 C 1.890625 -12.46875 3.597656 -12.453125 5.859375 -12.453125 C 7.585938 -12.453125 8.816406 -12.46875 9.546875 -12.5 C 9.460938 -11.71875 9.421875 -11.023438 9.421875 -10.421875 C 9.421875 -9.960938 9.441406 -9.597656 9.484375 -9.328125 L 9.078125 -9.328125 C 8.992188 -10.085938 8.882812 -10.648438 8.75 -11.015625 C 8.625 -11.390625 8.40625 -11.660156 8.09375 -11.828125 C 7.789062 -12.003906 7.328125 -12.09375 6.703125 -12.09375 L 5.25 -12.09375 C 4.820312 -12.09375 4.507812 -12.0625 4.3125 -12 C 4.125 -11.9375 3.992188 -11.800781 3.921875 -11.59375 C 3.847656 -11.394531 3.8125 -11.070312 3.8125 -10.625 L 3.8125 -6.46875 L 4.984375 -6.46875 C 5.390625 -6.46875 5.703125 -6.5625 5.921875 -6.75 C 6.148438 -6.945312 6.300781 -7.175781 6.375 -7.4375 C 6.457031 -7.707031 6.519531 -8.039062 6.5625 -8.4375 L 6.625 -8.796875 L 7.03125 -8.796875 C 6.988281 -8.296875 6.96875 -7.742188 6.96875 -7.140625 L 6.96875 -6.28125 C 6.96875 -5.6875 7.003906 -4.851562 7.078125 -3.78125 L 6.671875 -3.78125 C 6.660156 -3.863281 6.625 -4.148438 6.5625 -4.640625 C 6.507812 -5.128906 6.347656 -5.492188 6.078125 -5.734375 C 5.816406 -5.984375 5.453125 -6.109375 4.984375 -6.109375 L 3.8125 -6.109375 L 3.8125 -1.875 C 3.8125 -1.425781 3.847656 -1.097656 3.921875 -0.890625 C 3.992188 -0.691406 4.125 -0.5625 4.3125 -0.5 C 4.507812 -0.4375 4.820312 -0.40625 5.25 -0.40625 L 6.53125 -0.40625 C 7.257812 -0.40625 7.816406 -0.5 8.203125 -0.6875 C 8.585938 -0.882812 8.867188 -1.195312 9.046875 -1.625 C 9.222656 -2.0625 9.347656 -2.695312 9.421875 -3.53125 L 9.828125 -3.53125 C 9.796875 -3.207031 9.78125 -2.785156 9.78125 -2.265625 Z M 9.78125 -2.265625 "/></g></g></g><g fill="#ffffff" fill-opacity="1"><g transform="translate(209.822288, 53.783125)"><g><path d="M 11.828125 -12.140625 C 11.421875 -12.117188 11.113281 -12.054688 10.90625 -11.953125 C 10.707031 -11.859375 10.570312 -11.695312 10.5 -11.46875 C 10.4375 -11.238281 10.40625 -10.898438 10.40625 -10.453125 L 10.40625 0.09375 L 10 0.09375 L 2.578125 -11.375 L 2.578125 -2.046875 C 2.578125 -1.585938 2.613281 -1.242188 2.6875 -1.015625 C 2.769531 -0.796875 2.921875 -0.632812 3.140625 -0.53125 C 3.367188 -0.4375 3.71875 -0.378906 4.1875 -0.359375 L 4.1875 0 C 3.757812 -0.03125 3.160156 -0.046875 2.390625 -0.046875 C 1.679688 -0.046875 1.128906 -0.03125 0.734375 0 L 0.734375 -0.359375 C 1.148438 -0.378906 1.457031 -0.4375 1.65625 -0.53125 C 1.851562 -0.632812 1.988281 -0.800781 2.0625 -1.03125 C 2.132812 -1.257812 2.171875 -1.597656 2.171875 -2.046875 L 2.171875 -10.625 C 2.171875 -11.070312 2.132812 -11.394531 2.0625 -11.59375 C 1.988281 -11.800781 1.851562 -11.9375 1.65625 -12 C 1.46875 -12.070312 1.160156 -12.117188 0.734375 -12.140625 L 0.734375 -12.5 C 1.128906 -12.46875 1.679688 -12.453125 2.390625 -12.453125 C 2.910156 -12.453125 3.367188 -12.46875 3.765625 -12.5 L 10 -2.890625 L 10 -10.453125 C 10 -10.910156 9.957031 -11.25 9.875 -11.46875 C 9.800781 -11.695312 9.648438 -11.859375 9.421875 -11.953125 C 9.203125 -12.054688 8.859375 -12.117188 8.390625 -12.140625 L 8.390625 -12.5 C 8.804688 -12.46875 9.40625 -12.453125 10.1875 -12.453125 C 10.894531 -12.453125 11.441406 -12.46875 11.828125 -12.5 Z M 11.828125 -12.140625 "/></g></g></g><g fill="#ffffff" fill-opacity="1"><g transform="translate(222.283833, 53.783125)"><g><path d="M 5.25 -12.140625 C 4.820312 -12.117188 4.507812 -12.070312 4.3125 -12 C 4.125 -11.9375 3.992188 -11.800781 3.921875 -11.59375 C 3.847656 -11.394531 3.8125 -11.070312 3.8125 -10.625 L 3.8125 -1.875 C 3.8125 -1.425781 3.847656 -1.097656 3.921875 -0.890625 C 3.992188 -0.691406 4.125 -0.554688 4.3125 -0.484375 C 4.507812 -0.421875 4.820312 -0.378906 5.25 -0.359375 L 5.25 0 C 4.707031 -0.03125 3.957031 -0.046875 3 -0.046875 C 1.988281 -0.046875 1.234375 -0.03125 0.734375 0 L 0.734375 -0.359375 C 1.160156 -0.378906 1.46875 -0.421875 1.65625 -0.484375 C 1.851562 -0.554688 1.988281 -0.691406 2.0625 -0.890625 C 2.132812 -1.097656 2.171875 -1.425781 2.171875 -1.875 L 2.171875 -10.625 C 2.171875 -11.070312 2.132812 -11.394531 2.0625 -11.59375 C 1.988281 -11.800781 1.851562 -11.9375 1.65625 -12 C 1.46875 -12.070312 1.160156 -12.117188 0.734375 -12.140625 L 0.734375 -12.5 C 1.234375 -12.46875 1.988281 -12.453125 3 -12.453125 C 3.945312 -12.453125 4.695312 -12.46875 5.25 -12.5 Z M 5.25 -12.140625 "/></g></g></g><g fill="#ffffff" fill-opacity="1"><g transform="translate(228.267495, 53.783125)"><g><path d="M 9.78125 -2.265625 C 9.78125 -1.585938 9.820312 -0.832031 9.90625 0 C 9.101562 -0.03125 7.753906 -0.046875 5.859375 -0.046875 C 3.597656 -0.046875 1.890625 -0.03125 0.734375 0 L 0.734375 -0.359375 C 1.160156 -0.378906 1.46875 -0.421875 1.65625 -0.484375 C 1.851562 -0.554688 1.988281 -0.691406 2.0625 -0.890625 C 2.132812 -1.097656 2.171875 -1.425781 2.171875 -1.875 L 2.171875 -10.625 C 2.171875 -11.070312 2.132812 -11.394531 2.0625 -11.59375 C 1.988281 -11.800781 1.851562 -11.9375 1.65625 -12 C 1.46875 -12.070312 1.160156 -12.117188 0.734375 -12.140625 L 0.734375 -12.5 C 1.890625 -12.46875 3.597656 -12.453125 5.859375 -12.453125 C 7.585938 -12.453125 8.816406 -12.46875 9.546875 -12.5 C 9.460938 -11.71875 9.421875 -11.023438 9.421875 -10.421875 C 9.421875 -9.960938 9.441406 -9.597656 9.484375 -9.328125 L 9.078125 -9.328125 C 8.992188 -10.085938 8.882812 -10.648438 8.75 -11.015625 C 8.625 -11.390625 8.40625 -11.660156 8.09375 -11.828125 C 7.789062 -12.003906 7.328125 -12.09375 6.703125 -12.09375 L 5.25 -12.09375 C 4.820312 -12.09375 4.507812 -12.0625 4.3125 -12 C 4.125 -11.9375 3.992188 -11.800781 3.921875 -11.59375 C 3.847656 -11.394531 3.8125 -11.070312 3.8125 -10.625 L 3.8125 -6.46875 L 4.984375 -6.46875 C 5.390625 -6.46875 5.703125 -6.5625 5.921875 -6.75 C 6.148438 -6.945312 6.300781 -7.175781 6.375 -7.4375 C 6.457031 -7.707031 6.519531 -8.039062 6.5625 -8.4375 L 6.625 -8.796875 L 7.03125 -8.796875 C 6.988281 -8.296875 6.96875 -7.742188 6.96875 -7.140625 L 6.96875 -6.28125 C 6.96875 -5.6875 7.003906 -4.851562 7.078125 -3.78125 L 6.671875 -3.78125 C 6.660156 -3.863281 6.625 -4.148438 6.5625 -4.640625 C 6.507812 -5.128906 6.347656 -5.492188 6.078125 -5.734375 C 5.816406 -5.984375 5.453125 -6.109375 4.984375 -6.109375 L 3.8125 -6.109375 L 3.8125 -1.875 C 3.8125 -1.425781 3.847656 -1.097656 3.921875 -0.890625 C 3.992188 -0.691406 4.125 -0.5625 4.3125 -0.5 C 4.507812 -0.4375 4.820312 -0.40625 5.25 -0.40625 L 6.53125 -0.40625 C 7.257812 -0.40625 7.816406 -0.5 8.203125 -0.6875 C 8.585938 -0.882812 8.867188 -1.195312 9.046875 -1.625 C 9.222656 -2.0625 9.347656 -2.695312 9.421875 -3.53125 L 9.828125 -3.53125 C 9.796875 -3.207031 9.78125 -2.785156 9.78125 -2.265625 Z M 9.78125 -2.265625 "/></g></g></g><g fill="#ffffff" fill-opacity="1"><g transform="translate(239.016902, 53.783125)"><g/></g></g><g fill="#ffffff" fill-opacity="1"><g transform="translate(243.411975, 53.783125)"><g><path d="M 4.515625 -12.6875 C 5.035156 -12.6875 5.445312 -12.628906 5.75 -12.515625 C 6.050781 -12.410156 6.359375 -12.253906 6.671875 -12.046875 C 6.929688 -11.878906 7.132812 -11.796875 7.28125 -11.796875 C 7.382812 -11.796875 7.460938 -11.859375 7.515625 -11.984375 C 7.578125 -12.109375 7.625 -12.304688 7.65625 -12.578125 L 8.0625 -12.578125 C 8.007812 -11.890625 7.984375 -10.6875 7.984375 -8.96875 L 7.578125 -8.96875 C 7.503906 -9.925781 7.226562 -10.726562 6.75 -11.375 C 6.269531 -12.03125 5.578125 -12.359375 4.671875 -12.359375 C 4.035156 -12.359375 3.519531 -12.164062 3.125 -11.78125 C 2.726562 -11.40625 2.53125 -10.914062 2.53125 -10.3125 C 2.53125 -9.863281 2.628906 -9.472656 2.828125 -9.140625 C 3.035156 -8.816406 3.296875 -8.535156 3.609375 -8.296875 C 3.929688 -8.066406 4.390625 -7.765625 4.984375 -7.390625 L 5.484375 -7.078125 C 6.234375 -6.617188 6.820312 -6.210938 7.25 -5.859375 C 7.675781 -5.515625 8.019531 -5.117188 8.28125 -4.671875 C 8.539062 -4.234375 8.671875 -3.710938 8.671875 -3.109375 C 8.671875 -2.035156 8.316406 -1.207031 7.609375 -0.625 C 6.898438 -0.0390625 6.003906 0.25 4.921875 0.25 C 4.359375 0.25 3.894531 0.1875 3.53125 0.0625 C 3.175781 -0.0507812 2.832031 -0.207031 2.5 -0.40625 C 2.25 -0.570312 2.050781 -0.65625 1.90625 -0.65625 C 1.800781 -0.65625 1.71875 -0.59375 1.65625 -0.46875 C 1.601562 -0.34375 1.554688 -0.144531 1.515625 0.125 L 1.109375 0.125 C 1.160156 -0.519531 1.1875 -1.929688 1.1875 -4.109375 L 1.59375 -4.109375 C 1.675781 -2.921875 1.96875 -1.957031 2.46875 -1.21875 C 2.976562 -0.476562 3.753906 -0.109375 4.796875 -0.109375 C 5.429688 -0.109375 5.972656 -0.300781 6.421875 -0.6875 C 6.867188 -1.082031 7.09375 -1.671875 7.09375 -2.453125 C 7.09375 -3.109375 6.875 -3.664062 6.4375 -4.125 C 6 -4.582031 5.300781 -5.101562 4.34375 -5.6875 C 3.644531 -6.113281 3.082031 -6.488281 2.65625 -6.8125 C 2.226562 -7.144531 1.878906 -7.539062 1.609375 -8 C 1.335938 -8.46875 1.203125 -9.015625 1.203125 -9.640625 C 1.203125 -10.628906 1.519531 -11.382812 2.15625 -11.90625 C 2.789062 -12.425781 3.578125 -12.6875 4.515625 -12.6875 Z M 4.515625 -12.6875 "/></g></g></g><g fill="#ffffff" fill-opacity="1"><g transform="translate(252.943464, 53.783125)"><g><path d="M 10.453125 -12.5 C 10.367188 -11.664062 10.328125 -10.910156 10.328125 -10.234375 C 10.328125 -9.648438 10.34375 -9.171875 10.375 -8.796875 L 9.96875 -8.796875 C 9.875 -9.703125 9.753906 -10.375 9.609375 -10.8125 C 9.472656 -11.257812 9.226562 -11.582031 8.875 -11.78125 C 8.519531 -11.988281 7.976562 -12.09375 7.25 -12.09375 L 6.296875 -12.09375 L 6.296875 -2.046875 C 6.296875 -1.554688 6.34375 -1.195312 6.4375 -0.96875 C 6.53125 -0.75 6.695312 -0.597656 6.9375 -0.515625 C 7.175781 -0.429688 7.5625 -0.378906 8.09375 -0.359375 L 8.09375 0 C 7.476562 -0.03125 6.609375 -0.046875 5.484375 -0.046875 C 4.304688 -0.046875 3.4375 -0.03125 2.875 0 L 2.875 -0.359375 C 3.40625 -0.378906 3.785156 -0.429688 4.015625 -0.515625 C 4.253906 -0.597656 4.421875 -0.75 4.515625 -0.96875 C 4.609375 -1.195312 4.65625 -1.554688 4.65625 -2.046875 L 4.65625 -12.09375 L 3.703125 -12.09375 C 2.972656 -12.09375 2.429688 -11.988281 2.078125 -11.78125 C 1.722656 -11.582031 1.472656 -11.257812 1.328125 -10.8125 C 1.191406 -10.375 1.078125 -9.703125 0.984375 -8.796875 L 0.578125 -8.796875 C 0.617188 -9.171875 0.640625 -9.648438 0.640625 -10.234375 C 0.640625 -10.910156 0.597656 -11.664062 0.515625 -12.5 C 1.492188 -12.46875 3.148438 -12.453125 5.484375 -12.453125 C 7.816406 -12.453125 9.472656 -12.46875 10.453125 -12.5 Z M 10.453125 -12.5 "/></g></g></g><g fill="#ffffff" fill-opacity="1"><g transform="translate(263.90468, 53.783125)"><g><path d="M 11.5625 -12.140625 C 11.15625 -12.117188 10.847656 -12.054688 10.640625 -11.953125 C 10.441406 -11.859375 10.304688 -11.695312 10.234375 -11.46875 C 10.171875 -11.238281 10.140625 -10.898438 10.140625 -10.453125 L 10.140625 -5.140625 C 10.140625 -4.285156 10.082031 -3.554688 9.96875 -2.953125 C 9.851562 -2.347656 9.664062 -1.828125 9.40625 -1.390625 C 9.113281 -0.890625 8.679688 -0.488281 8.109375 -0.1875 C 7.535156 0.101562 6.894531 0.25 6.1875 0.25 C 4.882812 0.25 3.894531 -0.0664062 3.21875 -0.703125 C 2.695312 -1.191406 2.347656 -1.738281 2.171875 -2.34375 C 1.992188 -2.957031 1.90625 -3.867188 1.90625 -5.078125 L 1.90625 -10.625 C 1.90625 -11.070312 1.867188 -11.394531 1.796875 -11.59375 C 1.722656 -11.800781 1.585938 -11.9375 1.390625 -12 C 1.203125 -12.070312 0.898438 -12.117188 0.484375 -12.140625 L 0.484375 -12.5 C 0.972656 -12.46875 1.722656 -12.453125 2.734375 -12.453125 C 3.691406 -12.453125 4.441406 -12.46875 4.984375 -12.5 L 4.984375 -12.140625 C 4.554688 -12.117188 4.242188 -12.070312 4.046875 -12 C 3.859375 -11.9375 3.726562 -11.800781 3.65625 -11.59375 C 3.582031 -11.394531 3.546875 -11.070312 3.546875 -10.625 L 3.546875 -4.78125 C 3.546875 -3.84375 3.609375 -3.0625 3.734375 -2.4375 C 3.867188 -1.8125 4.140625 -1.3125 4.546875 -0.9375 C 4.953125 -0.5625 5.550781 -0.375 6.34375 -0.375 C 7.582031 -0.375 8.457031 -0.769531 8.96875 -1.5625 C 9.476562 -2.363281 9.734375 -3.488281 9.734375 -4.9375 L 9.734375 -10.453125 C 9.734375 -11.085938 9.617188 -11.519531 9.390625 -11.75 C 9.160156 -11.988281 8.738281 -12.117188 8.125 -12.140625 L 8.125 -12.5 C 8.539062 -12.46875 9.140625 -12.453125 9.921875 -12.453125 C 10.628906 -12.453125 11.175781 -12.46875 11.5625 -12.5 Z M 11.5625 -12.140625 "/></g></g></g><g fill="#ffffff" fill-opacity="1"><g transform="translate(275.942607, 53.783125)"><g><path d="M 5.5625 -12.5 C 7.644531 -12.5 9.203125 -11.976562 10.234375 -10.9375 C 11.273438 -9.894531 11.796875 -8.378906 11.796875 -6.390625 C 11.796875 -5.109375 11.539062 -3.984375 11.03125 -3.015625 C 10.53125 -2.054688 9.796875 -1.3125 8.828125 -0.78125 C 7.867188 -0.257812 6.726562 0 5.40625 0 L 4.375 -0.015625 C 3.71875 -0.0351562 3.238281 -0.046875 2.9375 -0.046875 C 1.96875 -0.046875 1.234375 -0.03125 0.734375 0 L 0.734375 -0.359375 C 1.160156 -0.378906 1.46875 -0.421875 1.65625 -0.484375 C 1.851562 -0.554688 1.988281 -0.691406 2.0625 -0.890625 C 2.132812 -1.097656 2.171875 -1.425781 2.171875 -1.875 L 2.171875 -10.625 C 2.171875 -11.070312 2.132812 -11.394531 2.0625 -11.59375 C 1.988281 -11.800781 1.851562 -11.9375 1.65625 -12 C 1.46875 -12.070312 1.160156 -12.117188 0.734375 -12.140625 L 0.734375 -12.5 C 1.148438 -12.46875 1.722656 -12.453125 2.453125 -12.453125 L 3.953125 -12.46875 C 4.753906 -12.488281 5.289062 -12.5 5.5625 -12.5 Z M 5.125 -12.1875 C 4.757812 -12.1875 4.484375 -12.144531 4.296875 -12.0625 C 4.117188 -11.976562 3.992188 -11.828125 3.921875 -11.609375 C 3.847656 -11.398438 3.8125 -11.085938 3.8125 -10.671875 L 3.8125 -1.84375 C 3.8125 -1.414062 3.847656 -1.09375 3.921875 -0.875 C 3.992188 -0.664062 4.117188 -0.519531 4.296875 -0.4375 C 4.484375 -0.351562 4.765625 -0.3125 5.140625 -0.3125 C 6.390625 -0.3125 7.367188 -0.535156 8.078125 -0.984375 C 8.796875 -1.441406 9.300781 -2.109375 9.59375 -2.984375 C 9.882812 -3.859375 10.03125 -4.972656 10.03125 -6.328125 C 10.03125 -7.671875 9.867188 -8.769531 9.546875 -9.625 C 9.234375 -10.476562 8.71875 -11.117188 8 -11.546875 C 7.289062 -11.972656 6.332031 -12.1875 5.125 -12.1875 Z M 5.125 -12.1875 "/></g></g></g><g fill="#ffffff" fill-opacity="1"><g transform="translate(288.70422, 53.783125)"><g><path d="M 5.25 -12.140625 C 4.820312 -12.117188 4.507812 -12.070312 4.3125 -12 C 4.125 -11.9375 3.992188 -11.800781 3.921875 -11.59375 C 3.847656 -11.394531 3.8125 -11.070312 3.8125 -10.625 L 3.8125 -1.875 C 3.8125 -1.425781 3.847656 -1.097656 3.921875 -0.890625 C 3.992188 -0.691406 4.125 -0.554688 4.3125 -0.484375 C 4.507812 -0.421875 4.820312 -0.378906 5.25 -0.359375 L 5.25 0 C 4.707031 -0.03125 3.957031 -0.046875 3 -0.046875 C 1.988281 -0.046875 1.234375 -0.03125 0.734375 0 L 0.734375 -0.359375 C 1.160156 -0.378906 1.46875 -0.421875 1.65625 -0.484375 C 1.851562 -0.554688 1.988281 -0.691406 2.0625 -0.890625 C 2.132812 -1.097656 2.171875 -1.425781 2.171875 -1.875 L 2.171875 -10.625 C 2.171875 -11.070312 2.132812 -11.394531 2.0625 -11.59375 C 1.988281 -11.800781 1.851562 -11.9375 1.65625 -12 C 1.46875 -12.070312 1.160156 -12.117188 0.734375 -12.140625 L 0.734375 -12.5 C 1.234375 -12.46875 1.988281 -12.453125 3 -12.453125 C 3.945312 -12.453125 4.695312 -12.46875 5.25 -12.5 Z M 5.25 -12.140625 "/></g></g></g><g fill="#ffffff" fill-opacity="1"><g transform="translate(294.687882, 53.783125)"><g><path d="M 6.546875 -12.75 C 7.671875 -12.75 8.648438 -12.492188 9.484375 -11.984375 C 10.328125 -11.484375 10.976562 -10.75 11.4375 -9.78125 C 11.90625 -8.820312 12.140625 -7.679688 12.140625 -6.359375 C 12.140625 -5.066406 11.898438 -3.914062 11.421875 -2.90625 C 10.953125 -1.90625 10.289062 -1.128906 9.4375 -0.578125 C 8.582031 -0.0234375 7.613281 0.25 6.53125 0.25 C 5.414062 0.25 4.4375 0 3.59375 -0.5 C 2.75 -1.007812 2.09375 -1.742188 1.625 -2.703125 C 1.164062 -3.671875 0.9375 -4.816406 0.9375 -6.140625 C 0.9375 -7.441406 1.171875 -8.59375 1.640625 -9.59375 C 2.117188 -10.59375 2.785156 -11.367188 3.640625 -11.921875 C 4.492188 -12.472656 5.460938 -12.75 6.546875 -12.75 Z M 6.484375 -12.4375 C 5.722656 -12.4375 5.054688 -12.171875 4.484375 -11.640625 C 3.921875 -11.117188 3.484375 -10.382812 3.171875 -9.4375 C 2.859375 -8.5 2.703125 -7.425781 2.703125 -6.21875 C 2.703125 -4.988281 2.875 -3.910156 3.21875 -2.984375 C 3.570312 -2.054688 4.039062 -1.335938 4.625 -0.828125 C 5.21875 -0.328125 5.878906 -0.078125 6.609375 -0.078125 C 7.359375 -0.078125 8.019531 -0.335938 8.59375 -0.859375 C 9.164062 -1.378906 9.601562 -2.109375 9.90625 -3.046875 C 10.21875 -3.992188 10.375 -5.070312 10.375 -6.28125 C 10.375 -7.507812 10.203125 -8.585938 9.859375 -9.515625 C 9.515625 -10.441406 9.046875 -11.160156 8.453125 -11.671875 C 7.867188 -12.179688 7.210938 -12.4375 6.484375 -12.4375 Z M 6.484375 -12.4375 "/></g></g></g><g fill="#ffffff" fill-opacity="1"><g transform="translate(307.767208, 53.783125)"><g><path d="M 4.515625 -12.6875 C 5.035156 -12.6875 5.445312 -12.628906 5.75 -12.515625 C 6.050781 -12.410156 6.359375 -12.253906 6.671875 -12.046875 C 6.929688 -11.878906 7.132812 -11.796875 7.28125 -11.796875 C 7.382812 -11.796875 7.460938 -11.859375 7.515625 -11.984375 C 7.578125 -12.109375 7.625 -12.304688 7.65625 -12.578125 L 8.0625 -12.578125 C 8.007812 -11.890625 7.984375 -10.6875 7.984375 -8.96875 L 7.578125 -8.96875 C 7.503906 -9.925781 7.226562 -10.726562 6.75 -11.375 C 6.269531 -12.03125 5.578125 -12.359375 4.671875 -12.359375 C 4.035156 -12.359375 3.519531 -12.164062 3.125 -11.78125 C 2.726562 -11.40625 2.53125 -10.914062 2.53125 -10.3125 C 2.53125 -9.863281 2.628906 -9.472656 2.828125 -9.140625 C 3.035156 -8.816406 3.296875 -8.535156 3.609375 -8.296875 C 3.929688 -8.066406 4.390625 -7.765625 4.984375 -7.390625 L 5.484375 -7.078125 C 6.234375 -6.617188 6.820312 -6.210938 7.25 -5.859375 C 7.675781 -5.515625 8.019531 -5.117188 8.28125 -4.671875 C 8.539062 -4.234375 8.671875 -3.710938 8.671875 -3.109375 C 8.671875 -2.035156 8.316406 -1.207031 7.609375 -0.625 C 6.898438 -0.0390625 6.003906 0.25 4.921875 0.25 C 4.359375 0.25 3.894531 0.1875 3.53125 0.0625 C 3.175781 -0.0507812 2.832031 -0.207031 2.5 -0.40625 C 2.25 -0.570312 2.050781 -0.65625 1.90625 -0.65625 C 1.800781 -0.65625 1.71875 -0.59375 1.65625 -0.46875 C 1.601562 -0.34375 1.554688 -0.144531 1.515625 0.125 L 1.109375 0.125 C 1.160156 -0.519531 1.1875 -1.929688 1.1875 -4.109375 L 1.59375 -4.109375 C 1.675781 -2.921875 1.96875 -1.957031 2.46875 -1.21875 C 2.976562 -0.476562 3.753906 -0.109375 4.796875 -0.109375 C 5.429688 -0.109375 5.972656 -0.300781 6.421875 -0.6875 C 6.867188 -1.082031 7.09375 -1.671875 7.09375 -2.453125 C 7.09375 -3.109375 6.875 -3.664062 6.4375 -4.125 C 6 -4.582031 5.300781 -5.101562 4.34375 -5.6875 C 3.644531 -6.113281 3.082031 -6.488281 2.65625 -6.8125 C 2.226562 -7.144531 1.878906 -7.539062 1.609375 -8 C 1.335938 -8.46875 1.203125 -9.015625 1.203125 -9.640625 C 1.203125 -10.628906 1.519531 -11.382812 2.15625 -11.90625 C 2.789062 -12.425781 3.578125 -12.6875 4.515625 -12.6875 Z M 4.515625 -12.6875 "/></g></g></g><g fill="#ffffff" fill-opacity="1"><g transform="translate(155.161788, 70.655929)"><g><path d="M 2.71875 -4.75 C 3.050781 -4.75 3.375 -4.679688 3.6875 -4.546875 C 4.007812 -4.421875 4.285156 -4.242188 4.515625 -4.015625 L 4.046875 -3.4375 C 3.867188 -3.625 3.660156 -3.769531 3.421875 -3.875 C 3.191406 -3.976562 2.960938 -4.03125 2.734375 -4.03125 C 2.253906 -4.03125 1.851562 -3.867188 1.53125 -3.546875 C 1.207031 -3.234375 1.046875 -2.84375 1.046875 -2.375 C 1.046875 -1.90625 1.207031 -1.507812 1.53125 -1.1875 C 1.851562 -0.863281 2.253906 -0.703125 2.734375 -0.703125 C 3.222656 -0.703125 3.660156 -0.890625 4.046875 -1.265625 L 4.515625 -0.75 C 4.273438 -0.507812 3.988281 -0.316406 3.65625 -0.171875 C 3.332031 -0.0351562 3.007812 0.03125 2.6875 0.03125 C 1.988281 0.03125 1.40625 -0.195312 0.9375 -0.65625 C 0.46875 -1.113281 0.234375 -1.6875 0.234375 -2.375 C 0.234375 -3.039062 0.472656 -3.601562 0.953125 -4.0625 C 1.429688 -4.519531 2.019531 -4.75 2.71875 -4.75 Z M 2.71875 -4.75 "/></g></g></g><g fill="#ffffff" fill-opacity="1"><g transform="translate(163.919801, 70.655929)"><g><path d="M 3.625 0 L 2.75 -1.4375 C 2.707031 -1.425781 2.632812 -1.421875 2.53125 -1.421875 L 1.421875 -1.421875 L 1.421875 0 L 0.625 0 L 0.625 -4.71875 L 2.53125 -4.71875 C 3.132812 -4.71875 3.601562 -4.578125 3.9375 -4.296875 C 4.269531 -4.015625 4.4375 -3.617188 4.4375 -3.109375 C 4.4375 -2.734375 4.351562 -2.414062 4.1875 -2.15625 C 4.019531 -1.894531 3.78125 -1.703125 3.46875 -1.578125 L 4.515625 0 Z M 1.421875 -2.140625 L 2.53125 -2.140625 C 3.300781 -2.140625 3.6875 -2.457031 3.6875 -3.09375 C 3.6875 -3.707031 3.300781 -4.015625 2.53125 -4.015625 L 1.421875 -4.015625 Z M 1.421875 -2.140625 "/></g></g></g><g fill="#ffffff" fill-opacity="1"><g transform="translate(172.853377, 70.655929)"><g><path d="M 4 -4.015625 L 1.421875 -4.015625 L 1.421875 -2.734375 L 3.71875 -2.734375 L 3.71875 -2.015625 L 1.421875 -2.015625 L 1.421875 -0.71875 L 4.078125 -0.71875 L 4.078125 0 L 0.625 0 L 0.625 -4.71875 L 4 -4.71875 Z M 4 -4.015625 "/></g></g></g><g fill="#ffffff" fill-opacity="1"><g transform="translate(181.334535, 70.655929)"><g><path d="M 3.671875 -1.0625 L 1.296875 -1.0625 L 0.84375 0 L 0 0 L 2.09375 -4.71875 L 2.90625 -4.71875 L 4.96875 0 L 4.125 0 Z M 3.375 -1.78125 L 2.484375 -3.875 L 1.59375 -1.78125 Z M 3.375 -1.78125 "/></g></g></g><g fill="#ffffff" fill-opacity="1"><g transform="translate(190.369404, 70.655929)"><g><path d="M 3.84375 -4.015625 L 2.34375 -4.015625 L 2.34375 0 L 1.546875 0 L 1.546875 -4.015625 L 0.0625 -4.015625 L 0.0625 -4.71875 L 3.84375 -4.71875 Z M 3.84375 -4.015625 "/></g></g></g><g fill="#ffffff" fill-opacity="1"><g transform="translate(198.330615, 70.655929)"><g><path d="M 1.421875 0 L 0.625 0 L 0.625 -4.71875 L 1.421875 -4.71875 Z M 1.421875 0 "/></g></g></g><g fill="#ffffff" fill-opacity="1"><g transform="translate(204.421373, 70.655929)"><g><path d="M 2.734375 0 L 1.90625 0 L 0.015625 -4.71875 L 0.875 -4.71875 L 2.328125 -0.890625 L 3.8125 -4.71875 L 4.640625 -4.71875 Z M 2.734375 0 "/></g></g></g><g fill="#ffffff" fill-opacity="1"><g transform="translate(213.132117, 70.655929)"><g><path d="M 4 -4.015625 L 1.421875 -4.015625 L 1.421875 -2.734375 L 3.71875 -2.734375 L 3.71875 -2.015625 L 1.421875 -2.015625 L 1.421875 -0.71875 L 4.078125 -0.71875 L 4.078125 0 L 0.625 0 L 0.625 -4.71875 L 4 -4.71875 Z M 4 -4.015625 "/></g></g></g><g fill="#ffffff" fill-opacity="1"><g transform="translate(221.613274, 70.655929)"><g/></g></g><g fill="#ffffff" fill-opacity="1"><g transform="translate(227.406922, 70.655929)"><g><path d="M 2.171875 -4.765625 C 2.785156 -4.765625 3.335938 -4.597656 3.828125 -4.265625 L 3.5 -3.578125 C 3.019531 -3.867188 2.554688 -4.015625 2.109375 -4.015625 C 1.867188 -4.015625 1.679688 -3.96875 1.546875 -3.875 C 1.410156 -3.789062 1.34375 -3.671875 1.34375 -3.515625 C 1.34375 -3.359375 1.40625 -3.222656 1.53125 -3.109375 C 1.65625 -3.003906 1.8125 -2.925781 2 -2.875 C 2.1875 -2.820312 2.390625 -2.753906 2.609375 -2.671875 C 2.835938 -2.597656 3.046875 -2.515625 3.234375 -2.421875 C 3.421875 -2.335938 3.578125 -2.203125 3.703125 -2.015625 C 3.828125 -1.828125 3.890625 -1.601562 3.890625 -1.34375 C 3.890625 -0.925781 3.722656 -0.59375 3.390625 -0.34375 C 3.054688 -0.09375 2.628906 0.03125 2.109375 0.03125 C 1.742188 0.03125 1.390625 -0.0351562 1.046875 -0.171875 C 0.710938 -0.304688 0.421875 -0.488281 0.171875 -0.71875 L 0.515625 -1.40625 C 0.753906 -1.1875 1.015625 -1.015625 1.296875 -0.890625 C 1.585938 -0.773438 1.863281 -0.71875 2.125 -0.71875 C 2.394531 -0.71875 2.609375 -0.769531 2.765625 -0.875 C 2.921875 -0.976562 3 -1.117188 3 -1.296875 C 3 -1.453125 2.9375 -1.585938 2.8125 -1.703125 C 2.6875 -1.816406 2.53125 -1.898438 2.34375 -1.953125 C 2.15625 -2.003906 1.945312 -2.066406 1.71875 -2.140625 C 1.5 -2.210938 1.296875 -2.289062 1.109375 -2.375 C 0.921875 -2.457031 0.765625 -2.585938 0.640625 -2.765625 C 0.515625 -2.953125 0.453125 -3.175781 0.453125 -3.4375 C 0.453125 -3.84375 0.609375 -4.164062 0.921875 -4.40625 C 1.234375 -4.644531 1.648438 -4.765625 2.171875 -4.765625 Z M 2.171875 -4.765625 "/></g></g></g><g fill="#ffffff" fill-opacity="1"><g transform="translate(235.658492, 70.655929)"><g><path d="M 0.953125 -4.0625 C 1.429688 -4.519531 2.023438 -4.75 2.734375 -4.75 C 3.441406 -4.75 4.035156 -4.519531 4.515625 -4.0625 C 4.992188 -3.601562 5.234375 -3.035156 5.234375 -2.359375 C 5.234375 -1.679688 4.992188 -1.113281 4.515625 -0.65625 C 4.035156 -0.195312 3.441406 0.03125 2.734375 0.03125 C 2.023438 0.03125 1.429688 -0.195312 0.953125 -0.65625 C 0.472656 -1.113281 0.234375 -1.679688 0.234375 -2.359375 C 0.234375 -3.035156 0.472656 -3.601562 0.953125 -4.0625 Z M 2.734375 -4.03125 C 2.265625 -4.03125 1.863281 -3.867188 1.53125 -3.546875 C 1.207031 -3.222656 1.046875 -2.828125 1.046875 -2.359375 C 1.046875 -1.890625 1.210938 -1.492188 1.546875 -1.171875 C 1.878906 -0.847656 2.273438 -0.6875 2.734375 -0.6875 C 3.203125 -0.6875 3.597656 -0.847656 3.921875 -1.171875 C 4.253906 -1.492188 4.421875 -1.890625 4.421875 -2.359375 C 4.421875 -2.828125 4.253906 -3.222656 3.921875 -3.546875 C 3.597656 -3.867188 3.203125 -4.03125 2.734375 -4.03125 Z M 2.734375 -4.03125 "/></g></g></g><g fill="#ffffff" fill-opacity="1"><g transform="translate(245.179536, 70.655929)"><g><path d="M 1.421875 -0.71875 L 3.46875 -0.71875 L 3.46875 0 L 0.625 0 L 0.625 -4.71875 L 1.421875 -4.71875 Z M 1.421875 -0.71875 "/></g></g></g><g fill="#ffffff" fill-opacity="1"><g transform="translate(252.836887, 70.655929)"><g><path d="M 4.640625 -4.71875 L 4.640625 -1.953125 C 4.640625 -1.335938 4.457031 -0.851562 4.09375 -0.5 C 3.726562 -0.144531 3.222656 0.03125 2.578125 0.03125 C 1.941406 0.03125 1.441406 -0.144531 1.078125 -0.5 C 0.710938 -0.851562 0.53125 -1.335938 0.53125 -1.953125 L 0.53125 -4.71875 L 1.328125 -4.71875 L 1.328125 -1.953125 C 1.328125 -1.554688 1.4375 -1.242188 1.65625 -1.015625 C 1.882812 -0.796875 2.195312 -0.6875 2.59375 -0.6875 C 2.976562 -0.6875 3.28125 -0.796875 3.5 -1.015625 C 3.726562 -1.242188 3.84375 -1.554688 3.84375 -1.953125 L 3.84375 -4.71875 Z M 4.640625 -4.71875 "/></g></g></g><g fill="#ffffff" fill-opacity="1"><g transform="translate(262.047316, 70.655929)"><g><path d="M 3.84375 -4.015625 L 2.34375 -4.015625 L 2.34375 0 L 1.546875 0 L 1.546875 -4.015625 L 0.0625 -4.015625 L 0.0625 -4.71875 L 3.84375 -4.71875 Z M 3.84375 -4.015625 "/></g></g></g><g fill="#ffffff" fill-opacity="1"><g transform="translate(270.008525, 70.655929)"><g><path d="M 1.421875 0 L 0.625 0 L 0.625 -4.71875 L 1.421875 -4.71875 Z M 1.421875 0 "/></g></g></g><g fill="#ffffff" fill-opacity="1"><g transform="translate(276.099283, 70.655929)"><g><path d="M 0.953125 -4.0625 C 1.429688 -4.519531 2.023438 -4.75 2.734375 -4.75 C 3.441406 -4.75 4.035156 -4.519531 4.515625 -4.0625 C 4.992188 -3.601562 5.234375 -3.035156 5.234375 -2.359375 C 5.234375 -1.679688 4.992188 -1.113281 4.515625 -0.65625 C 4.035156 -0.195312 3.441406 0.03125 2.734375 0.03125 C 2.023438 0.03125 1.429688 -0.195312 0.953125 -0.65625 C 0.472656 -1.113281 0.234375 -1.679688 0.234375 -2.359375 C 0.234375 -3.035156 0.472656 -3.601562 0.953125 -4.0625 Z M 2.734375 -4.03125 C 2.265625 -4.03125 1.863281 -3.867188 1.53125 -3.546875 C 1.207031 -3.222656 1.046875 -2.828125 1.046875 -2.359375 C 1.046875 -1.890625 1.210938 -1.492188 1.546875 -1.171875 C 1.878906 -0.847656 2.273438 -0.6875 2.734375 -0.6875 C 3.203125 -0.6875 3.597656 -0.847656 3.921875 -1.171875 C 4.253906 -1.492188 4.421875 -1.890625 4.421875 -2.359375 C 4.421875 -2.828125 4.253906 -3.222656 3.921875 -3.546875 C 3.597656 -3.867188 3.203125 -4.03125 2.734375 -4.03125 Z M 2.734375 -4.03125 "/></g></g></g><g fill="#ffffff" fill-opacity="1"><g transform="translate(285.620327, 70.655929)"><g><path d="M 4.71875 0 L 3.9375 0 L 1.421875 -3.390625 L 1.421875 0 L 0.625 0 L 0.625 -4.71875 L 1.40625 -4.71875 L 3.9375 -1.328125 L 3.9375 -4.71875 L 4.71875 -4.71875 Z M 4.71875 0 "/></g></g></g><g fill="#ffffff" fill-opacity="1"><g transform="translate(295.019834, 70.655929)"><g><path d="M 2.171875 -4.765625 C 2.785156 -4.765625 3.335938 -4.597656 3.828125 -4.265625 L 3.5 -3.578125 C 3.019531 -3.867188 2.554688 -4.015625 2.109375 -4.015625 C 1.867188 -4.015625 1.679688 -3.96875 1.546875 -3.875 C 1.410156 -3.789062 1.34375 -3.671875 1.34375 -3.515625 C 1.34375 -3.359375 1.40625 -3.222656 1.53125 -3.109375 C 1.65625 -3.003906 1.8125 -2.925781 2 -2.875 C 2.1875 -2.820312 2.390625 -2.753906 2.609375 -2.671875 C 2.835938 -2.597656 3.046875 -2.515625 3.234375 -2.421875 C 3.421875 -2.335938 3.578125 -2.203125 3.703125 -2.015625 C 3.828125 -1.828125 3.890625 -1.601562 3.890625 -1.34375 C 3.890625 -0.925781 3.722656 -0.59375 3.390625 -0.34375 C 3.054688 -0.09375 2.628906 0.03125 2.109375 0.03125 C 1.742188 0.03125 1.390625 -0.0351562 1.046875 -0.171875 C 0.710938 -0.304688 0.421875 -0.488281 0.171875 -0.71875 L 0.515625 -1.40625 C 0.753906 -1.1875 1.015625 -1.015625 1.296875 -0.890625 C 1.585938 -0.773438 1.863281 -0.71875 2.125 -0.71875 C 2.394531 -0.71875 2.609375 -0.769531 2.765625 -0.875 C 2.921875 -0.976562 3 -1.117188 3 -1.296875 C 3 -1.453125 2.9375 -1.585938 2.8125 -1.703125 C 2.6875 -1.816406 2.53125 -1.898438 2.34375 -1.953125 C 2.15625 -2.003906 1.945312 -2.066406 1.71875 -2.140625 C 1.5 -2.210938 1.296875 -2.289062 1.109375 -2.375 C 0.921875 -2.457031 0.765625 -2.585938 0.640625 -2.765625 C 0.515625 -2.953125 0.453125 -3.175781 0.453125 -3.4375 C 0.453125 -3.84375 0.609375 -4.164062 0.921875 -4.40625 C 1.234375 -4.644531 1.648438 -4.765625 2.171875 -4.765625 Z M 2.171875 -4.765625 "/></g></g></g><path stroke-linecap="butt" transform="matrix(0, 0.434903, -0.434903, 0, 128.044633, 20.000171)" fill="none" stroke-linejoin="miter" d="M -0.000392172 1.997807 L 171.625617 1.997807 " stroke="#ffffff" stroke-width="4" stroke-opacity="1" stroke-miterlimit="4"/></svg>