<svg xmlns="http://www.w3.org/2000/svg" xmlns:xlink="http://www.w3.org/1999/xlink" width="1310" zoomAndPan="magnify" viewBox="0 0 982.5 319.499995" height="426" preserveAspectRatio="xMidYMid meet" version="1.0"><defs><g/><clipPath id="97365b69f6"><path d="M 0.519531 0 L 981.484375 0 L 981.484375 319 L 0.519531 319 Z M 0.519531 0 " clip-rule="nonzero"/></clipPath></defs><g clip-path="url(#97365b69f6)"><path fill="#ffffff" d="M 0.519531 0 L 981.484375 0 L 981.484375 319 L 0.519531 319 Z M 0.519531 0 " fill-opacity="1" fill-rule="nonzero"/></g><path stroke-linecap="butt" transform="matrix(0, -1.714298, 1.714298, 0, 423.226157, 263.749479)" fill="none" stroke-linejoin="miter" d="M -0.00030402 0.499256 L 109.038967 0.499256 " stroke="#191919" stroke-width="1" stroke-opacity="1" stroke-miterlimit="4"/><g fill="#191919" fill-opacity="1"><g transform="translate(140.832201, 229.854255)"><g><path d="M 46.28125 -49.390625 L 46.28125 -19.34375 C 46.28125 -14.738281 46.769531 -11.367188 47.75 -9.234375 C 48.726562 -7.109375 50.453125 -5.695312 52.921875 -5 C 55.398438 -4.3125 59.347656 -3.910156 64.765625 -3.796875 L 64.765625 0 C 50.597656 -0.34375 40.0625 -0.515625 33.15625 -0.515625 C 27.394531 -0.515625 20.140625 -0.398438 11.390625 -0.171875 L 5.875 0 L 5.875 -3.453125 C 9.664062 -3.679688 12.453125 -4.140625 14.234375 -4.828125 C 16.023438 -5.523438 17.238281 -6.851562 17.875 -8.8125 C 18.507812 -10.769531 18.828125 -13.9375 18.828125 -18.3125 L 18.828125 -103.953125 C 18.828125 -108.328125 18.507812 -111.492188 17.875 -113.453125 C 17.238281 -115.410156 16.023438 -116.734375 14.234375 -117.421875 C 12.453125 -118.117188 9.664062 -118.582031 5.875 -118.8125 L 5.875 -122.265625 C 11.738281 -121.921875 20.488281 -121.75 32.125 -121.75 L 51.28125 -121.921875 C 53.582031 -122.035156 56.234375 -122.09375 59.234375 -122.09375 C 74.773438 -122.09375 86.628906 -119.007812 94.796875 -112.84375 C 102.972656 -106.6875 107.0625 -98.429688 107.0625 -88.078125 C 107.0625 -81.742188 105.445312 -75.664062 102.21875 -69.84375 C 99 -64.03125 93.5625 -59.164062 85.90625 -55.25 C 78.25 -51.34375 68.09375 -49.390625 55.4375 -49.390625 Z M 56.984375 -118.8125 C 53.878906 -118.8125 51.601562 -118.40625 50.15625 -117.59375 C 48.71875 -116.789062 47.710938 -115.351562 47.140625 -113.28125 C 46.566406 -111.207031 46.28125 -108.097656 46.28125 -103.953125 L 46.28125 -52.84375 L 53.703125 -52.84375 C 63.023438 -52.84375 69.472656 -55.832031 73.046875 -61.8125 C 76.617188 -67.800781 78.40625 -75.921875 78.40625 -86.171875 C 78.40625 -97.335938 76.765625 -105.566406 73.484375 -110.859375 C 70.203125 -116.160156 64.703125 -118.8125 56.984375 -118.8125 Z M 56.984375 -118.8125 "/></g></g></g><g fill="#191919" fill-opacity="1"><g transform="translate(246.341868, 229.854255)"><g/></g></g><g fill="#191919" fill-opacity="1"><g transform="translate(281.396198, 229.854255)"><g><path d="M 49.046875 -124.5 C 55.023438 -124.5 59.800781 -123.921875 63.375 -122.765625 C 66.945312 -121.617188 70.570312 -119.953125 74.25 -117.765625 C 75.519531 -117.078125 76.644531 -116.503906 77.625 -116.046875 C 78.601562 -115.585938 79.4375 -115.359375 80.125 -115.359375 C 81.164062 -115.359375 81.972656 -115.960938 82.546875 -117.171875 C 83.117188 -118.378906 83.578125 -120.304688 83.921875 -122.953125 L 87.890625 -122.953125 C 87.316406 -115.242188 87.03125 -102.117188 87.03125 -83.578125 L 83.0625 -83.578125 C 82.601562 -89.796875 81.191406 -95.722656 78.828125 -101.359375 C 76.472656 -107.003906 73.132812 -111.582031 68.8125 -115.09375 C 64.5 -118.601562 59.460938 -120.359375 53.703125 -120.359375 C 48.066406 -120.359375 43.488281 -118.773438 39.96875 -115.609375 C 36.457031 -112.441406 34.703125 -108.15625 34.703125 -102.75 C 34.703125 -98.71875 35.566406 -95.203125 37.296875 -92.203125 C 39.023438 -89.210938 41.441406 -86.476562 44.546875 -84 C 47.660156 -81.53125 52.441406 -78.164062 58.890625 -73.90625 L 64.40625 -70.109375 C 71.195312 -65.617188 76.550781 -61.703125 80.46875 -58.359375 C 84.382812 -55.023438 87.578125 -51.140625 90.046875 -46.703125 C 92.523438 -42.273438 93.765625 -37.125 93.765625 -31.25 C 93.765625 -23.882812 91.863281 -17.695312 88.0625 -12.6875 C 84.269531 -7.6875 79.117188 -3.914062 72.609375 -1.375 C 66.109375 1.15625 58.882812 2.421875 50.9375 2.421875 C 44.488281 2.421875 39.132812 1.84375 34.875 0.6875 C 30.625 -0.457031 26.710938 -2.007812 23.140625 -3.96875 C 20.609375 -5.582031 18.648438 -6.390625 17.265625 -6.390625 C 16.234375 -6.390625 15.425781 -5.785156 14.84375 -4.578125 C 14.269531 -3.367188 13.8125 -1.441406 13.46875 1.203125 L 9.5 1.203125 C 9.957031 -6.046875 10.1875 -21.585938 10.1875 -45.421875 L 14.15625 -45.421875 C 14.96875 -32.523438 17.847656 -22.078125 22.796875 -14.078125 C 27.742188 -6.078125 35.34375 -2.078125 45.59375 -2.078125 C 51.8125 -2.078125 56.929688 -3.742188 60.953125 -7.078125 C 64.984375 -10.421875 67 -15.195312 67 -21.40625 C 67 -27.851562 64.925781 -33.378906 60.78125 -37.984375 C 56.632812 -42.597656 50.070312 -47.78125 41.09375 -53.53125 C 34.1875 -58.019531 28.660156 -61.929688 24.515625 -65.265625 C 20.378906 -68.609375 16.984375 -72.550781 14.328125 -77.09375 C 11.679688 -81.644531 10.359375 -86.914062 10.359375 -92.90625 C 10.359375 -99.8125 12.113281 -105.648438 15.625 -110.421875 C 19.132812 -115.203125 23.828125 -118.742188 29.703125 -121.046875 C 35.578125 -123.347656 42.023438 -124.5 49.046875 -124.5 Z M 49.046875 -124.5 "/></g></g></g><g fill="#191919" fill-opacity="1"><g transform="translate(463.803102, 166.485749)"><g><path d="M 10.578125 -14 L 10.578125 -5.1875 C 10.578125 -3.945312 10.707031 -3.046875 10.96875 -2.484375 C 11.226562 -1.929688 11.679688 -1.554688 12.328125 -1.359375 C 12.984375 -1.171875 14.046875 -1.046875 15.515625 -0.984375 L 15.515625 0 C 13.816406 -0.09375 11.414062 -0.140625 8.3125 -0.140625 C 5.507812 -0.140625 3.425781 -0.09375 2.0625 0 L 2.0625 -0.984375 C 3.226562 -1.046875 4.082031 -1.171875 4.625 -1.359375 C 5.164062 -1.554688 5.53125 -1.929688 5.71875 -2.484375 C 5.914062 -3.046875 6.015625 -3.945312 6.015625 -5.1875 L 6.015625 -29.453125 C 6.015625 -30.691406 5.914062 -31.585938 5.71875 -32.140625 C 5.53125 -32.703125 5.164062 -33.082031 4.625 -33.28125 C 4.082031 -33.476562 3.226562 -33.609375 2.0625 -33.671875 L 2.0625 -34.640625 C 3.425781 -34.546875 5.414062 -34.5 8.03125 -34.5 L 13.3125 -34.546875 C 13.925781 -34.578125 14.628906 -34.59375 15.421875 -34.59375 C 19.234375 -34.59375 22.148438 -33.71875 24.171875 -31.96875 C 26.191406 -30.226562 27.203125 -27.890625 27.203125 -24.953125 C 27.203125 -23.160156 26.800781 -21.441406 26 -19.796875 C 25.207031 -18.148438 23.851562 -16.769531 21.9375 -15.65625 C 20.03125 -14.550781 17.5 -14 14.34375 -14 Z M 14.1875 -33.671875 C 13.175781 -33.671875 12.414062 -33.554688 11.90625 -33.328125 C 11.40625 -33.097656 11.054688 -32.6875 10.859375 -32.09375 C 10.671875 -31.507812 10.578125 -30.628906 10.578125 -29.453125 L 10.578125 -14.96875 L 13.84375 -14.96875 C 17.039062 -14.96875 19.25 -15.820312 20.46875 -17.53125 C 21.695312 -19.25 22.3125 -21.546875 22.3125 -24.421875 C 22.3125 -27.585938 21.679688 -29.921875 20.421875 -31.421875 C 19.171875 -32.921875 17.09375 -33.671875 14.1875 -33.671875 Z M 14.1875 -33.671875 "/></g></g></g><g fill="#191919" fill-opacity="1"><g transform="translate(492.413897, 166.485749)"><g><path d="M 27.75 -4.109375 C 28.53125 -2.085938 29.65625 -1.046875 31.125 -0.984375 L 31.125 0 C 29.820312 -0.09375 28.078125 -0.140625 25.890625 -0.140625 C 23.078125 -0.140625 20.988281 -0.09375 19.625 0 L 19.625 -0.984375 C 20.863281 -1.046875 21.75 -1.195312 22.28125 -1.4375 C 22.820312 -1.6875 23.09375 -2.140625 23.09375 -2.796875 C 23.09375 -3.347656 22.898438 -4.113281 22.515625 -5.09375 L 19.53125 -13.109375 L 7.6875 -13.109375 L 5.671875 -7.921875 C 5.023438 -6.160156 4.703125 -4.828125 4.703125 -3.921875 C 4.703125 -2.898438 5.050781 -2.160156 5.75 -1.703125 C 6.445312 -1.253906 7.515625 -1.015625 8.953125 -0.984375 L 8.953125 0 C 7.097656 -0.09375 5.222656 -0.140625 3.328125 -0.140625 C 1.859375 -0.140625 0.632812 -0.09375 -0.34375 0 L -0.34375 -0.984375 C 1.289062 -1.367188 2.582031 -2.785156 3.53125 -5.234375 L 15.03125 -34.890625 L 15.8125 -34.890625 Z M 19.140625 -14.09375 L 13.65625 -28.71875 L 8.078125 -14.09375 Z M 19.140625 -14.09375 "/></g></g></g><g fill="#191919" fill-opacity="1"><g transform="translate(523.225516, 166.485749)"><g><path d="M 18.40625 -35.328125 C 20.320312 -35.328125 21.898438 -35.054688 23.140625 -34.515625 C 24.378906 -33.984375 25.734375 -33.195312 27.203125 -32.15625 C 27.628906 -31.820312 27.957031 -31.65625 28.1875 -31.65625 C 28.8125 -31.65625 29.21875 -32.648438 29.40625 -34.640625 L 30.53125 -34.640625 C 30.40625 -32.523438 30.34375 -28.773438 30.34375 -23.390625 L 29.21875 -23.390625 C 28.925781 -25.117188 28.613281 -26.546875 28.28125 -27.671875 C 27.957031 -28.796875 27.453125 -29.785156 26.765625 -30.640625 C 25.816406 -31.804688 24.582031 -32.734375 23.0625 -33.421875 C 21.550781 -34.109375 19.960938 -34.453125 18.296875 -34.453125 C 16.148438 -34.453125 14.257812 -33.75 12.625 -32.34375 C 10.988281 -30.945312 9.726562 -28.953125 8.84375 -26.359375 C 7.96875 -23.765625 7.53125 -20.738281 7.53125 -17.28125 C 7.53125 -11.40625 8.46875 -7.101562 10.34375 -4.375 C 12.226562 -1.65625 15.175781 -0.296875 19.1875 -0.296875 C 21.144531 -0.296875 22.835938 -0.800781 24.265625 -1.8125 C 24.859375 -2.195312 25.242188 -2.578125 25.421875 -2.953125 C 25.597656 -3.335938 25.6875 -3.851562 25.6875 -4.5 L 25.6875 -9.203125 C 25.6875 -10.566406 25.554688 -11.554688 25.296875 -12.171875 C 25.035156 -12.796875 24.578125 -13.222656 23.921875 -13.453125 C 23.273438 -13.679688 22.21875 -13.828125 20.75 -13.890625 L 20.75 -14.875 C 22.445312 -14.78125 24.75 -14.734375 27.65625 -14.734375 C 29.875 -14.734375 31.566406 -14.78125 32.734375 -14.875 L 32.734375 -13.890625 C 31.984375 -13.828125 31.4375 -13.695312 31.09375 -13.5 C 30.757812 -13.3125 30.535156 -12.9375 30.421875 -12.375 C 30.304688 -11.820312 30.25 -10.925781 30.25 -9.6875 L 30.25 0 L 29.265625 0 C 29.234375 -0.65625 29.101562 -1.285156 28.875 -1.890625 C 28.644531 -2.492188 28.332031 -2.796875 27.9375 -2.796875 C 27.75 -2.796875 27.554688 -2.742188 27.359375 -2.640625 C 27.160156 -2.546875 26.816406 -2.316406 26.328125 -1.953125 C 25.179688 -1.078125 23.992188 -0.421875 22.765625 0.015625 C 21.546875 0.460938 20.1875 0.6875 18.6875 0.6875 C 15.332031 0.6875 12.453125 -0.00390625 10.046875 -1.390625 C 7.648438 -2.773438 5.816406 -4.769531 4.546875 -7.375 C 3.273438 -9.988281 2.640625 -13.109375 2.640625 -16.734375 C 2.640625 -20.453125 3.316406 -23.722656 4.671875 -26.546875 C 6.023438 -29.367188 7.890625 -31.535156 10.265625 -33.046875 C 12.648438 -34.566406 15.363281 -35.328125 18.40625 -35.328125 Z M 18.40625 -35.328125 "/></g></g></g><g fill="#191919" fill-opacity="1"><g transform="translate(557.607351, 166.485749)"><g><path d="M 27.109375 -6.265625 C 27.109375 -4.398438 27.222656 -2.3125 27.453125 0 C 25.234375 -0.09375 21.5 -0.140625 16.25 -0.140625 C 9.976562 -0.140625 5.25 -0.09375 2.0625 0 L 2.0625 -0.984375 C 3.226562 -1.046875 4.082031 -1.171875 4.625 -1.359375 C 5.164062 -1.554688 5.53125 -1.929688 5.71875 -2.484375 C 5.914062 -3.046875 6.015625 -3.945312 6.015625 -5.1875 L 6.015625 -29.453125 C 6.015625 -30.691406 5.914062 -31.585938 5.71875 -32.140625 C 5.53125 -32.703125 5.164062 -33.082031 4.625 -33.28125 C 4.082031 -33.476562 3.226562 -33.609375 2.0625 -33.671875 L 2.0625 -34.640625 C 5.25 -34.546875 9.976562 -34.5 16.25 -34.5 C 21.039062 -34.5 24.445312 -34.546875 26.46875 -34.640625 C 26.238281 -32.492188 26.125 -30.570312 26.125 -28.875 C 26.125 -27.601562 26.175781 -26.59375 26.28125 -25.84375 L 25.15625 -25.84375 C 24.925781 -27.957031 24.628906 -29.53125 24.265625 -30.5625 C 23.910156 -31.59375 23.304688 -32.34375 22.453125 -32.8125 C 21.609375 -33.28125 20.320312 -33.515625 18.59375 -33.515625 L 14.53125 -33.515625 C 13.351562 -33.515625 12.492188 -33.425781 11.953125 -33.25 C 11.421875 -33.070312 11.054688 -32.703125 10.859375 -32.140625 C 10.671875 -31.585938 10.578125 -30.691406 10.578125 -29.453125 L 10.578125 -17.90625 L 13.796875 -17.90625 C 14.941406 -17.90625 15.820312 -18.175781 16.4375 -18.71875 C 17.0625 -19.257812 17.476562 -19.894531 17.6875 -20.625 C 17.90625 -21.363281 18.078125 -22.285156 18.203125 -23.390625 L 18.359375 -24.375 L 19.484375 -24.375 C 19.378906 -23 19.328125 -21.460938 19.328125 -19.765625 L 19.328125 -17.421875 C 19.328125 -15.753906 19.425781 -13.4375 19.625 -10.46875 L 18.5 -10.46875 C 18.46875 -10.695312 18.367188 -11.488281 18.203125 -12.84375 C 18.035156 -14.195312 17.585938 -15.21875 16.859375 -15.90625 C 16.128906 -16.59375 15.109375 -16.9375 13.796875 -16.9375 L 10.578125 -16.9375 L 10.578125 -5.1875 C 10.578125 -3.945312 10.671875 -3.046875 10.859375 -2.484375 C 11.054688 -1.929688 11.421875 -1.566406 11.953125 -1.390625 C 12.492188 -1.210938 13.351562 -1.125 14.53125 -1.125 L 18.109375 -1.125 C 20.128906 -1.125 21.671875 -1.390625 22.734375 -1.921875 C 23.796875 -2.460938 24.570312 -3.328125 25.0625 -4.515625 C 25.550781 -5.710938 25.90625 -7.46875 26.125 -9.78125 L 27.265625 -9.78125 C 27.160156 -8.90625 27.109375 -7.734375 27.109375 -6.265625 Z M 27.109375 -6.265625 "/></g></g></g><g fill="#191919" fill-opacity="1"><g transform="translate(587.39191, 166.485749)"><g><path d="M 18.40625 -35.328125 C 20.320312 -35.328125 21.898438 -35.054688 23.140625 -34.515625 C 24.378906 -33.984375 25.734375 -33.195312 27.203125 -32.15625 C 27.628906 -31.820312 27.957031 -31.65625 28.1875 -31.65625 C 28.8125 -31.65625 29.21875 -32.648438 29.40625 -34.640625 L 30.53125 -34.640625 C 30.40625 -32.523438 30.34375 -28.773438 30.34375 -23.390625 L 29.21875 -23.390625 C 28.925781 -25.117188 28.613281 -26.546875 28.28125 -27.671875 C 27.957031 -28.796875 27.453125 -29.785156 26.765625 -30.640625 C 25.816406 -31.804688 24.582031 -32.734375 23.0625 -33.421875 C 21.550781 -34.109375 19.960938 -34.453125 18.296875 -34.453125 C 16.148438 -34.453125 14.257812 -33.75 12.625 -32.34375 C 10.988281 -30.945312 9.726562 -28.953125 8.84375 -26.359375 C 7.96875 -23.765625 7.53125 -20.738281 7.53125 -17.28125 C 7.53125 -11.40625 8.46875 -7.101562 10.34375 -4.375 C 12.226562 -1.65625 15.175781 -0.296875 19.1875 -0.296875 C 21.144531 -0.296875 22.835938 -0.800781 24.265625 -1.8125 C 24.859375 -2.195312 25.242188 -2.578125 25.421875 -2.953125 C 25.597656 -3.335938 25.6875 -3.851562 25.6875 -4.5 L 25.6875 -9.203125 C 25.6875 -10.566406 25.554688 -11.554688 25.296875 -12.171875 C 25.035156 -12.796875 24.578125 -13.222656 23.921875 -13.453125 C 23.273438 -13.679688 22.21875 -13.828125 20.75 -13.890625 L 20.75 -14.875 C 22.445312 -14.78125 24.75 -14.734375 27.65625 -14.734375 C 29.875 -14.734375 31.566406 -14.78125 32.734375 -14.875 L 32.734375 -13.890625 C 31.984375 -13.828125 31.4375 -13.695312 31.09375 -13.5 C 30.757812 -13.3125 30.535156 -12.9375 30.421875 -12.375 C 30.304688 -11.820312 30.25 -10.925781 30.25 -9.6875 L 30.25 0 L 29.265625 0 C 29.234375 -0.65625 29.101562 -1.285156 28.875 -1.890625 C 28.644531 -2.492188 28.332031 -2.796875 27.9375 -2.796875 C 27.75 -2.796875 27.554688 -2.742188 27.359375 -2.640625 C 27.160156 -2.546875 26.816406 -2.316406 26.328125 -1.953125 C 25.179688 -1.078125 23.992188 -0.421875 22.765625 0.015625 C 21.546875 0.460938 20.1875 0.6875 18.6875 0.6875 C 15.332031 0.6875 12.453125 -0.00390625 10.046875 -1.390625 C 7.648438 -2.773438 5.816406 -4.769531 4.546875 -7.375 C 3.273438 -9.988281 2.640625 -13.109375 2.640625 -16.734375 C 2.640625 -20.453125 3.316406 -23.722656 4.671875 -26.546875 C 6.023438 -29.367188 7.890625 -31.535156 10.265625 -33.046875 C 12.648438 -34.566406 15.363281 -35.328125 18.40625 -35.328125 Z M 18.40625 -35.328125 "/></g></g></g><g fill="#191919" fill-opacity="1"><g transform="translate(621.773745, 166.485749)"><g><path d="M 27.109375 -6.265625 C 27.109375 -4.398438 27.222656 -2.3125 27.453125 0 C 25.234375 -0.09375 21.5 -0.140625 16.25 -0.140625 C 9.976562 -0.140625 5.25 -0.09375 2.0625 0 L 2.0625 -0.984375 C 3.226562 -1.046875 4.082031 -1.171875 4.625 -1.359375 C 5.164062 -1.554688 5.53125 -1.929688 5.71875 -2.484375 C 5.914062 -3.046875 6.015625 -3.945312 6.015625 -5.1875 L 6.015625 -29.453125 C 6.015625 -30.691406 5.914062 -31.585938 5.71875 -32.140625 C 5.53125 -32.703125 5.164062 -33.082031 4.625 -33.28125 C 4.082031 -33.476562 3.226562 -33.609375 2.0625 -33.671875 L 2.0625 -34.640625 C 5.25 -34.546875 9.976562 -34.5 16.25 -34.5 C 21.039062 -34.5 24.445312 -34.546875 26.46875 -34.640625 C 26.238281 -32.492188 26.125 -30.570312 26.125 -28.875 C 26.125 -27.601562 26.175781 -26.59375 26.28125 -25.84375 L 25.15625 -25.84375 C 24.925781 -27.957031 24.628906 -29.53125 24.265625 -30.5625 C 23.910156 -31.59375 23.304688 -32.34375 22.453125 -32.8125 C 21.609375 -33.28125 20.320312 -33.515625 18.59375 -33.515625 L 14.53125 -33.515625 C 13.351562 -33.515625 12.492188 -33.425781 11.953125 -33.25 C 11.421875 -33.070312 11.054688 -32.703125 10.859375 -32.140625 C 10.671875 -31.585938 10.578125 -30.691406 10.578125 -29.453125 L 10.578125 -17.90625 L 13.796875 -17.90625 C 14.941406 -17.90625 15.820312 -18.175781 16.4375 -18.71875 C 17.0625 -19.257812 17.476562 -19.894531 17.6875 -20.625 C 17.90625 -21.363281 18.078125 -22.285156 18.203125 -23.390625 L 18.359375 -24.375 L 19.484375 -24.375 C 19.378906 -23 19.328125 -21.460938 19.328125 -19.765625 L 19.328125 -17.421875 C 19.328125 -15.753906 19.425781 -13.4375 19.625 -10.46875 L 18.5 -10.46875 C 18.46875 -10.695312 18.367188 -11.488281 18.203125 -12.84375 C 18.035156 -14.195312 17.585938 -15.21875 16.859375 -15.90625 C 16.128906 -16.59375 15.109375 -16.9375 13.796875 -16.9375 L 10.578125 -16.9375 L 10.578125 -5.1875 C 10.578125 -3.945312 10.671875 -3.046875 10.859375 -2.484375 C 11.054688 -1.929688 11.421875 -1.566406 11.953125 -1.390625 C 12.492188 -1.210938 13.351562 -1.125 14.53125 -1.125 L 18.109375 -1.125 C 20.128906 -1.125 21.671875 -1.390625 22.734375 -1.921875 C 23.796875 -2.460938 24.570312 -3.328125 25.0625 -4.515625 C 25.550781 -5.710938 25.90625 -7.46875 26.125 -9.78125 L 27.265625 -9.78125 C 27.160156 -8.90625 27.109375 -7.734375 27.109375 -6.265625 Z M 27.109375 -6.265625 "/></g></g></g><g fill="#191919" fill-opacity="1"><g transform="translate(651.558305, 166.485749)"><g><path d="M 32.78125 -33.671875 C 31.644531 -33.609375 30.796875 -33.4375 30.234375 -33.15625 C 29.679688 -32.875 29.304688 -32.414062 29.109375 -31.78125 C 28.921875 -31.144531 28.828125 -30.207031 28.828125 -28.96875 L 28.828125 0.25 L 27.703125 0.25 L 7.140625 -31.515625 L 7.140625 -5.671875 C 7.140625 -4.398438 7.242188 -3.453125 7.453125 -2.828125 C 7.671875 -2.210938 8.085938 -1.765625 8.703125 -1.484375 C 9.328125 -1.210938 10.289062 -1.046875 11.59375 -0.984375 L 11.59375 0 C 10.425781 -0.09375 8.765625 -0.140625 6.609375 -0.140625 C 4.648438 -0.140625 3.132812 -0.09375 2.0625 0 L 2.0625 -0.984375 C 3.195312 -1.046875 4.039062 -1.210938 4.59375 -1.484375 C 5.15625 -1.765625 5.53125 -2.222656 5.71875 -2.859375 C 5.914062 -3.492188 6.015625 -4.429688 6.015625 -5.671875 L 6.015625 -29.453125 C 6.015625 -30.691406 5.914062 -31.585938 5.71875 -32.140625 C 5.53125 -32.703125 5.164062 -33.082031 4.625 -33.28125 C 4.082031 -33.476562 3.226562 -33.609375 2.0625 -33.671875 L 2.0625 -34.640625 C 3.132812 -34.546875 4.648438 -34.5 6.609375 -34.5 C 8.078125 -34.5 9.347656 -34.546875 10.421875 -34.640625 L 27.703125 -8.03125 L 27.703125 -28.96875 C 27.703125 -30.238281 27.59375 -31.179688 27.375 -31.796875 C 27.164062 -32.421875 26.75 -32.875 26.125 -33.15625 C 25.507812 -33.4375 24.550781 -33.609375 23.25 -33.671875 L 23.25 -34.640625 C 24.414062 -34.546875 26.078125 -34.5 28.234375 -34.5 C 30.191406 -34.5 31.707031 -34.546875 32.78125 -34.640625 Z M 32.78125 -33.671875 "/></g></g></g><g fill="#191919" fill-opacity="1"><g transform="translate(686.086875, 166.485749)"><g><path d="M 14.53125 -33.671875 C 13.351562 -33.609375 12.492188 -33.476562 11.953125 -33.28125 C 11.421875 -33.082031 11.054688 -32.703125 10.859375 -32.140625 C 10.671875 -31.585938 10.578125 -30.691406 10.578125 -29.453125 L 10.578125 -5.1875 C 10.578125 -3.945312 10.671875 -3.046875 10.859375 -2.484375 C 11.054688 -1.929688 11.421875 -1.554688 11.953125 -1.359375 C 12.492188 -1.171875 13.351562 -1.046875 14.53125 -0.984375 L 14.53125 0 C 13.03125 -0.09375 10.957031 -0.140625 8.3125 -0.140625 C 5.507812 -0.140625 3.425781 -0.09375 2.0625 0 L 2.0625 -0.984375 C 3.226562 -1.046875 4.082031 -1.171875 4.625 -1.359375 C 5.164062 -1.554688 5.53125 -1.929688 5.71875 -2.484375 C 5.914062 -3.046875 6.015625 -3.945312 6.015625 -5.1875 L 6.015625 -29.453125 C 6.015625 -30.691406 5.914062 -31.585938 5.71875 -32.140625 C 5.53125 -32.703125 5.164062 -33.082031 4.625 -33.28125 C 4.082031 -33.476562 3.226562 -33.609375 2.0625 -33.671875 L 2.0625 -34.640625 C 3.425781 -34.546875 5.507812 -34.5 8.3125 -34.5 C 10.925781 -34.5 13 -34.546875 14.53125 -34.640625 Z M 14.53125 -33.671875 "/></g></g></g><g fill="#191919" fill-opacity="1"><g transform="translate(702.666464, 166.485749)"><g><path d="M 27.109375 -6.265625 C 27.109375 -4.398438 27.222656 -2.3125 27.453125 0 C 25.234375 -0.09375 21.5 -0.140625 16.25 -0.140625 C 9.976562 -0.140625 5.25 -0.09375 2.0625 0 L 2.0625 -0.984375 C 3.226562 -1.046875 4.082031 -1.171875 4.625 -1.359375 C 5.164062 -1.554688 5.53125 -1.929688 5.71875 -2.484375 C 5.914062 -3.046875 6.015625 -3.945312 6.015625 -5.1875 L 6.015625 -29.453125 C 6.015625 -30.691406 5.914062 -31.585938 5.71875 -32.140625 C 5.53125 -32.703125 5.164062 -33.082031 4.625 -33.28125 C 4.082031 -33.476562 3.226562 -33.609375 2.0625 -33.671875 L 2.0625 -34.640625 C 5.25 -34.546875 9.976562 -34.5 16.25 -34.5 C 21.039062 -34.5 24.445312 -34.546875 26.46875 -34.640625 C 26.238281 -32.492188 26.125 -30.570312 26.125 -28.875 C 26.125 -27.601562 26.175781 -26.59375 26.28125 -25.84375 L 25.15625 -25.84375 C 24.925781 -27.957031 24.628906 -29.53125 24.265625 -30.5625 C 23.910156 -31.59375 23.304688 -32.34375 22.453125 -32.8125 C 21.609375 -33.28125 20.320312 -33.515625 18.59375 -33.515625 L 14.53125 -33.515625 C 13.351562 -33.515625 12.492188 -33.425781 11.953125 -33.25 C 11.421875 -33.070312 11.054688 -32.703125 10.859375 -32.140625 C 10.671875 -31.585938 10.578125 -30.691406 10.578125 -29.453125 L 10.578125 -17.90625 L 13.796875 -17.90625 C 14.941406 -17.90625 15.820312 -18.175781 16.4375 -18.71875 C 17.0625 -19.257812 17.476562 -19.894531 17.6875 -20.625 C 17.90625 -21.363281 18.078125 -22.285156 18.203125 -23.390625 L 18.359375 -24.375 L 19.484375 -24.375 C 19.378906 -23 19.328125 -21.460938 19.328125 -19.765625 L 19.328125 -17.421875 C 19.328125 -15.753906 19.425781 -13.4375 19.625 -10.46875 L 18.5 -10.46875 C 18.46875 -10.695312 18.367188 -11.488281 18.203125 -12.84375 C 18.035156 -14.195312 17.585938 -15.21875 16.859375 -15.90625 C 16.128906 -16.59375 15.109375 -16.9375 13.796875 -16.9375 L 10.578125 -16.9375 L 10.578125 -5.1875 C 10.578125 -3.945312 10.671875 -3.046875 10.859375 -2.484375 C 11.054688 -1.929688 11.421875 -1.566406 11.953125 -1.390625 C 12.492188 -1.210938 13.351562 -1.125 14.53125 -1.125 L 18.109375 -1.125 C 20.128906 -1.125 21.671875 -1.390625 22.734375 -1.921875 C 23.796875 -2.460938 24.570312 -3.328125 25.0625 -4.515625 C 25.550781 -5.710938 25.90625 -7.46875 26.125 -9.78125 L 27.265625 -9.78125 C 27.160156 -8.90625 27.109375 -7.734375 27.109375 -6.265625 Z M 27.109375 -6.265625 "/></g></g></g><g fill="#191919" fill-opacity="1"><g transform="translate(732.451023, 166.485749)"><g/></g></g><g fill="#191919" fill-opacity="1"><g transform="translate(744.628935, 166.485749)"><g><path d="M 12.53125 -35.1875 C 13.96875 -35.1875 15.097656 -35.03125 15.921875 -34.71875 C 16.753906 -34.40625 17.613281 -33.957031 18.5 -33.375 C 19.21875 -32.914062 19.769531 -32.6875 20.15625 -32.6875 C 20.457031 -32.6875 20.6875 -32.859375 20.84375 -33.203125 C 21.007812 -33.546875 21.140625 -34.09375 21.234375 -34.84375 L 22.359375 -34.84375 C 22.203125 -32.945312 22.125 -29.617188 22.125 -24.859375 L 21 -24.859375 C 20.800781 -27.503906 20.039062 -29.726562 18.71875 -31.53125 C 17.394531 -33.34375 15.476562 -34.25 12.96875 -34.25 C 11.207031 -34.25 9.769531 -33.71875 8.65625 -32.65625 C 7.550781 -31.601562 7 -30.242188 7 -28.578125 C 7 -27.335938 7.28125 -26.257812 7.84375 -25.34375 C 8.414062 -24.4375 9.144531 -23.65625 10.03125 -23 C 10.914062 -22.34375 12.171875 -21.507812 13.796875 -20.5 L 15.21875 -19.625 C 17.269531 -18.351562 18.890625 -17.234375 20.078125 -16.265625 C 21.273438 -15.304688 22.234375 -14.207031 22.953125 -12.96875 C 23.671875 -11.726562 24.03125 -10.273438 24.03125 -8.609375 C 24.03125 -5.640625 23.050781 -3.347656 21.09375 -1.734375 C 19.132812 -0.117188 16.65625 0.6875 13.65625 0.6875 C 12.082031 0.6875 10.796875 0.519531 9.796875 0.1875 C 8.804688 -0.132812 7.859375 -0.570312 6.953125 -1.125 C 6.234375 -1.582031 5.675781 -1.8125 5.28125 -1.8125 C 4.988281 -1.8125 4.757812 -1.640625 4.59375 -1.296875 C 4.4375 -0.953125 4.304688 -0.40625 4.203125 0.34375 L 3.078125 0.34375 C 3.210938 -1.445312 3.28125 -5.363281 3.28125 -11.40625 L 4.40625 -11.40625 C 4.632812 -8.101562 5.445312 -5.425781 6.84375 -3.375 C 8.25 -1.320312 10.40625 -0.296875 13.3125 -0.296875 C 15.070312 -0.296875 16.570312 -0.84375 17.8125 -1.9375 C 19.050781 -3.03125 19.671875 -4.648438 19.671875 -6.796875 C 19.671875 -8.628906 19.054688 -10.179688 17.828125 -11.453125 C 16.609375 -12.722656 14.675781 -14.160156 12.03125 -15.765625 C 10.113281 -16.929688 8.554688 -17.972656 7.359375 -18.890625 C 6.171875 -19.804688 5.203125 -20.90625 4.453125 -22.1875 C 3.703125 -23.476562 3.328125 -24.988281 3.328125 -26.71875 C 3.328125 -29.457031 4.207031 -31.550781 5.96875 -33 C 7.726562 -34.457031 9.914062 -35.1875 12.53125 -35.1875 Z M 12.53125 -35.1875 "/></g></g></g><g fill="#191919" fill-opacity="1"><g transform="translate(771.038877, 166.485749)"><g><path d="M 28.96875 -34.640625 C 28.738281 -32.328125 28.625 -30.242188 28.625 -28.390625 C 28.625 -26.753906 28.675781 -25.414062 28.78125 -24.375 L 27.65625 -24.375 C 27.394531 -26.882812 27.066406 -28.75 26.671875 -29.96875 C 26.273438 -31.195312 25.585938 -32.09375 24.609375 -32.65625 C 23.628906 -33.226562 22.128906 -33.515625 20.109375 -33.515625 L 17.46875 -33.515625 L 17.46875 -5.671875 C 17.46875 -4.304688 17.597656 -3.3125 17.859375 -2.6875 C 18.117188 -2.070312 18.578125 -1.648438 19.234375 -1.421875 C 19.890625 -1.191406 20.945312 -1.046875 22.40625 -0.984375 L 22.40625 0 C 20.71875 -0.09375 18.320312 -0.140625 15.21875 -0.140625 C 11.957031 -0.140625 9.546875 -0.09375 7.984375 0 L 7.984375 -0.984375 C 9.441406 -1.046875 10.5 -1.191406 11.15625 -1.421875 C 11.8125 -1.648438 12.269531 -2.070312 12.53125 -2.6875 C 12.789062 -3.3125 12.921875 -4.304688 12.921875 -5.671875 L 12.921875 -33.515625 L 10.28125 -33.515625 C 8.257812 -33.515625 6.757812 -33.226562 5.78125 -32.65625 C 4.800781 -32.09375 4.113281 -31.195312 3.71875 -29.96875 C 3.320312 -28.75 2.992188 -26.882812 2.734375 -24.375 L 1.609375 -24.375 C 1.710938 -25.414062 1.765625 -26.753906 1.765625 -28.390625 C 1.765625 -30.242188 1.648438 -32.328125 1.421875 -34.640625 C 4.128906 -34.546875 8.726562 -34.5 15.21875 -34.5 C 21.675781 -34.5 26.257812 -34.546875 28.96875 -34.640625 Z M 28.96875 -34.640625 "/></g></g></g><g fill="#191919" fill-opacity="1"><g transform="translate(801.410319, 166.485749)"><g><path d="M 32.046875 -33.671875 C 30.910156 -33.609375 30.0625 -33.4375 29.5 -33.15625 C 28.945312 -32.875 28.570312 -32.414062 28.375 -31.78125 C 28.1875 -31.144531 28.09375 -30.207031 28.09375 -28.96875 L 28.09375 -14.234375 C 28.09375 -11.890625 27.9375 -9.875 27.625 -8.1875 C 27.3125 -6.507812 26.796875 -5.066406 26.078125 -3.859375 C 25.265625 -2.460938 24.066406 -1.351562 22.484375 -0.53125 C 20.898438 0.28125 19.113281 0.6875 17.125 0.6875 C 13.539062 0.6875 10.800781 -0.191406 8.90625 -1.953125 C 7.46875 -3.296875 6.503906 -4.8125 6.015625 -6.5 C 5.523438 -8.195312 5.28125 -10.726562 5.28125 -14.09375 L 5.28125 -29.453125 C 5.28125 -30.691406 5.179688 -31.585938 4.984375 -32.140625 C 4.796875 -32.703125 4.429688 -33.082031 3.890625 -33.28125 C 3.347656 -33.476562 2.492188 -33.609375 1.328125 -33.671875 L 1.328125 -34.640625 C 2.691406 -34.546875 4.773438 -34.5 7.578125 -34.5 C 10.222656 -34.5 12.296875 -34.546875 13.796875 -34.640625 L 13.796875 -33.671875 C 12.617188 -33.609375 11.757812 -33.476562 11.21875 -33.28125 C 10.6875 -33.082031 10.320312 -32.703125 10.125 -32.140625 C 9.9375 -31.585938 9.84375 -30.691406 9.84375 -29.453125 L 9.84375 -13.265625 C 9.84375 -10.648438 10.019531 -8.476562 10.375 -6.75 C 10.726562 -5.019531 11.46875 -3.632812 12.59375 -2.59375 C 13.726562 -1.550781 15.382812 -1.03125 17.5625 -1.03125 C 21.019531 -1.03125 23.453125 -2.140625 24.859375 -4.359375 C 26.265625 -6.578125 26.96875 -9.691406 26.96875 -13.703125 L 26.96875 -28.96875 C 26.96875 -30.726562 26.648438 -31.9375 26.015625 -32.59375 C 25.378906 -33.25 24.210938 -33.609375 22.515625 -33.671875 L 22.515625 -34.640625 C 23.679688 -34.546875 25.34375 -34.5 27.5 -34.5 C 29.457031 -34.5 30.972656 -34.546875 32.046875 -34.640625 Z M 32.046875 -33.671875 "/></g></g></g><g fill="#191919" fill-opacity="1"><g transform="translate(834.765124, 166.485749)"><g><path d="M 15.421875 -34.640625 C 21.191406 -34.640625 25.507812 -33.195312 28.375 -30.3125 C 31.25 -27.425781 32.6875 -23.226562 32.6875 -17.71875 C 32.6875 -14.15625 31.984375 -11.035156 30.578125 -8.359375 C 29.179688 -5.691406 27.148438 -3.628906 24.484375 -2.171875 C 21.828125 -0.722656 18.65625 0 14.96875 0 L 12.140625 -0.046875 C 10.304688 -0.109375 8.96875 -0.140625 8.125 -0.140625 C 5.445312 -0.140625 3.425781 -0.09375 2.0625 0 L 2.0625 -0.984375 C 3.226562 -1.046875 4.082031 -1.171875 4.625 -1.359375 C 5.164062 -1.554688 5.53125 -1.929688 5.71875 -2.484375 C 5.914062 -3.046875 6.015625 -3.945312 6.015625 -5.1875 L 6.015625 -29.453125 C 6.015625 -30.691406 5.914062 -31.585938 5.71875 -32.140625 C 5.53125 -32.703125 5.164062 -33.082031 4.625 -33.28125 C 4.082031 -33.476562 3.226562 -33.609375 2.0625 -33.671875 L 2.0625 -34.640625 C 3.195312 -34.546875 4.773438 -34.5 6.796875 -34.5 L 10.96875 -34.546875 C 13.1875 -34.609375 14.671875 -34.640625 15.421875 -34.640625 Z M 14.1875 -33.765625 C 13.175781 -33.765625 12.414062 -33.648438 11.90625 -33.421875 C 11.40625 -33.191406 11.054688 -32.78125 10.859375 -32.1875 C 10.671875 -31.601562 10.578125 -30.726562 10.578125 -29.5625 L 10.578125 -5.09375 C 10.578125 -3.914062 10.671875 -3.03125 10.859375 -2.4375 C 11.054688 -1.851562 11.40625 -1.445312 11.90625 -1.21875 C 12.414062 -0.988281 13.191406 -0.875 14.234375 -0.875 C 17.691406 -0.875 20.414062 -1.503906 22.40625 -2.765625 C 24.40625 -4.023438 25.800781 -5.859375 26.59375 -8.265625 C 27.394531 -10.679688 27.796875 -13.765625 27.796875 -17.515625 C 27.796875 -21.265625 27.351562 -24.320312 26.46875 -26.6875 C 25.59375 -29.0625 24.164062 -30.832031 22.1875 -32 C 20.21875 -33.175781 17.550781 -33.765625 14.1875 -33.765625 Z M 14.1875 -33.765625 "/></g></g></g><g fill="#191919" fill-opacity="1"><g transform="translate(870.125125, 166.485749)"><g><path d="M 14.53125 -33.671875 C 13.351562 -33.609375 12.492188 -33.476562 11.953125 -33.28125 C 11.421875 -33.082031 11.054688 -32.703125 10.859375 -32.140625 C 10.671875 -31.585938 10.578125 -30.691406 10.578125 -29.453125 L 10.578125 -5.1875 C 10.578125 -3.945312 10.671875 -3.046875 10.859375 -2.484375 C 11.054688 -1.929688 11.421875 -1.554688 11.953125 -1.359375 C 12.492188 -1.171875 13.351562 -1.046875 14.53125 -0.984375 L 14.53125 0 C 13.03125 -0.09375 10.957031 -0.140625 8.3125 -0.140625 C 5.507812 -0.140625 3.425781 -0.09375 2.0625 0 L 2.0625 -0.984375 C 3.226562 -1.046875 4.082031 -1.171875 4.625 -1.359375 C 5.164062 -1.554688 5.53125 -1.929688 5.71875 -2.484375 C 5.914062 -3.046875 6.015625 -3.945312 6.015625 -5.1875 L 6.015625 -29.453125 C 6.015625 -30.691406 5.914062 -31.585938 5.71875 -32.140625 C 5.53125 -32.703125 5.164062 -33.082031 4.625 -33.28125 C 4.082031 -33.476562 3.226562 -33.609375 2.0625 -33.671875 L 2.0625 -34.640625 C 3.425781 -34.546875 5.507812 -34.5 8.3125 -34.5 C 10.925781 -34.5 13 -34.546875 14.53125 -34.640625 Z M 14.53125 -33.671875 "/></g></g></g><g fill="#191919" fill-opacity="1"><g transform="translate(886.704714, 166.485749)"><g><path d="M 18.15625 -35.328125 C 21.257812 -35.328125 23.972656 -34.625 26.296875 -33.21875 C 28.628906 -31.820312 30.441406 -29.789062 31.734375 -27.125 C 33.023438 -24.46875 33.671875 -21.300781 33.671875 -17.625 C 33.671875 -14.03125 33.007812 -10.847656 31.6875 -8.078125 C 30.363281 -5.304688 28.519531 -3.148438 26.15625 -1.609375 C 23.789062 -0.078125 21.109375 0.6875 18.109375 0.6875 C 15.003906 0.6875 12.285156 -0.015625 9.953125 -1.421875 C 7.617188 -2.828125 5.804688 -4.859375 4.515625 -7.515625 C 3.234375 -10.171875 2.59375 -13.34375 2.59375 -17.03125 C 2.59375 -20.613281 3.253906 -23.789062 4.578125 -26.5625 C 5.898438 -29.34375 7.742188 -31.5 10.109375 -33.03125 C 12.472656 -34.5625 15.15625 -35.328125 18.15625 -35.328125 Z M 17.953125 -34.453125 C 15.867188 -34.453125 14.035156 -33.722656 12.453125 -32.265625 C 10.867188 -30.816406 9.644531 -28.785156 8.78125 -26.171875 C 7.914062 -23.566406 7.484375 -20.582031 7.484375 -17.21875 C 7.484375 -13.832031 7.960938 -10.847656 8.921875 -8.265625 C 9.890625 -5.691406 11.1875 -3.703125 12.8125 -2.296875 C 14.445312 -0.898438 16.273438 -0.203125 18.296875 -0.203125 C 20.390625 -0.203125 22.226562 -0.925781 23.8125 -2.375 C 25.394531 -3.820312 26.617188 -5.847656 27.484375 -8.453125 C 28.347656 -11.066406 28.78125 -14.054688 28.78125 -17.421875 C 28.78125 -20.816406 28.296875 -23.800781 27.328125 -26.375 C 26.367188 -28.957031 25.070312 -30.945312 23.4375 -32.34375 C 21.8125 -33.75 19.984375 -34.453125 17.953125 -34.453125 Z M 17.953125 -34.453125 "/></g></g></g><g fill="#191919" fill-opacity="1"><g transform="translate(922.945038, 166.485749)"><g><path d="M 12.53125 -35.1875 C 13.96875 -35.1875 15.097656 -35.03125 15.921875 -34.71875 C 16.753906 -34.40625 17.613281 -33.957031 18.5 -33.375 C 19.21875 -32.914062 19.769531 -32.6875 20.15625 -32.6875 C 20.457031 -32.6875 20.6875 -32.859375 20.84375 -33.203125 C 21.007812 -33.546875 21.140625 -34.09375 21.234375 -34.84375 L 22.359375 -34.84375 C 22.203125 -32.945312 22.125 -29.617188 22.125 -24.859375 L 21 -24.859375 C 20.800781 -27.503906 20.039062 -29.726562 18.71875 -31.53125 C 17.394531 -33.34375 15.476562 -34.25 12.96875 -34.25 C 11.207031 -34.25 9.769531 -33.71875 8.65625 -32.65625 C 7.550781 -31.601562 7 -30.242188 7 -28.578125 C 7 -27.335938 7.28125 -26.257812 7.84375 -25.34375 C 8.414062 -24.4375 9.144531 -23.65625 10.03125 -23 C 10.914062 -22.34375 12.171875 -21.507812 13.796875 -20.5 L 15.21875 -19.625 C 17.269531 -18.351562 18.890625 -17.234375 20.078125 -16.265625 C 21.273438 -15.304688 22.234375 -14.207031 22.953125 -12.96875 C 23.671875 -11.726562 24.03125 -10.273438 24.03125 -8.609375 C 24.03125 -5.640625 23.050781 -3.347656 21.09375 -1.734375 C 19.132812 -0.117188 16.65625 0.6875 13.65625 0.6875 C 12.082031 0.6875 10.796875 0.519531 9.796875 0.1875 C 8.804688 -0.132812 7.859375 -0.570312 6.953125 -1.125 C 6.234375 -1.582031 5.675781 -1.8125 5.28125 -1.8125 C 4.988281 -1.8125 4.757812 -1.640625 4.59375 -1.296875 C 4.4375 -0.953125 4.304688 -0.40625 4.203125 0.34375 L 3.078125 0.34375 C 3.210938 -1.445312 3.28125 -5.363281 3.28125 -11.40625 L 4.40625 -11.40625 C 4.632812 -8.101562 5.445312 -5.425781 6.84375 -3.375 C 8.25 -1.320312 10.40625 -0.296875 13.3125 -0.296875 C 15.070312 -0.296875 16.570312 -0.84375 17.8125 -1.9375 C 19.050781 -3.03125 19.671875 -4.648438 19.671875 -6.796875 C 19.671875 -8.628906 19.054688 -10.179688 17.828125 -11.453125 C 16.609375 -12.722656 14.675781 -14.160156 12.03125 -15.765625 C 10.113281 -16.929688 8.554688 -17.972656 7.359375 -18.890625 C 6.171875 -19.804688 5.203125 -20.90625 4.453125 -22.1875 C 3.703125 -23.476562 3.328125 -24.988281 3.328125 -26.71875 C 3.328125 -29.457031 4.207031 -31.550781 5.96875 -33 C 7.726562 -34.457031 9.914062 -35.1875 12.53125 -35.1875 Z M 12.53125 -35.1875 "/></g></g></g><g fill="#191919" fill-opacity="1"><g transform="translate(463.803102, 207.904382)"><g><path d="M 7.515625 -13.140625 C 8.441406 -13.140625 9.34375 -12.960938 10.21875 -12.609375 C 11.101562 -12.253906 11.863281 -11.757812 12.5 -11.125 L 11.203125 -9.515625 C 10.734375 -10.023438 10.171875 -10.429688 9.515625 -10.734375 C 8.867188 -11.035156 8.21875 -11.1875 7.5625 -11.1875 C 6.25 -11.1875 5.140625 -10.738281 4.234375 -9.84375 C 3.328125 -8.957031 2.875 -7.867188 2.875 -6.578125 C 2.875 -5.285156 3.328125 -4.191406 4.234375 -3.296875 C 5.140625 -2.410156 6.25 -1.96875 7.5625 -1.96875 C 8.914062 -1.96875 10.128906 -2.484375 11.203125 -3.515625 L 12.515625 -2.0625 C 11.835938 -1.394531 11.050781 -0.867188 10.15625 -0.484375 C 9.257812 -0.0976562 8.351562 0.09375 7.4375 0.09375 C 5.519531 0.09375 3.90625 -0.539062 2.59375 -1.8125 C 1.289062 -3.09375 0.640625 -4.675781 0.640625 -6.5625 C 0.640625 -8.425781 1.300781 -9.988281 2.625 -11.25 C 3.957031 -12.507812 5.585938 -13.140625 7.515625 -13.140625 Z M 7.515625 -13.140625 "/></g></g></g><g fill="#191919" fill-opacity="1"><g transform="translate(488.069892, 207.904382)"><g><path d="M 10.03125 0 L 7.625 -3.96875 C 7.5 -3.957031 7.300781 -3.953125 7.03125 -3.953125 L 3.921875 -3.953125 L 3.921875 0 L 1.71875 0 L 1.71875 -13.09375 L 7.03125 -13.09375 C 8.695312 -13.09375 9.992188 -12.703125 10.921875 -11.921875 C 11.847656 -11.140625 12.3125 -10.039062 12.3125 -8.625 C 12.3125 -7.570312 12.078125 -6.679688 11.609375 -5.953125 C 11.140625 -5.234375 10.46875 -4.707031 9.59375 -4.375 L 12.53125 0 Z M 3.921875 -5.921875 L 7.03125 -5.921875 C 9.15625 -5.921875 10.21875 -6.800781 10.21875 -8.5625 C 10.21875 -10.257812 9.15625 -11.109375 7.03125 -11.109375 L 3.921875 -11.109375 Z M 3.921875 -5.921875 "/></g></g></g><g fill="#191919" fill-opacity="1"><g transform="translate(512.823132, 207.904382)"><g><path d="M 11.078125 -11.109375 L 3.921875 -11.109375 L 3.921875 -7.578125 L 10.328125 -7.578125 L 10.328125 -5.59375 L 3.921875 -5.59375 L 3.921875 -1.984375 L 11.296875 -1.984375 L 11.296875 0 L 1.71875 0 L 1.71875 -13.09375 L 11.078125 -13.09375 Z M 11.078125 -11.109375 "/></g></g></g><g fill="#191919" fill-opacity="1"><g transform="translate(536.322809, 207.904382)"><g><path d="M 10.171875 -2.953125 L 3.578125 -2.953125 L 2.3125 0 L 0.015625 0 L 5.796875 -13.09375 L 8.0625 -13.09375 L 13.78125 0 L 11.421875 0 Z M 9.328125 -4.921875 L 6.859375 -10.734375 L 4.390625 -4.921875 Z M 9.328125 -4.921875 "/></g></g></g><g fill="#191919" fill-opacity="1"><g transform="translate(561.356711, 207.904382)"><g><path d="M 10.65625 -11.109375 L 6.515625 -11.109375 L 6.515625 0 L 4.296875 0 L 4.296875 -11.109375 L 0.171875 -11.109375 L 0.171875 -13.09375 L 10.65625 -13.09375 Z M 10.65625 -11.109375 "/></g></g></g><g fill="#191919" fill-opacity="1"><g transform="translate(583.415713, 207.904382)"><g><path d="M 3.921875 0 L 1.71875 0 L 1.71875 -13.09375 L 3.921875 -13.09375 Z M 3.921875 0 "/></g></g></g><g fill="#191919" fill-opacity="1"><g transform="translate(600.292045, 207.904382)"><g><path d="M 7.5625 0 L 5.28125 0 L 0.0625 -13.09375 L 2.4375 -13.09375 L 6.46875 -2.453125 L 10.546875 -13.09375 L 12.84375 -13.09375 Z M 7.5625 0 "/></g></g></g><g fill="#191919" fill-opacity="1"><g transform="translate(624.427862, 207.904382)"><g><path d="M 11.078125 -11.109375 L 3.921875 -11.109375 L 3.921875 -7.578125 L 10.328125 -7.578125 L 10.328125 -5.59375 L 3.921875 -5.59375 L 3.921875 -1.984375 L 11.296875 -1.984375 L 11.296875 0 L 1.71875 0 L 1.71875 -13.09375 L 11.078125 -13.09375 Z M 11.078125 -11.109375 "/></g></g></g><g fill="#191919" fill-opacity="1"><g transform="translate(647.927535, 207.904382)"><g/></g></g><g fill="#191919" fill-opacity="1"><g transform="translate(663.980633, 207.904382)"><g><path d="M 6.015625 -13.1875 C 7.710938 -13.1875 9.242188 -12.738281 10.609375 -11.84375 L 9.6875 -9.890625 C 8.351562 -10.703125 7.078125 -11.109375 5.859375 -11.109375 C 5.191406 -11.109375 4.664062 -10.988281 4.28125 -10.75 C 3.90625 -10.519531 3.71875 -10.1875 3.71875 -9.75 C 3.71875 -9.3125 3.890625 -8.9375 4.234375 -8.625 C 4.585938 -8.320312 5.023438 -8.097656 5.546875 -7.953125 C 6.078125 -7.816406 6.644531 -7.640625 7.25 -7.421875 C 7.863281 -7.203125 8.429688 -6.96875 8.953125 -6.71875 C 9.484375 -6.476562 9.914062 -6.097656 10.25 -5.578125 C 10.59375 -5.066406 10.765625 -4.441406 10.765625 -3.703125 C 10.765625 -2.554688 10.304688 -1.640625 9.390625 -0.953125 C 8.484375 -0.265625 7.296875 0.078125 5.828125 0.078125 C 4.835938 0.078125 3.875 -0.109375 2.9375 -0.484375 C 2 -0.859375 1.179688 -1.363281 0.484375 -2 L 1.4375 -3.90625 C 2.101562 -3.300781 2.832031 -2.832031 3.625 -2.5 C 4.414062 -2.164062 5.164062 -2 5.875 -2 C 6.644531 -2 7.242188 -2.140625 7.671875 -2.421875 C 8.109375 -2.703125 8.328125 -3.09375 8.328125 -3.59375 C 8.328125 -4.039062 8.148438 -4.414062 7.796875 -4.71875 C 7.453125 -5.03125 7.015625 -5.253906 6.484375 -5.390625 C 5.960938 -5.535156 5.394531 -5.710938 4.78125 -5.921875 C 4.175781 -6.128906 3.609375 -6.347656 3.078125 -6.578125 C 2.554688 -6.804688 2.117188 -7.175781 1.765625 -7.6875 C 1.421875 -8.195312 1.25 -8.8125 1.25 -9.53125 C 1.25 -10.644531 1.6875 -11.53125 2.5625 -12.1875 C 3.4375 -12.851562 4.585938 -13.1875 6.015625 -13.1875 Z M 6.015625 -13.1875 "/></g></g></g><g fill="#191919" fill-opacity="1"><g transform="translate(686.844164, 207.904382)"><g><path d="M 2.640625 -11.25 C 3.972656 -12.507812 5.617188 -13.140625 7.578125 -13.140625 C 9.535156 -13.140625 11.179688 -12.507812 12.515625 -11.25 C 13.847656 -9.988281 14.515625 -8.421875 14.515625 -6.546875 C 14.515625 -4.671875 13.847656 -3.09375 12.515625 -1.8125 C 11.179688 -0.539062 9.535156 0.09375 7.578125 0.09375 C 5.617188 0.09375 3.972656 -0.539062 2.640625 -1.8125 C 1.304688 -3.09375 0.640625 -4.671875 0.640625 -6.546875 C 0.640625 -8.421875 1.304688 -9.988281 2.640625 -11.25 Z M 7.59375 -11.171875 C 6.289062 -11.171875 5.175781 -10.722656 4.25 -9.828125 C 3.332031 -8.929688 2.875 -7.832031 2.875 -6.53125 C 2.875 -5.238281 3.335938 -4.140625 4.265625 -3.234375 C 5.203125 -2.335938 6.3125 -1.890625 7.59375 -1.890625 C 8.875 -1.890625 9.96875 -2.335938 10.875 -3.234375 C 11.789062 -4.140625 12.25 -5.238281 12.25 -6.53125 C 12.25 -7.832031 11.789062 -8.929688 10.875 -9.828125 C 9.96875 -10.722656 8.875 -11.171875 7.59375 -11.171875 Z M 7.59375 -11.171875 "/></g></g></g><g fill="#191919" fill-opacity="1"><g transform="translate(713.225168, 207.904382)"><g><path d="M 3.921875 -2 L 9.59375 -2 L 9.59375 0 L 1.71875 0 L 1.71875 -13.09375 L 3.921875 -13.09375 Z M 3.921875 -2 "/></g></g></g><g fill="#191919" fill-opacity="1"><g transform="translate(734.442231, 207.904382)"><g><path d="M 12.84375 -13.09375 L 12.84375 -5.421875 C 12.84375 -3.710938 12.335938 -2.363281 11.328125 -1.375 C 10.316406 -0.394531 8.925781 0.09375 7.15625 0.09375 C 5.382812 0.09375 3.988281 -0.394531 2.96875 -1.375 C 1.957031 -2.363281 1.453125 -3.710938 1.453125 -5.421875 L 1.453125 -13.09375 L 3.671875 -13.09375 L 3.671875 -5.421875 C 3.671875 -4.328125 3.984375 -3.460938 4.609375 -2.828125 C 5.242188 -2.203125 6.101562 -1.890625 7.1875 -1.890625 C 8.257812 -1.890625 9.101562 -2.203125 9.71875 -2.828125 C 10.332031 -3.453125 10.640625 -4.316406 10.640625 -5.421875 L 10.640625 -13.09375 Z M 12.84375 -13.09375 "/></g></g></g><g fill="#191919" fill-opacity="1"><g transform="translate(759.962578, 207.904382)"><g><path d="M 10.65625 -11.109375 L 6.515625 -11.109375 L 6.515625 0 L 4.296875 0 L 4.296875 -11.109375 L 0.171875 -11.109375 L 0.171875 -13.09375 L 10.65625 -13.09375 Z M 10.65625 -11.109375 "/></g></g></g><g fill="#191919" fill-opacity="1"><g transform="translate(782.021575, 207.904382)"><g><path d="M 3.921875 0 L 1.71875 0 L 1.71875 -13.09375 L 3.921875 -13.09375 Z M 3.921875 0 "/></g></g></g><g fill="#191919" fill-opacity="1"><g transform="translate(798.897906, 207.904382)"><g><path d="M 2.640625 -11.25 C 3.972656 -12.507812 5.617188 -13.140625 7.578125 -13.140625 C 9.535156 -13.140625 11.179688 -12.507812 12.515625 -11.25 C 13.847656 -9.988281 14.515625 -8.421875 14.515625 -6.546875 C 14.515625 -4.671875 13.847656 -3.09375 12.515625 -1.8125 C 11.179688 -0.539062 9.535156 0.09375 7.578125 0.09375 C 5.617188 0.09375 3.972656 -0.539062 2.640625 -1.8125 C 1.304688 -3.09375 0.640625 -4.671875 0.640625 -6.546875 C 0.640625 -8.421875 1.304688 -9.988281 2.640625 -11.25 Z M 7.59375 -11.171875 C 6.289062 -11.171875 5.175781 -10.722656 4.25 -9.828125 C 3.332031 -8.929688 2.875 -7.832031 2.875 -6.53125 C 2.875 -5.238281 3.335938 -4.140625 4.265625 -3.234375 C 5.203125 -2.335938 6.3125 -1.890625 7.59375 -1.890625 C 8.875 -1.890625 9.96875 -2.335938 10.875 -3.234375 C 11.789062 -4.140625 12.25 -5.238281 12.25 -6.53125 C 12.25 -7.832031 11.789062 -8.929688 10.875 -9.828125 C 9.96875 -10.722656 8.875 -11.171875 7.59375 -11.171875 Z M 7.59375 -11.171875 "/></g></g></g><g fill="#191919" fill-opacity="1"><g transform="translate(825.27891, 207.904382)"><g><path d="M 13.078125 0 L 10.90625 0 L 3.921875 -9.390625 L 3.921875 0 L 1.71875 0 L 1.71875 -13.09375 L 3.890625 -13.09375 L 10.90625 -3.6875 L 10.90625 -13.09375 L 13.078125 -13.09375 Z M 13.078125 0 "/></g></g></g><g fill="#191919" fill-opacity="1"><g transform="translate(851.323155, 207.904382)"><g><path d="M 6.015625 -13.1875 C 7.710938 -13.1875 9.242188 -12.738281 10.609375 -11.84375 L 9.6875 -9.890625 C 8.351562 -10.703125 7.078125 -11.109375 5.859375 -11.109375 C 5.191406 -11.109375 4.664062 -10.988281 4.28125 -10.75 C 3.90625 -10.519531 3.71875 -10.1875 3.71875 -9.75 C 3.71875 -9.3125 3.890625 -8.9375 4.234375 -8.625 C 4.585938 -8.320312 5.023438 -8.097656 5.546875 -7.953125 C 6.078125 -7.816406 6.644531 -7.640625 7.25 -7.421875 C 7.863281 -7.203125 8.429688 -6.96875 8.953125 -6.71875 C 9.484375 -6.476562 9.914062 -6.097656 10.25 -5.578125 C 10.59375 -5.066406 10.765625 -4.441406 10.765625 -3.703125 C 10.765625 -2.554688 10.304688 -1.640625 9.390625 -0.953125 C 8.484375 -0.265625 7.296875 0.078125 5.828125 0.078125 C 4.835938 0.078125 3.875 -0.109375 2.9375 -0.484375 C 2 -0.859375 1.179688 -1.363281 0.484375 -2 L 1.4375 -3.90625 C 2.101562 -3.300781 2.832031 -2.832031 3.625 -2.5 C 4.414062 -2.164062 5.164062 -2 5.875 -2 C 6.644531 -2 7.242188 -2.140625 7.671875 -2.421875 C 8.109375 -2.703125 8.328125 -3.09375 8.328125 -3.59375 C 8.328125 -4.039062 8.148438 -4.414062 7.796875 -4.71875 C 7.453125 -5.03125 7.015625 -5.253906 6.484375 -5.390625 C 5.960938 -5.535156 5.394531 -5.710938 4.78125 -5.921875 C 4.175781 -6.128906 3.609375 -6.347656 3.078125 -6.578125 C 2.554688 -6.804688 2.117188 -7.175781 1.765625 -7.6875 C 1.421875 -8.195312 1.25 -8.8125 1.25 -9.53125 C 1.25 -10.644531 1.6875 -11.53125 2.5625 -12.1875 C 3.4375 -12.851562 4.585938 -13.1875 6.015625 -13.1875 Z M 6.015625 -13.1875 "/></g></g></g></svg>